<svg width="1148.7" height="798.59" clip-rule="evenodd" fill-rule="evenodd" stroke-linecap="round" stroke-linejoin="round" version="1.1" viewBox="0 0 1148.7 798.59" xmlns="http://www.w3.org/2000/svg" xmlns:xlink="http://www.w3.org/1999/xlink">
 <g stroke-opacity="0">
  <path d="m89.469 791.53c-15.969-3.4695-36.696-13.698-50.034-24.692-11.525-9.5001-25.061-30.713-30.93-48.472-4.5057-13.634-4.7098-19.571-4.7599-138.5-0.0667-158.08 3.7756-236.17 15.114-307.2 4.344-27.21 9.5488-59.828 11.566-72.484 5.8222-36.523 11.932-64.07 16.638-75.016 4.4574-10.367 17.123-27.116 38.967-51.528 6.7868-7.5846 15.537-19.379 19.445-26.21 15.315-26.767 26.004-34.392 57.032-40.679 35.707-7.2352 51.27-2.7519 95.248 27.44 15.318 10.516 30.44 20.584 33.604 22.373 4.6915 2.6526 29.101 3.4648 132.31 4.4032l126.56 1.1505 0.5992 101.75 0.5991 101.75-7.5024 3.8617c-4.1264 2.124-14.751 8.7383-23.61 14.699-8.8592 5.9603-20.632 13.14-26.161 15.955-5.5294 2.8152-9.1536 5.9116-8.0538 6.8807 1.0998 0.96918 10.801 5.1966 21.559 9.3942 16.55 6.458 40.865 17.443 43.262 19.545 0.3803 0.33352 0.636 35.675 0.5683 78.536-0.1461 92.409 1.8259 86.311-27.27 84.317l-17.982-1.2325-11.287 11.922c-13.786 14.561-34.444 24.96-53.549 26.957-16.276 1.7012-39.969-4.5372-54.175-14.265-7.1948-4.9266-10.389-5.7628-17.258-4.5184-14.164 2.5658-39.813 16.173-56.194 29.813-27.179 22.63-33.806 32.98-86.655 135.34-48.552 94.034-66.644 112.57-109.34 112.01-7.6803-0.1005-20.423-1.5861-28.317-3.3012zm75.332-102.85c16.872-13.189 43.435-47.711 57.173-74.303 28.11-54.41 85.167-107.59 127.52-118.86 6.0281-1.6038 10.491-3.992 9.917-5.3071-10.269-23.536-10.532-51.732-0.68405-73.243 7.2458-15.827 24.043-33.128 39.635-40.825 10.022-4.9472 14.62-5.6793 35.667-5.6793 20.886 0 25.671 0.74949 35.298 5.5279 14.877 7.3845 31.833 24.282 39.688 39.549 5.5565 10.801 6.4247 15.194 6.554 33.16 0.082 11.39-0.6472 23.557-1.6205 27.038l-1.7697 6.328h25.4v-137.95l-6.328-3.2439c-3.4804-1.7841-17.201-7.4844-30.489-12.667-30.235-11.792-34.998-14.995-34.072-22.912 0.57346-4.905 4.2178-8.0076 19.334-16.46 10.245-5.7289 25.994-15.076 34.998-20.771l16.37-10.355 0.188-97.796h-41.109c-38.307 0-41.529-0.3302-47.266-4.843-34.412-27.068-65.398-45.665-96.075-57.659-32.07-12.539-52.714-17.424-86.576-20.485-73.689-6.6613-144.98 12.514-178.08 47.898-16.328 17.455-31.131 41.526-35.066 57.018-16.785 66.08-23.764 112.97-28.251 189.77-5.8634 100.37-4.921 116.31 9.9141 167.63 16.722 57.849 58.215 134.54 80.794 149.34 12.571 8.2367 38.462 8.2917 48.936 0.104z"/>
  <path d="m461 255.93c-12.074-2.7461-18.441-5.9427-23.417-11.756-8.3602-9.7671-4.4685-22.633 8.9049-29.44 7.6204-3.8787 13.61-5.101 24.996-5.101 15.725 0 24.533 2.8723 32.136 10.48 2.8642 2.8661 4.5079 5.3952 5.5553 8.5474 1.4714 4.4285 1.4684 4.528-0.28058 9.2026-2.9877 7.9852-9.5304 13.139-20.914 16.475-8.9241 2.6151-19.69 3.2505-26.98 1.5922z"/>
  <path d="m213.1 252.44c-2.4282-1.6214-2.7659-4.5229-2.7659-23.768v-19.616l1.9969-1.9969c1.987-1.987 2.0774-1.9969 18.267-1.9969 17.129 0 19.915 0.47776 20.741 3.5568 0.25554 0.95223 0.46962 10.54 0.47573 21.307 0.0105 18.584-0.0729 19.666-1.6477 21.356-1.6065 1.7244-2.2029 1.7801-18.915 1.7681-9.491-7e-3 -17.659-0.28143-18.152-0.61017zm29.777-9.4988c0-0.85869-1.5613-1.2194-2.0257-0.46807-0.28105 0.45476 0.0598 0.82683 0.75734 0.82683 0.6976 0 1.2684-0.16144 1.2684-0.35876z"/>
  <path d="m268.8 297.16c-9.102-0.34581-8.8969 0.0693-9.4332-19.092-0.46328-16.552 0.12367-21.091 2.8631-22.142 0.75902-0.29126 10.351-0.51135 21.317-0.48908l19.937 0.0405 1.8305 2.0896c1.7628 2.0124 1.8305 2.6698 1.8305 17.787 0 16.682-0.61106 20.379-3.5256 21.331-1.8153 0.5932-23.809 0.89324-34.818 0.47499z"/>
  <path d="m163.11 296.99c-1.5875-0.22373-3.9671-1.264-5.2881-2.3116l-2.4018-1.9048v-16.926c0-15.503 0.13028-17.07 1.5498-18.638 1.4992-1.6559 2.2366-1.7119 22.555-1.7119h21.006l1.2412 2.4003c0.98812 1.9108 1.2412 5.6357 1.2412 18.267 0 16.701-0.49342 19.531-3.5811 20.535-1.9933 0.64808-32.077 0.88813-36.322 0.28983zm30.141-10.576c0-0.44746-0.3445-0.81356-0.76555-0.81356s-0.99181 0.3661-1.2684 0.81356 0.0679 0.81356 0.76555 0.81356c0.69759 0 1.2684-0.3661 1.2684-0.81356z"/>
  <path d="m213.59 347.35c-4.6934-1.8416-4.8436-2.5941-4.8633-24.381-0.018-19.858-5e-3 -20.006 1.8648-21.763 1.8136-1.7038 2.5317-1.7689 19.507-1.7689h17.624l1.4425 2.2137c1.2872 1.9755 1.4282 4.2598 1.3098 21.222-0.073 10.455-0.33617 19.819-0.58482 20.81-0.92155 3.6718-4.9613 4.5722-20.259 4.5159-7.7035-0.0284-14.922-0.4107-16.04-0.84963z"/>
  <path d="m211.65 345.57c-1.7477-1.7477-1.9014-2.7456-2.4303-15.774-0.69749-17.182-0.0438-26.541 1.9817-28.374 1.2009-1.0868 4.4312-1.3899 18.854-1.7689l17.405-0.45742 1.37 2.887c1.1384 2.3991 1.3688 5.547 1.3629 18.628-4e-3 8.6578-0.24292 17.706-0.53117 20.106-0.74927 6.2398-1.9522 6.6184-21.032 6.6184-14.674 0-15.168-0.0544-16.98-1.8657z"/>
  <path d="m191.69 287.19c-0.36542-0.0819-0.54612-0.23954-0.54644-0.4768-2.1e-4 -0.15391 0.059-0.28121 0.2274-0.48883 0.10922-0.13469 0.16445-0.17568 0.39368-0.29222 0.15295-0.0778 0.27944-0.1595 0.29667-0.19171 0.0165-0.0309 0.037-0.0548 0.0455-0.0532 8e-3 2e-3 0.0497-0.0122 0.0917-0.0305 0.12765-0.0559 0.43814-0.0466 0.57761 0.0174 0.38223 0.17539 0.56935 0.67951 0.37683 1.0152-0.18011 0.31401-0.6503 0.5213-1.1683 0.51504-0.13409-2e-3 -0.26669-8e-3 -0.29466-0.0144z"/>
  <path d="m191.55 287.14c-0.0618-0.0216-0.15588-0.0668-0.20902-0.10034-0.36558-0.23079-0.15861-0.7838 0.40747-1.0887 0.12754-0.0687 0.26829-0.15741 0.31278-0.19713 0.13992-0.12492 0.39821-0.159 0.64639-0.0853 0.38328 0.11382 0.61652 0.63171 0.44453 0.98701-0.10307 0.21291-0.37783 0.39727-0.72603 0.48716-0.20424 0.0527-0.7224 0.0512-0.87612-3e-3z"/>
  <path d="m191.7 285.93c0-0.0156 0.28684-0.19264 0.31215-0.19264 0.0453 0-0.0162 0.055-0.14236 0.12741-0.12552 0.072-0.16979 0.089-0.16979 0.0652z"/>
 </g>
 <g stroke-opacity="0">
  <path d="m173.13 297.31c-5.8468-0.0493-9.3208-0.18114-10.373-0.39376-1.2018-0.24287-2.7668-0.87357-3.9915-1.6086l-0.35593-0.21362-6e-3 -11.876-6e-3 -11.876h44.599l-0.013 5.8665c-0.0122 5.4788-0.0239 6.5688-0.094 8.7013-0.1909 5.8146-0.67809 8.4506-1.8009 9.7438-0.50726 0.58423-1.2759 0.9964-2.0762 1.1132-1.5603 0.22784-6.7622 0.41186-14.352 0.50772-1.9828 0.025-9.8734 0.0491-11.53 0.0351zm19.245-10.116c0.21784-0.0461 0.49925-0.17872 0.64044-0.30172 0.14224-0.12392 0.23741-0.31893 0.23741-0.4865 0-0.44491-0.3397-0.80633-0.76029-0.80889-0.23357-1e-3 -0.64173 0.13624-0.55909 0.18856 0.0252 0.0159 0.0133 0.0227-0.0408 0.0231-0.16497 1e-3 -0.56919 0.3796-0.71662 0.67055-0.0843 0.16641-0.0745 0.35134 0.0255 0.48256 0.076 0.0996 0.27981 0.20949 0.4507 0.24299 0.18015 0.0353 0.53003 0.0302 0.72269-0.0107z"/>
  <path d="m173.13 297.31c-4.9995-0.0304-9.009-0.16956-10.157-0.35252-1.1642-0.18558-2.9101-0.86931-4.2076-1.6478l-0.35593-0.21356-6e-3 -11.876-6e-3 -11.876h44.593l-2.8e-4 4.7479c-3.6e-4 5.7701-0.0338 8.3554-0.14045 10.85-0.20212 4.7273-0.62432 7.0648-1.5171 8.3993-0.18063 0.26999-0.61847 0.70187-0.89116 0.87902-0.40352 0.26215-0.89674 0.46152-1.3157 0.53185-2.1748 0.36507-14.436 0.62824-25.995 0.55796zm19.181-10.103c0.17137-0.0278 0.5352-0.16553 0.5352-0.2026 0-0.0118-0.0715 0.0108-0.1589 0.0501-0.22155 0.0998-0.38267 0.1286-0.7201 0.1286-0.31257 0-0.49145-0.0422-0.64627-0.15243-0.16363-0.11651-0.20786-0.35162-0.10434-0.55454 0.0299-0.0586 0.0441-0.10659 0.0316-0.10659-0.0376 0-0.13076 0.24411-0.13076 0.34259 0 0.23764 0.21066 0.42948 0.54424 0.49562 0.15197 0.0301 0.46114 0.0298 0.64937-7.9e-4zm0.70258-0.31369c0.0548-0.0476 0.0938-0.0922 0.0869-0.0991-7e-3 -7e-3 -0.0642 0.0319-0.12712 0.0864-0.0629 0.0545-0.10201 0.0991-0.0869 0.0991 0.0151 3e-5 0.0723-0.0388 0.12712-0.0864zm0.20539-0.42839c-7e-3 -0.0175-0.0128-3e-3 -0.0128 0.0318 0 0.035 6e-3 0.0493 0.0128 0.0318 7e-3 -0.0175 7e-3 -0.0461 0-0.0636zm-1.8593-0.21745c-0.0171-0.0171-0.0897 0.0463-0.0897 0.0783 0 0.0144 0.0229 5e-3 0.051-0.0199 0.0281-0.0254 0.0455-0.0517 0.0388-0.0584zm1.8598 0.0157c-8e-3 -0.0203-0.0141-0.0143-0.0154 0.0154-1e-3 0.0268 5e-3 0.0418 0.0133 0.0334 8e-3 -8e-3 9e-3 -0.0304 2e-3 -0.0487zm-1.4536-0.32106c0.20447-0.11436 0.39084-0.26068 0.32842-0.25785-0.044 2e-3 -0.20166 0.0985-0.16333 0.1 0.0322 1e-3 0.0326 5e-3 2e-3 0.0241-0.0197 0.0125-0.0508 0.0169-0.069 0.01-0.0529-0.0203-0.46719 0.29415-0.46719 0.35466 0 0.0155 0.0315-1e-3 0.0699-0.0373 0.0385-0.036 0.17296-0.12313 0.2989-0.19357zm1.3632 0.0648c-0.0251-0.0249-0.028-0.022-0.0142 0.0142 0.01 0.0251 0.0238 0.0392 0.0316 0.0314 8e-3 -8e-3 1e-5 -0.0283-0.0174-0.0456zm-0.0794-0.14487c0-0.0135-0.0257-0.038-0.0572-0.0545-0.0569-0.0299-0.057-0.0297-9e-3 0.0245 0.0538 0.0606 0.066 0.0661 0.066 0.03zm-0.7696-0.21964c-8e-3 -8e-3 -0.0304-9e-3 -0.0487-2e-3 -0.0203 8e-3 -0.0142 0.0141 0.0154 0.0154 0.0268 1e-3 0.0418-5e-3 0.0334-0.0133zm0.2357-0.0339c0-0.0132-0.0425-0.0173-0.0953-9e-3 -0.13201 0.0204-0.13605 0.0329-0.0106 0.0329 0.0583 0 0.10593-0.0107 0.10593-0.0238z"/>
  <path d="m172.86 297.31c-1.2455-8e-3 -4.2019-0.0555-5.2373-0.0848-2.5666-0.0726-3.9615-0.15334-4.6652-0.26998-1.1931-0.19774-2.8814-0.85938-4.1949-1.644l-0.35593-0.21261-0.012-23.754h44.593l-2.6e-4 4.7733c-2.5e-4 5.6028-0.0313 8.1745-0.1279 10.57-0.18414 4.5674-0.58053 7.0232-1.3505 8.3665-0.36641 0.63927-0.88365 1.12-1.5285 1.4207-0.51689 0.24103-0.92047 0.32045-2.065 0.40641-4.0681 0.30553-14.909 0.49108-25.055 0.42882zm19.665-10.163c0.19941-0.0646 0.35851-0.13854 0.3019-0.14032-0.0157-5e-4 -0.0901 0.0262-0.16526 0.0593-0.20178 0.089-0.3722 0.11772-0.69784 0.11772-0.31257 0-0.49145-0.0422-0.64627-0.15243-0.16363-0.11651-0.20786-0.35162-0.10434-0.55454 0.0299-0.0586 0.0448-0.10659 0.0331-0.10659-0.0316 0-0.1042 0.16471-0.12222 0.27741-0.0414 0.25897 0.15608 0.46771 0.52378 0.5536 0.21882 0.0511 0.63054 0.0257 0.87711-0.0542zm0.48306-0.25364c0.0559-0.0474 0.096-0.0919 0.089-0.0988-7e-3 -7e-3 -0.0628 0.0321-0.12403 0.0866-0.13645 0.12154-0.10628 0.13201 0.0351 0.0122zm0.20804-0.40083c-8e-3 -0.0203-0.0141-0.0142-0.0154 0.0154-1e-3 0.0268 5e-3 0.0418 0.0133 0.0334 8e-3 -8e-3 9e-3 -0.0304 2e-3 -0.0487zm-1.8791-0.23833c-9e-3 -9e-3 -0.0292 0.0112-0.046 0.0439-0.0291 0.0568-0.0284 0.0575 0.0155 0.0155 0.0253-0.0241 0.039-0.0508 0.0305-0.0594zm1.8791 0.01c-8e-3 -0.0203-0.0141-0.0143-0.0154 0.0154-1e-3 0.0268 5e-3 0.0418 0.0133 0.0334 8e-3 -8e-3 9e-3 -0.0304 2e-3 -0.0487zm-1.4411-0.33202c0.21222-0.12356 0.373-0.24796 0.32048-0.24796-0.0459 0-0.16792 0.0812-0.15455 0.10278 0.0137 0.0222-0.0213 0.0354-0.0716 0.027-0.058-0.01-0.43319 0.27215-0.46187 0.3469-0.012 0.0312 4e-3 0.0246 0.0545-0.0218 0.0393-0.0364 0.18023-0.12954 0.31306-0.20689zm1.2712-0.0691c0-0.0135-0.0257-0.038-0.0572-0.0545-0.0569-0.0299-0.057-0.0297-9e-3 0.0245 0.0538 0.0606 0.066 0.0661 0.066 0.03zm-0.57839-0.24765c-0.0315-6e-3 -0.0829-6e-3 -0.11441 0-0.0315 6e-3 -6e-3 0.011 0.0572 0.011 0.0629 0 0.0887-5e-3 0.0572-0.011z"/>
  <path d="m172.66 297.31c-4.7561-0.0346-8.6465-0.17641-9.7119-0.35389-0.57341-0.0955-1.3584-0.32973-2.1356-0.63712-0.52201-0.20647-1.5742-0.72313-2.0466-1.005l-0.35593-0.21233-0.012-23.757h44.599l-0.0133 5.9301c-0.0143 6.3718-0.0367 7.8255-0.15868 10.29-0.20493 4.1427-0.60462 6.337-1.3881 7.6212-0.48881 0.80114-1.3881 1.413-2.3038 1.5674-2.1929 0.36979-15.041 0.64003-26.472 0.55676zm19.589-10.102c0.1843-0.0257 0.53563-0.13921 0.56175-0.18149 8e-3 -0.0133-0.029-5e-3 -0.0828 0.0192-0.21626 0.096-0.42352 0.13427-0.73555 0.13576-0.33743 2e-3 -0.48651-0.0298-0.64775-0.13651-0.0542-0.0359-0.11797-0.10243-0.14176-0.14794-0.0536-0.1025-0.0524-0.28013 3e-3 -0.40919 0.0229-0.0537 0.0301-0.0905 0.016-0.0818-0.05 0.0309-0.11176 0.28273-0.0934 0.3807 0.0601 0.32044 0.54271 0.5018 1.1207 0.42118zm0.83931-0.40181c-8e-3 -8e-3 -0.0573 0.0295-0.10922 0.0835l-0.0945 0.0982 0.10922-0.0835c0.0601-0.0459 0.10259-0.0901 0.0945-0.0982zm-1.7477-0.55275c-9e-3 -9e-3 -0.0292 0.0112-0.046 0.0439-0.0291 0.0568-0.0284 0.0575 0.0155 0.0155 0.0253-0.0241 0.039-0.0508 0.0305-0.0594zm0.2479-0.23515c-0.0145-0.0145-0.13614 0.0791-0.15147 0.11661-7e-3 0.0178 0.026 1e-3 0.074-0.0372 0.048-0.0383 0.0828-0.074 0.0775-0.0794zm0.21101-0.0985c0.23547-0.13509 0.41432-0.30545 0.20945-0.1995-0.0437 0.0226-0.0727 0.052-0.0644 0.0654 0.0139 0.0225-0.0221 0.0356-0.073 0.0266-0.0292-5e-3 -0.24537 0.13282-0.24542 0.15669 0 0.0349 0.0532 0.0198 0.17339-0.0492zm1.2503-0.058c0-0.0135-0.0257-0.038-0.0572-0.0545-0.0569-0.0299-0.057-0.0297-9e-3 0.0245 0.0538 0.0606 0.066 0.0661 0.066 0.03zm-0.5911-0.24723c-0.0245-6e-3 -0.0645-6e-3 -0.089 0s-4e-3 0.0116 0.0445 0.0116c0.0489 0 0.069-5e-3 0.0445-0.0116z"/>
  <path d="m172.39 297.31c-5.1204-0.0565-8.3777-0.17927-9.4449-0.35609-0.57807-0.0958-1.3973-0.34085-2.1737-0.65029-0.49045-0.19545-1.6086-0.74827-2.0339-1.0056l-0.33051-0.19996-0.012-23.756h44.599l-0.0136 5.9809c-0.0146 6.4299-0.0357 7.7995-0.15836 10.265-0.18743 3.7667-0.53404 5.8843-1.1798 7.2076-0.20738 0.42501-0.40604 0.71012-0.70419 1.0106-0.47135 0.47506-1.1579 0.8339-1.8097 0.94584-1.3295 0.22834-6.2898 0.41289-14.064 0.52325-1.7154 0.0244-11.243 0.0503-12.674 0.0346zm20.027-10.142 0.10842-0.0353-0.10169 0.0177c-0.0559 0.01-0.26759 0.0177-0.47034 0.0177-0.33379-5e-5 -0.38132-6e-3 -0.50271-0.0606-0.15855-0.0716-0.24812-0.16947-0.2869-0.31348-0.0235-0.0873-0.0202-0.12943 0.0199-0.25156 0.0265-0.0807 0.039-0.1411 0.0279-0.13423-0.0418 0.0258-0.10185 0.29462-0.0854 0.3822 0.0355 0.18912 0.2744 0.3605 0.57764 0.41433 0.17041 0.0303 0.57061 0.01 0.71323-0.0368zm0.27368-0.0888c0.021-0.0136 0.0267-0.0246 0.0127-0.0246s-0.0426 0.0111-0.0636 0.0246c-0.021 0.0136-0.0267 0.0246-0.0127 0.0246s0.0426-0.0111 0.0636-0.0246zm0.11422-0.0506c9e-3 -0.0144-1e-3 -0.0187-0.0239-0.01-0.044 0.0169-0.0521 0.0351-0.0155 0.0351 0.0132 0 0.0309-0.0113 0.0395-0.0251zm0.26713-0.21322c0-0.014-0.0343 7e-3 -0.0763 0.0477-0.0419 0.0402-0.0763 0.077-0.0763 0.0818 0 5e-3 0.0343-0.0167 0.0763-0.0477s0.0763-0.0678 0.0763-0.0818zm-1.4884-0.80087c-7e-3 -7e-3 -0.0443 0.0192-0.0823 0.0587l-0.0691 0.0719 0.0823-0.0587c0.0453-0.0323 0.0764-0.0647 0.0691-0.0719zm0.28163-0.1427c0.23075-0.14382 0.31966-0.23745 0.15365-0.16182-0.0352 0.016-0.0583 0.0383-0.0513 0.0496 0.0151 0.0245-0.0774 0.0784-0.0985 0.0573-0.0174-0.0174-0.1758 0.0767-0.22104 0.13122-0.0601 0.0724 0.0286 0.0413 0.21724-0.0763zm1.1813-0.0103c0-0.0125-0.0188-0.0299-0.0417-0.0387-0.0349-0.0134-0.0365-0.01-0.01 0.0227 0.0366 0.0441 0.0513 0.0487 0.0513 0.016zm-0.60381-0.24837c-0.0175-7e-3 -0.0461-7e-3 -0.0636 0s-3e-3 0.0128 0.0318 0.0128c0.035 0 0.0493-6e-3 0.0318-0.0128z"/>
  <path d="m172.22 297.31c-4.2071-0.0523-7.173-0.14477-8.5297-0.26604-0.97907-0.0875-1.7822-0.29215-2.911-0.74175-0.52925-0.21078-1.6159-0.74768-2.0593-1.0175l-0.30508-0.18563-0.012-23.757h44.593l-2.6e-4 4.8114c-3.3e-4 6.0264-0.0316 8.4564-0.14048 10.926-0.0347 0.78665-0.0957 1.8608-0.12638 2.2246-0.16556 1.9641-0.31314 3.0197-0.56165 4.017-0.20737 0.83219-0.52428 1.5968-0.85224 2.0562-0.46547 0.65207-1.2204 1.1592-1.991 1.3376-1.0768 0.24924-5.9501 0.44248-14.137 0.56057-1.6644 0.024-11.668 0.0506-12.966 0.0345zm20.143-10.125c0.046-9e-3 -0.097-0.0162-0.3178-0.0162-0.22078 0-0.43574-9e-3 -0.47769-0.0194-0.06-0.0153-0.0666-0.0136-0.0312 8e-3 0.10491 0.0637 0.56095 0.0789 0.82665 0.0276zm-0.88659-0.0635c-6e-3 -5e-3 -0.0392-0.0229-0.0742-0.0395-0.0599-0.0285-0.0607-0.028-0.0142 9e-3 0.0405 0.0324 0.12325 0.0608 0.0884 0.0303zm1.2225-0.0416c0.021-0.0136 0.0267-0.0246 0.0127-0.0246s-0.0426 0.0111-0.0636 0.0246c-0.021 0.0136-0.0267 0.0246-0.0127 0.0246s0.0426-0.0111 0.0636-0.0246zm-1.4229-0.0881c-0.0324-0.0345-0.0807-0.12314-0.10737-0.19704-0.0452-0.12538-0.0474-0.12756-0.0323-0.0326 9e-3 0.0559 0.029 0.11886 0.0445 0.13983 0.0519 0.0699 0.1284 0.15254 0.14127 0.15254 7e-3 0-0.0138-0.0282-0.0462-0.0627zm1.728-0.10257c0.0328-0.035 0.054-0.0636 0.047-0.0636s-0.0396 0.0286-0.0724 0.0636-0.054 0.0636-0.047 0.0636 0.0396-0.0286 0.0724-0.0636zm-1.7905-0.46427c-0.013-0.013-0.0657 0.14796-0.0637 0.19476 9.4e-4 0.0224 0.0176-0.0103 0.037-0.0727s0.0314-0.11729 0.0267-0.12206zm0.3668-0.39354c0-0.0307-0.0141-0.0231-0.066 0.0351-0.0483 0.0542-0.0482 0.0543 9e-3 0.0193 0.0315-0.0193 0.0572-0.0438 0.0572-0.0544zm0.22526-0.12124c0.17011-0.0908 0.30229-0.19217 0.27992-0.21477-9e-3 -9e-3 -0.0594 0.0247-0.11234 0.0747-0.053 0.05-0.1087 0.0864-0.12382 0.0809-0.0351-0.0127-0.14838 0.0441-0.19135 0.0958-0.0481 0.0579-0.0137 0.0494 0.14759-0.0367zm1.2493-0.0348c0-5e-3 -0.02-0.0253-0.0445-0.0445-0.0403-0.0316-0.0412-0.0307-0.01 0.01 0.0332 0.0424 0.0541 0.0558 0.0541 0.0349z"/>
  <path d="m172.02 297.31c-4.4319-0.0414-8.0934-0.18385-9.089-0.35359-0.68131-0.11615-1.6667-0.42881-2.517-0.79863-0.43578-0.18955-1.3457-0.6547-1.7034-0.87075l-0.30508-0.1843-6e-3 -11.879-6e-3 -11.879h44.593l-3.3e-4 4.875c-4.6e-4 6.9156-0.0414 9.3362-0.20482 12.121-0.26379 4.4935-0.81754 6.5984-2.0067 7.6279-0.4033 0.34914-0.95334 0.63137-1.4605 0.74939-0.98976 0.23032-5.2239 0.41374-12.332 0.53419-3.5151 0.0596-11.506 0.0908-14.962 0.0585zm20.117-10.12c-0.0874-5e-3 -0.2304-5e-3 -0.31779 0-0.0874 5e-3 -0.0159 9e-3 0.15889 9e-3s0.2463-4e-3 0.1589-9e-3zm-0.49629-0.022c-8e-3 -8e-3 -0.0304-9e-3 -0.0487-2e-3 -0.0203 8e-3 -0.0143 0.0141 0.0154 0.0154 0.0268 1e-3 0.0418-5e-3 0.0334-0.0134zm-0.17108-0.0455c0-5e-3 -0.0178-0.0168-0.0395-0.0251-0.0226-9e-3 -0.0328-4e-3 -0.0239 0.01 0.0149 0.0242 0.0634 0.0357 0.0634 0.0151zm1.2203-0.0408c0.021-0.0136 0.0267-0.0246 0.0127-0.0246s-0.0426 0.0111-0.0636 0.0246c-0.021 0.0136-0.0267 0.0246-0.0127 0.0246s0.0426-0.0111 0.0636-0.0246zm-1.4179-0.0828c-0.0297-0.0316-0.0712-0.0974-0.0924-0.14619-0.0212-0.0488-0.039-0.0737-0.0395-0.0553-2e-3 0.062 0.1298 0.25892 0.17312 0.25892 7e-3 0-0.0116-0.0258-0.0412-0.0574zm1.7263-0.11423c0.0316-0.0403 0.0307-0.0412-0.01-0.01-0.0245 0.0192-0.0445 0.0392-0.0445 0.0445 0 0.0209 0.0209 7e-3 0.0541-0.0349zm-1.8105-0.375c7.6e-4 -0.014-0.01-8e-3 -0.0233 0.0127-0.0136 0.021-0.024 0.0553-0.0232 0.0763 1e-3 0.0403 0.0439-0.0408 0.0465-0.089zm0.3454-0.44491c0.0253-0.028 0.0403-0.0509 0.0333-0.0509s-0.0334 0.0229-0.0587 0.0509-0.0403 0.0508-0.0333 0.0508 0.0334-0.0229 0.0587-0.0508zm0.21801-0.1281c0.0559-0.0285 0.0948-0.0628 0.0865-0.0762-0.0176-0.0284-0.13906 0.0283-0.18874 0.0882-0.044 0.053-0.0197 0.0502 0.10221-0.012zm0.27775-0.1757c0.035-0.0281 0.0513-0.0513 0.0364-0.0516-0.015-3.1e-4 -0.0664 0.0352-0.11441 0.0789-0.0903 0.0823-0.0339 0.0625 0.078-0.0273z"/>
  <path d="m171.03 297.3c-4.3593-0.0654-7.1492-0.18404-8.0975-0.34445-0.67795-0.11468-1.6047-0.40716-2.4661-0.77829-0.4688-0.20198-1.4283-0.69024-1.7797-0.90558l-0.27966-0.17141-6e-3 -11.879-6e-3 -11.879h44.599l-0.0134 6.0826c-0.0145 6.5576-0.0334 7.7786-0.1584 10.239-0.23148 4.5551-0.70666 6.7728-1.7053 7.9588-0.43543 0.5171-1.1187 0.93178-1.8009 1.0929-1.0445 0.24677-5.9158 0.44227-13.946 0.5597-2.3056 0.0337-12.549 0.0509-14.339 0.024zm20.956-10.111c-0.0313-6e-3 -0.0885-6e-3 -0.12712-3.5e-4 -0.0386 6e-3 -0.0131 0.0108 0.0568 0.011s0.10154-5e-3 0.0703-0.0106zm0.16438 3e-3c-8e-3 -8e-3 -0.0304-9e-3 -0.0487-2e-3 -0.0203 8e-3 -0.0143 0.0141 0.0154 0.0154 0.0268 1e-3 0.0418-5e-3 0.0334-0.0134zm-0.85753-0.17221c0-5e-3 -0.02-0.0253-0.0445-0.0445-0.0403-0.0316-0.0412-0.0307-0.01 0.01 0.0332 0.0423 0.0541 0.0558 0.0541 0.0349zm-0.10637-0.15576c-0.0159-0.035-0.0338-0.0589-0.0397-0.053-0.0119 0.0119 0.0397 0.11669 0.0574 0.11669 6e-3 0-2e-3 -0.0286-0.0177-0.0637zm0.36385-0.81981c0.0316-0.0403 0.0307-0.0412-0.01-0.01-0.0423 0.0332-0.0558 0.0541-0.0349 0.0541 5e-3 0 0.0253-0.02 0.0445-0.0445zm0.20116-0.10857c0.11443-0.0584 0.11856-0.0636 0.0542-0.0684-0.0256-2e-3 -0.0799 0.0238-0.12077 0.0572-0.0915 0.0748-0.0664 0.079 0.0666 0.0112zm0.31687-0.22397c-8e-3 -8e-3 -0.0396 0.0123-0.0707 0.0446l-0.0565 0.0589 0.0707-0.0446c0.0389-0.0246 0.0643-0.051 0.0565-0.0589z"/>
  <path d="m171.8 297.31c-1.0072-0.01-3.5963-0.0595-4.4364-0.0852-2.6399-0.0805-3.9542-0.16736-4.6398-0.3067-1.156-0.23493-2.7206-0.87127-4.0043-1.6286l-0.31668-0.18683-5.4e-4 -11.879-5.4e-4 -11.879h44.593l-3.6e-4 4.9258c-3.3e-4 4.7882-0.0227 7.5022-0.0759 9.2224-0.21198 6.8532-0.78517 9.484-2.3136 10.619-0.53728 0.39901-1.0727 0.60462-1.8051 0.69314-1.9818 0.23951-8.1858 0.43134-16.081 0.49721-2.5026 0.0209-9.1082 0.0257-10.919 8e-3zm20.008-11.41c0-0.0138-0.0946 5e-3 -0.12722 0.0247-0.0622 0.0384-0.0174 0.0607 0.051 0.0254 0.0419-0.0217 0.0763-0.0442 0.0763-0.05zm0.2161-0.14064c0.0253-0.028 0.0403-0.0508 0.0333-0.0508s-0.0334 0.0229-0.0587 0.0508c-0.0253 0.028-0.0403 0.0509-0.0333 0.0509s0.0334-0.0229 0.0587-0.0509z"/>
  <path d="m171.67 297.31c-4.2728-0.0441-7.7392-0.18427-8.7455-0.35363-1.182-0.19894-2.8064-0.84417-4.2396-1.684l-0.28602-0.16759v-23.761h44.599l-0.0135 6.1462c-0.0145 6.6045-0.0331 7.8108-0.1585 10.227-0.26152 5.0405-0.82843 7.2764-2.1051 8.3024-0.50012 0.40193-1.0292 0.64216-1.6439 0.74647-1.4853 0.25202-7.9078 0.46403-16.233 0.53585-2.4298 0.021-9.4367 0.0261-11.174 8e-3zm20.099-11.384c0.0474-0.0357 0.0469-0.0367-0.0123-0.026-0.074 0.0134-0.1334 0.0632-0.0754 0.0632 0.0211 0 0.0606-0.0167 0.0877-0.0372zm0.2687-0.18528c0.0316-0.0403 0.0307-0.0412-0.01-0.01-0.0245 0.0192-0.0445 0.0392-0.0445 0.0445 0 0.0209 0.0209 7e-3 0.0541-0.0349z"/>
  <path d="m171.54 297.31c-4.6088-0.0636-7.661-0.18885-8.6186-0.35372-1.196-0.20591-2.8234-0.85287-4.2394-1.6852l-0.28602-0.16813v-23.761h44.599l-0.0135 6.1589c-0.0146 6.6675-0.0326 7.827-0.1587 10.239-0.24874 4.7575-0.75893 6.9482-1.8801 8.0727-0.47013 0.47154-1.1547 0.83049-1.7911 0.93916-1.3548 0.23134-5.8033 0.40317-13.552 0.52347-1.5384 0.0239-12.816 0.0512-14.059 0.034zm20.212-11.374c0.031-0.02 0.0277-0.0247-0.0176-0.025-0.0306-2e-4 -0.0628 0.0111-0.0714 0.025-0.02 0.0324 0.0389 0.0324 0.089 0z"/>
  <path d="m1006.9 791.11c-15.691-4.4739-23.382-8.8029-26.517-14.925-1.485-2.8997-4.7509-7.6271-7.2577-10.505-12.532-14.389-27.919-40.751-57.57-98.631-40.302-78.673-42.493-82.523-55.026-96.703-14.86-16.813-44.372-41.059-49.977-41.059-0.7989 0-3.9234-1.4578-6.9433-3.2397-7.0126-4.1375-23.348-9.7773-28.319-9.7773-2.1043 0-10.42 3.7494-18.48 8.332-11.741 6.6757-17.05 8.6771-26.704 10.068-28.264 4.0718-54.182-4.7476-74.358-25.302l-10.794-10.996h-11.473c-6.3103 0-13.365 0.71907-15.676 1.5979-3.348 1.2729-4.8118 0.98911-7.1961-1.3952-2.7849-2.7849-2.9419-5.7538-2.2575-42.683 0.4046-21.829 1.2155-55.719 1.802-75.31 1.0309-34.438 0.9583-35.691-2.1879-37.745-1.7898-1.1685-12.773-5.8402-24.407-10.382-38.901-15.185-44.762-18.566-44.721-25.795 0.037-6.5045 1.2054-7.5905 17.936-16.674 15.436-8.3805 49.057-29.43 53.633-33.579 2.6156-2.3714 3.1093-14.172 5.7723-137.97l1.225-56.949 114.48 0.47859c128.91 0.53895 117.81 1.5224 138.28-12.244 5.2424-3.5247 19.898-13.403 32.568-21.953 28.979-19.554 37.381-22.617 61.851-22.546 38.777 0.11255 59.103 9.1106 74.622 33.035 14.991 23.109 18.719 28.242 28.801 39.653 38.358 43.413 39.112 45.1 50.113 112.12 1.7628 10.739 3.8868 23.186 4.7198 27.661 0.8331 4.4746 1.9536 11.797 2.49 16.271 0.5364 4.4746 1.6429 11.43 2.4588 15.458 0.816 4.0271 2.6481 15.01 4.0715 24.407 1.4233 9.3966 3.2841 20.38 4.135 24.407s2.6203 20.502 3.932 36.61c4.8149 59.131 6.3397 121.36 6.0646 247.49-0.2648 121.4-0.3804 125.77-3.5723 135.05-9.686 28.167-25.922 48.556-47.172 59.241-6.806 3.422-16.64 7.4617-21.852 8.9771s-12.487 4.1217-16.164 5.7918c-9.3067 4.2265-35.011 4.0796-50.328-0.2876zm24.367-100.45c10.441-5.3267 21.485-19.197 40.15-50.427 24.887-41.639 40.649-81.024 52.573-131.37 4.4239-18.677 4.6005-21.008 4.4941-59.306-0.061-21.925-1.0047-50.847-2.0972-64.271s-2.6474-36.854-3.4552-52.068c-1.9423-36.58-3.5484-48.499-12.388-91.932-13.462-66.147-14.943-70.848-28.954-91.888-22.109-33.199-41.4-47.379-84.744-62.291-32.821-11.292-99.611-15.248-133.61-7.9133-31.417 6.777-64.782 25.157-96.665 53.251-20.03 17.65-31.002 25.64-36.795 26.795-2.5618 0.51097-26.258 1.0583-52.658 1.2163l-48 0.28729-0.8709 52.068c-0.4791 28.637-1.0282 52.217-1.2204 52.398-0.1921 0.18184-3.4612 1.7142-7.2646 3.4052-3.8034 1.691-13.871 7.6578-22.373 13.26-8.5017 5.6017-20.825 13.137-27.384 16.746-9.6467 5.3064-11.513 6.9399-9.7627 8.5447 1.1902 1.0913 10.218 5.1174 20.062 8.947 9.844 3.8296 24.001 9.7897 31.46 13.245l13.562 6.2819-0.9686 42.722c-0.5327 23.497-1.3897 56.451-1.9046 73.231l-0.9361 30.508h8.4647c8.3971 0 8.4566-0.0358 7.4435-4.4746-4.1502-18.183-4.709-25.549-2.8509-37.583 5.1445-33.319 29.401-60.439 61.37-68.616 15.134-3.8706 25.992-4.0752 39.001-0.73471 28.559 7.3334 49.626 26.09 60.255 53.645 4.7827 12.4 4.4935 43.7-0.523 56.603-2.0136 5.1793-3.6611 9.9833-3.6611 10.675s3.5679 2.1729 7.9285 3.2905c19.506 4.9992 51.366 24.222 71.091 42.893 23.858 22.584 47.59 54.113 60.951 80.978 3.7832 7.6068 12.061 20.786 18.394 29.288 13.826 18.558 39.064 45.063 43.953 46.159 1.9319 0.433 9.7493 0.5768 17.372 0.3195 10.173-0.3433 15.642-1.3771 20.561-3.8867z"/>
  <path d="m660.45 253.12c-19.349-7.1878-24.525-21.879-11.902-33.784 6.7363-6.3531 16.256-9.2434 30.444-9.2434 14.144 0 25.44 3.7658 32.192 10.732 10.022 10.34 6.4835 22.49-8.7766 30.133-10.609 5.3133-30.69 6.3486-41.957 2.163z"/>
  <path d="m948.13 372.37c-0.5593-0.31035-1.37-0.56698-1.8016-0.57028-1.4076-0.0108-7.6927-2.4902-8.3679-3.3011-0.1118-0.13435-0.9356-0.7056-1.8305-1.2694-2.0989-1.3224-6.4614-5.649-8.5473-8.477-1.6198-2.1959-4.1232-7.0055-5.0687-9.7381-1.2721-3.676-1.6907-10.927-0.9395-16.271 0.3687-2.623 1.2934-6.1178 1.7221-6.5085 0.1228-0.11186 0.5647-0.93559 0.9821-1.8305 1.605-3.4415 2.7962-5.647 3.348-6.1989 0.3157-0.3157 1.1255-1.3756 1.7997-2.3554 0.6741-0.97979 2.3666-2.6508 3.7612-3.7132s2.6272-2.0319 2.739-2.1542c0.8406-0.91895 7.8139-4.1756 9.3953-4.3877 0.8842-0.1186 1.7055-0.37398 1.8251-0.56752 0.285-0.4611 14.497-0.45781 15.71 4e-3 0.514 0.19554 1.9412 0.68665 3.1717 1.0914 2.3421 0.77029 5.6942 2.4864 8.4061 4.3034 2.1099 1.4136 7.8651 7.1291 7.8651 7.8108 0 0.29395 0.4576 0.96437 1.017 1.4898 0.5593 0.52545 1.0169 1.1178 1.0169 1.3163 0 0.19852 0.6133 1.6768 1.3628 3.285 1.5459 3.3168 2.1146 5.0198 2.5043 7.4982 0.1493 0.94968 0.4386 1.83 0.6429 1.9562 0.6379 0.39429 0.4454 8.8541-0.2388 10.492-0.3356 0.80319-0.6102 2.0046-0.6102 2.6697s-0.183 1.3225-0.4068 1.4608c-0.2237 0.13828-0.4067 0.78976-0.4067 1.4477s-0.1831 1.1963-0.4068 1.1963-0.4075 0.22881-0.4083 0.50848c0 0.97854-2.3313 5.1751-3.8023 6.8533-0.8164 0.93134-1.4843 1.8899-1.4843 2.1302 0 0.49345-5.2528 5.5588-5.7645 5.5588-0.1821 0-0.758 0.37127-1.2799 0.82504-1.3673 1.1888-7.2205 4.0563-8.2799 4.0563-0.4944 0-1.0055 0.17248-1.1358 0.38328s-1.0586 0.5065-2.0629 0.65711c-1.0043 0.1506-1.9261 0.43576-2.0484 0.63367-0.3775 0.61072-11.213 0.36191-12.378-0.28422zm13.5-8.5927c0.825-0.23589 2.3015-0.81683 3.281-1.291 0.9795-0.47416 1.9274-0.86211 2.1064-0.86211 0.7191 0 4.6413-3.1107 6.87-5.4486 2.6365-2.7657 5.5091-8.2069 6.3732-12.072 0.6878-3.0762 0.3583-10.532-0.5829-13.191-1.8347-5.1832-4.3378-8.9577-8.0354-12.117-2.3568-2.0135-7.2127-4.7647-8.4097-4.7647-0.3865 0-0.8846-0.18188-1.1069-0.40418-0.2223-0.22231-1.9164-0.60771-3.7647-0.85645-3.5921-0.48342-10.381 0.0276-11.196 0.84271-0.2299 0.22986-0.7193 0.41792-1.0876 0.41792-0.6577 0-3.2429 1.1328-3.6422 1.5959-0.1119 0.12975-0.7411 0.51019-1.3984 0.84543-1.6294 0.83108-7.3637 6.4941-7.7224 7.6265-0.1595 0.50339-0.4607 0.91525-0.6693 0.91525-0.2087 0-0.3794 0.24732-0.3794 0.54959s-0.4576 1.4103-1.0169 2.4622c-0.5594 1.0519-1.017 2.4155-1.017 3.0301 0 0.6146-0.2288 1.3462-0.5085 1.6258-0.7138 0.71365-0.7138 11.204 0 11.918 0.2797 0.27986 0.5085 0.98659 0.5085 1.5705 0 1.1185 2.4969 6.5686 3.615 7.8904 2.9539 3.4924 6.3887 6.3455 9.5086 7.8983 1.8771 0.93429 3.7651 1.7015 4.1955 1.7049 0.4304 3e-3 1.0572 0.18908 1.3928 0.41257 0.7739 0.51542 10.652 0.28216 12.686-0.29959z"/>
  <path d="m996.13 303.02c0-0.23693 0.1831-0.31765 0.4068-0.17938 0.5212 0.32215 0.5212 0.61017 0 0.61017-0.2237 0-0.4068-0.19385-0.4068-0.43079z"/>
  <path d="m887.82 316.64c-0.1315-0.13143-0.8484-0.39122-1.5933-0.57732-2.4491-0.61191-6.2101-2.14-7.6593-3.1119-0.7831-0.52518-2.143-1.4351-3.022-2.022-0.8791-0.58695-2.067-1.5018-2.6399-2.033s-1.26-0.96585-1.5269-0.96585-0.5913-0.33434-0.721-0.74297-1.0509-1.6442-2.047-2.7458c-0.9962-1.1015-2.1192-2.6435-2.4956-3.4265s-1.2249-2.522-1.8856-3.8644c-1.6008-3.2526-2.2621-5.7384-2.7544-10.353-0.4122-3.8645 0.028-11.168 0.7921-13.153 0.1908-0.49543 0.663-1.7245 1.0492-2.7313 1.2447-3.2446 2.7993-6.2791 3.7489-7.3179 0.5093-0.55704 0.9283-1.1977 0.9312-1.4237 0.01-0.53785 6.8145-7.1562 8.1303-7.9044 2.1404-1.217 6.7645-3.4157 7.9322-3.7716 4.9281-1.5018 7.5543-1.9553 11.324-1.9553 2.2416 0 4.6377 0.17707 5.3248 0.3935s2.3475 0.69711 3.6899 1.0682c5.8274 1.6108 11.291 5.2687 14.848 9.9407 5.0919 6.6889 8.6508 12.885 9.1433 15.919 0.5283 3.2541 0.6934 11.819 0.2367 12.275-0.237 0.23698-0.4309 1.0983-0.4309 1.9141 0 1.3244-0.4951 2.8093-1.6533 4.9587-0.2093 0.38849-0.3806 0.89987-0.3806 1.1364s-0.4576 0.92358-1.0169 1.5268c-0.5594 0.6032-1.017 1.2866-1.017 1.5187 0 0.23208-0.5034 0.98744-1.1186 1.6786-0.6153 0.69113-2.4 3.0199-3.9661 5.175s-3.0324 3.9186-3.2584 3.9188-0.8714 0.41225-1.4341 0.91564c-0.5628 0.50339-1.705 1.2644-2.5382 1.6912-0.8333 0.42676-1.5151 0.93015-1.5151 1.1186s-0.367 0.34272-0.8155 0.34272c-0.4486 0-1.7642 0.45763-2.9236 1.017-1.1595 0.55932-2.7037 1.017-3.4317 1.017-0.7279 0-1.4367 0.18305-1.575 0.40678-0.2672 0.43239-13.306 0.59176-13.73 0.16782zm15.32-9.0011c1.5726-0.56724 3.5478-1.466 4.3894-1.9973 0.8416-0.53128 1.7016-0.96597 1.9112-0.96597 0.2095 0 0.4419-0.13729 0.5165-0.30509 0.075-0.16779 1.0039-1.0028 2.0651-1.8555 2.2709-1.8248 5.1986-5.7888 6.5764-8.9044 3.4746-7.8566 2.9293-16.894-1.4601-24.202-1.9181-3.1932-4.0317-5.4862-6.9525-7.5426-2.6742-1.8827-6.8069-3.9703-7.86-3.9703-0.3441 0-0.9994-0.2-1.4562-0.44444-1.4287-0.76463-10.764-0.57253-13.353 0.2748-4.2743 1.3986-8.2357 3.8708-11.348 7.0824-1.8463 1.9049-4.9226 6.6666-4.9226 7.6195 0 0.41947-0.1726 0.93657-0.3835 1.1491-1.8936 1.9083-1.9307 15.238-0.052 18.807 0.2021 0.38397 0.6843 1.4303 1.0715 2.3252 3.0149 6.9679 11.073 12.993 18.802 14.058 3.8063 0.52452 9.2387 0.0324 12.457-1.1285z"/>
 </g>
 <g stroke-opacity="0">
  <path d="m1011.5 317.46c-0.1625-0.16254-1.535-0.44285-3.05-0.62292-5.2427-0.62312-7.2252-1.245-11.277-3.5373-0.9059-0.51253-1.9393-1.0299-2.2964-1.1497-0.3571-0.11982-1.5823-1.6467-2.7226-3.393-1.1408-1.747-2.9619-3.876-4.0487-4.7334-1.0863-0.857-2.3324-2.2403-2.7689-3.0739-0.4365-0.83366-1.4709-2.5883-2.2987-3.8993-0.8277-1.311-1.7132-3.2899-1.9676-4.3978-0.2544-1.1078-0.6297-2.5764-0.8339-3.2635-0.4867-1.6372-0.4789-10.446 0.011-12.331 0.2103-0.80901 0.6868-2.6486 1.0589-4.0879 0.3721-1.4393 1.0737-3.2698 1.5591-4.0678s1.1324-1.9437 1.4379-2.5461 1.2166-1.8076 2.0247-2.6784c0.8081-0.87076 2.5514-2.8194 3.874-4.3304 1.3227-1.511 3.4112-3.4906 4.6411-4.3992 2.7149-2.0056 7.2524-4.3759 8.3924-4.384 0.4581-3e-3 1.6511-0.29078 2.6511-0.63894 2.5518-0.88849 12.324-0.88102 14.459 0.011 0.8344 0.3486 1.9547 0.63382 2.4898 0.63382 0.535 0 1.2906 0.17047 1.6791 0.37882s1.8962 0.9571 3.3504 1.6639c3.684 1.7905 4.3742 2.1957 5.4313 3.1888 0.5094 0.47858 1.1076 0.87014 1.3292 0.87014 0.643 0 4.4454 4.198 6.436 7.1056 1.9848 2.8991 4.2951 7.5818 4.2951 8.7059 0 0.3871 0.1643 0.87772 0.3651 1.0903 0.6333 0.67036 0.9524 3.8597 0.9746 9.7424 0.022 5.7679-0.3441 9.3988-0.9869 9.7961-0.1941 0.11993-0.3528 0.56058-0.3528 0.97923 0 1.2795-3.3717 7.9087-4.6961 9.2331-0.3256 0.32566-0.5921 0.77031-0.5921 0.98812 0 0.50159-5.0485 5.6476-5.5406 5.6476-0.2013 0-0.8595 0.45763-1.4627 1.017-0.6032 0.55933-1.2747 1.017-1.4922 1.017-0.2176 0-0.6605 0.26496-0.9843 0.5888-0.9027 0.90264-3.4754 2.2587-4.2853 2.2587-0.3979 0-1.0788 0.26876-1.5131 0.59723-0.4343 0.32848-1.2564 0.60306-1.8269 0.61017-0.5705 7e-3 -1.2112 0.17807-1.4237 0.37989-0.2125 0.20183-1.7593 0.47229-3.4373 0.60104-1.678 0.12874-3.7834 0.34461-4.6787 0.47971-0.8954 0.1351-1.7609 0.11264-1.9235-0.0499zm6.9015-8.3703c3.1351-0.75069 7.0768-2.4322 9.26-3.9505 2.2497-1.5644 6.3051-5.3334 6.3051-5.8598 0-0.1848 0.3391-0.69999 0.7536-1.1449 0.969-1.0401 2.7943-4.77 3.6423-7.4431 0.8503-2.6804 0.9353-11.439 0.1367-14.087-1.898-6.2917-4.7486-10.417-10.24-14.817-1.4239-1.141-6.0044-3.3616-8.1234-3.9381-1.0068-0.2739-3.8792-0.57014-6.3832-0.65831-3.7295-0.13132-5.0536-0.0106-7.3221 0.66776-3.0958 0.9257-6.7771 2.7312-8.4988 4.1682-2.2123 1.8465-5.6871 5.556-6.2794 6.7035-0.33 0.63923-0.7105 1.2538-0.8455 1.3656-0.2269 0.18791-1.23 2.3416-1.9893 4.2712-1.6602 4.2188-2.0891 10.424-0.9938 14.378 1.1467 4.1399 2.6006 7.7914 3.1023 7.7914 0.1806 0 0.3285 0.19526 0.3285 0.43392 0 1.0593 4.1832 5.754 6.9152 7.7608 2.1994 1.6155 5.3942 3.1186 8.4268 3.9645 3.1982 0.89217 8.9251 1.0831 11.805 0.39364z"/>
  <path d="m947.32 257.49c-0.3356-0.21688-1.0617-0.39713-1.6135-0.40055-0.942-6e-3 -9.3347-3.8646-9.7764-4.4949-0.1118-0.15965-0.7993-0.65057-1.5276-1.0909-1.6198-0.97937-4.4903-3.6446-5.591-5.1912-0.4475-0.62874-1.2881-1.7117-1.8682-2.4065-1.5763-1.8884-4.3769-8.0425-5.2668-11.574-0.8797-3.4904-1.1126-12.783-0.3904-15.575 0.2237-0.86494 0.6075-2.3506 0.8528-3.3014 0.7681-2.977 3.7274-8.5258 6.1287-11.492 2.2809-2.8171 5.7685-6.3051 6.3044-6.3051 0.1524 0 0.5661-0.25986 0.9193-0.57747 0.9993-0.89857 5.7381-3.4903 6.3817-3.4903 0.3172 0 0.8945-0.16984 1.283-0.37742 2.3052-1.2317 5.1582-1.6565 11.127-1.6565 5.9977 0 7.8218 0.26045 10.257 1.4644 0.6333 0.31321 1.5065 0.56947 1.9402 0.56947 0.4338 0 1.5137 0.45763 2.3997 1.017s1.8891 1.017 2.2292 1.017c0.34 0 0.6182 0.17072 0.6182 0.37937s0.3379 0.4866 0.7509 0.61767c1.8159 0.57635 9.7832 8.5207 9.8151 9.7868 0.01 0.22601 0.4679 0.90447 1.0273 1.5077 0.5593 0.6032 1.0169 1.3427 1.0169 1.6433s0.159 0.72047 0.3533 0.93301 0.6713 1.3017 1.06 2.4203c0.3886 1.1186 0.8579 2.4 1.0427 2.8474 0.7282 1.763 0.9248 3.9124 0.9118 9.9661-0.014 6.432-0.3205 9.5912-0.9701 9.9926-0.2001 0.12367-0.3638 0.58105-0.3638 1.0164s-0.4576 1.7402-1.0169 2.8996c-0.5594 1.1594-1.017 2.3164-1.017 2.5712 0 0.25472-0.4576 0.89304-1.0169 1.4185-0.5594 0.52546-1.017 1.2228-1.017 1.5496 0 0.75656-6.2499 7.1477-8.1356 8.3195-0.783 0.48657-1.7862 1.2179-2.2292 1.6252s-1.221 0.84484-1.7288 0.9723-0.9233 0.39495-0.9233 0.59443c0 0.19947-0.3553 0.36268-0.7896 0.36268s-0.8899 0.1623-1.0125 0.36067c-0.1226 0.19836-0.8656 0.48123-1.6511 0.6286-0.7855 0.14736-1.4282 0.44269-1.4282 0.65628s-0.8129 0.38835-1.8065 0.38835-1.9196 0.18305-2.0579 0.40678c-0.327 0.52915-12.402 0.52915-13.22 0zm14.644-8.9551c4.9801-1.6607 7.2095-3.0944 11.39-7.3246 9.0847-9.193 9.2547-25.017 0.3729-34.71-2.6751-2.9194-6.0126-5.5528-7.0376-5.5528-0.3616 0-0.6581-0.13729-0.6589-0.30509 0-0.32455-2.2742-1.2642-5.2866-2.1858-2.7204-0.83226-11.42-0.70046-14.034 0.21262-4.5904 1.6035-8.3202 3.9357-11.216 7.0133-1.9297 2.0508-5.2586 7.2164-5.2586 8.16 0 0.29682-0.1771 0.85753-0.3936 1.246-0.7915 1.4202-1.6403 5.9298-1.6403 8.7144 0 2.6327 0.7515 6.7058 1.5997 8.6699 1.4668 3.397 1.918 4.2814 3.009 5.8983 3.6513 5.4113 9.9272 9.5356 16.743 11.003 2.7657 0.59551 9.4666 0.14213 12.411-0.83971z"/>
  <rect x="232.21" y="235.39" width="13.424" height="9.9661"/>
 </g>
</svg>
