<svg width="555.26" height="798.59" clip-rule="evenodd" fill-rule="evenodd" stroke-linecap="round" stroke-linejoin="round" version="1.1" viewBox="0 0 555.26 798.59" xmlns="http://www.w3.org/2000/svg" xmlns:xlink="http://www.w3.org/1999/xlink">
 <g transform="translate(-487.38 -332.68)" stroke-opacity="0">
  <path d="m576.85 1124.2c-15.969-3.4695-36.696-13.698-50.034-24.692-11.525-9.5001-25.061-30.713-30.93-48.472-4.5057-13.634-4.7098-19.571-4.7599-138.5-0.0667-158.08 3.7756-236.17 15.114-307.2 4.344-27.21 9.5488-59.828 11.566-72.484 5.8222-36.523 11.932-64.07 16.638-75.016 4.4574-10.367 17.123-27.116 38.967-51.528 6.7868-7.5846 15.537-19.379 19.445-26.21 15.315-26.767 26.004-34.392 57.032-40.679 35.707-7.2352 51.27-2.7519 95.248 27.44 15.318 10.516 30.44 20.584 33.604 22.373 4.6915 2.6526 29.101 3.4648 132.31 4.4032l126.56 1.1505 0.5992 101.75 0.5991 101.75-7.5024 3.8617c-4.1264 2.124-14.751 8.7383-23.61 14.699-8.8592 5.9603-20.632 13.14-26.161 15.955-5.5294 2.8152-9.1536 5.9116-8.0538 6.8807 1.0998 0.96918 10.801 5.1966 21.559 9.3942 16.55 6.458 40.865 17.443 43.262 19.545 0.3803 0.33352 0.636 35.675 0.5683 78.536-0.1461 92.409 1.8259 86.311-27.27 84.317l-17.982-1.2325-11.287 11.922c-13.786 14.561-34.444 24.96-53.549 26.957-16.276 1.7012-39.969-4.5372-54.175-14.265-7.1948-4.9266-10.389-5.7628-17.258-4.5184-14.164 2.5658-39.813 16.173-56.194 29.813-27.179 22.63-33.806 32.98-86.655 135.34-48.552 94.034-66.644 112.57-109.34 112.01-7.6803-0.1005-20.423-1.5861-28.317-3.3012zm75.332-102.85c16.872-13.189 43.435-47.711 57.173-74.303 28.11-54.41 85.167-107.59 127.52-118.86 6.0281-1.6038 10.491-3.992 9.917-5.3071-10.269-23.536-10.532-51.732-0.68405-73.243 7.2458-15.827 24.043-33.128 39.635-40.825 10.022-4.9472 14.62-5.6793 35.667-5.6793 20.886 0 25.671 0.74949 35.298 5.5279 14.877 7.3845 31.833 24.282 39.688 39.549 5.5565 10.801 6.4247 15.194 6.554 33.16 0.082 11.39-0.6472 23.557-1.6205 27.038l-1.7697 6.328h25.4v-137.95l-6.328-3.2439c-3.4804-1.7841-17.201-7.4844-30.489-12.667-30.235-11.792-34.998-14.995-34.072-22.912 0.57346-4.905 4.2178-8.0076 19.334-16.46 10.245-5.7289 25.994-15.076 34.998-20.771l16.37-10.355 0.188-97.796h-41.109c-38.307 0-41.529-0.3302-47.266-4.843-34.412-27.068-65.398-45.665-96.075-57.659-32.07-12.539-52.714-17.424-86.576-20.485-73.689-6.6613-144.98 12.514-178.08 47.898-16.328 17.455-31.131 41.526-35.066 57.018-16.785 66.08-23.764 112.97-28.251 189.77-5.8634 100.37-4.921 116.31 9.9141 167.63 16.722 57.849 58.215 134.54 80.794 149.34 12.571 8.2367 38.462 8.2917 48.936 0.104z"/>
  <path d="m948.38 588.61c-12.074-2.7461-18.441-5.9427-23.417-11.756-8.3602-9.7671-4.4685-22.633 8.9049-29.44 7.6204-3.8787 13.61-5.101 24.996-5.101 15.725 0 24.533 2.8723 32.136 10.48 2.8642 2.8661 4.5079 5.3952 5.5553 8.5474 1.4714 4.4285 1.4684 4.528-0.28058 9.2026-2.9877 7.9852-9.5304 13.139-20.914 16.475-8.9241 2.6151-19.69 3.2505-26.98 1.5922z"/>
  <path d="m700.48 585.12c-2.4282-1.6214-2.7659-4.5229-2.7659-23.768v-19.616l1.9969-1.9969c1.987-1.987 2.0774-1.9969 18.267-1.9969 17.129 0 19.915 0.47776 20.741 3.5568 0.25554 0.95223 0.46962 10.54 0.47573 21.307 0.0105 18.584-0.0729 19.666-1.6477 21.356-1.6065 1.7244-2.2029 1.7801-18.915 1.7681-9.491-7e-3 -17.659-0.28143-18.152-0.61017zm29.777-9.4988c0-0.85869-1.5613-1.2194-2.0257-0.46807-0.28105 0.45476 0.0598 0.82683 0.75734 0.82683 0.6976 0 1.2684-0.16144 1.2684-0.35876z"/>
  <path d="m756.18 629.85c-9.102-0.34581-8.8969 0.0693-9.4332-19.092-0.46328-16.552 0.12367-21.091 2.8631-22.142 0.75902-0.29126 10.351-0.51135 21.317-0.48908l19.937 0.0405 1.8305 2.0896c1.7628 2.0124 1.8305 2.6698 1.8305 17.787 0 16.682-0.61106 20.379-3.5256 21.331-1.8153 0.5932-23.809 0.89324-34.818 0.47499z"/>
  <path d="m650.49 629.67c-1.5875-0.22373-3.9671-1.264-5.2881-2.3116l-2.4018-1.9048v-16.926c0-15.503 0.13028-17.07 1.5498-18.638 1.4992-1.6559 2.2366-1.7119 22.555-1.7119h21.006l1.2412 2.4003c0.98812 1.9108 1.2412 5.6357 1.2412 18.267 0 16.701-0.49342 19.531-3.5811 20.535-1.9933 0.64808-32.077 0.88813-36.322 0.28983zm30.141-10.576c0-0.44746-0.3445-0.81356-0.76555-0.81356s-0.99181 0.3661-1.2684 0.81356 0.0679 0.81356 0.76555 0.81356c0.69759 0 1.2684-0.3661 1.2684-0.81356z"/>
  <path d="m700.97 680.03c-4.6934-1.8416-4.8436-2.5941-4.8633-24.381-0.018-19.858-5e-3 -20.006 1.8648-21.763 1.8136-1.7038 2.5317-1.7689 19.507-1.7689h17.624l1.4425 2.2137c1.2872 1.9755 1.4282 4.2598 1.3098 21.222-0.073 10.455-0.33617 19.819-0.58482 20.81-0.92155 3.6718-4.9613 4.5722-20.259 4.5159-7.7035-0.0284-14.922-0.4107-16.04-0.84963z"/>
  <path d="m699.03 678.25c-1.7477-1.7477-1.9014-2.7456-2.4303-15.774-0.69749-17.182-0.0438-26.541 1.9817-28.374 1.2009-1.0868 4.4312-1.3899 18.854-1.7689l17.405-0.45742 1.37 2.887c1.1384 2.3991 1.3688 5.547 1.3629 18.628-4e-3 8.6578-0.24292 17.706-0.53117 20.106-0.74927 6.2398-1.9522 6.6184-21.032 6.6184-14.674 0-15.168-0.0544-16.98-1.8657z"/>
  <path d="m679.07 619.88c-0.36542-0.0819-0.54612-0.23954-0.54644-0.4768-2.1e-4 -0.15391 0.059-0.28121 0.2274-0.48883 0.10922-0.13469 0.16445-0.17568 0.39368-0.29222 0.15295-0.0778 0.27944-0.1595 0.29667-0.19171 0.0165-0.0309 0.037-0.0548 0.0455-0.0532 8e-3 2e-3 0.0497-0.0122 0.0917-0.0305 0.12765-0.0559 0.43814-0.0466 0.57761 0.0174 0.38223 0.17539 0.56935 0.67951 0.37683 1.0152-0.18011 0.31401-0.6503 0.5213-1.1683 0.51504-0.13409-2e-3 -0.26669-8e-3 -0.29466-0.0144z"/>
  <path d="m678.93 619.83c-0.0618-0.0216-0.15588-0.0668-0.20902-0.10034-0.36558-0.23079-0.15861-0.7838 0.40747-1.0887 0.12754-0.0687 0.26829-0.15741 0.31278-0.19713 0.13992-0.12492 0.39821-0.159 0.64639-0.0853 0.38328 0.11382 0.61652 0.63171 0.44453 0.98701-0.10307 0.21291-0.37783 0.39727-0.72603 0.48716-0.20424 0.0527-0.7224 0.0512-0.87612-3e-3z"/>
  <path d="m679.08 618.61c0-0.0156 0.28684-0.19264 0.31215-0.19264 0.0453 0-0.0162 0.055-0.14236 0.12741-0.12552 0.072-0.16979 0.089-0.16979 0.0652z"/>
  <path d="m660.51 630c-5.8468-0.0493-9.3208-0.18114-10.373-0.39376-1.2018-0.24287-2.7668-0.87357-3.9915-1.6086l-0.35593-0.21362-6e-3 -11.876-6e-3 -11.876h44.599l-0.013 5.8665c-0.0122 5.4788-0.0239 6.5688-0.094 8.7013-0.1909 5.8146-0.67809 8.4506-1.8009 9.7438-0.50726 0.58423-1.2759 0.9964-2.0762 1.1132-1.5603 0.22784-6.7622 0.41186-14.352 0.50772-1.9828 0.025-9.8734 0.0491-11.53 0.0351zm19.245-10.116c0.21784-0.0461 0.49925-0.17872 0.64044-0.30172 0.14224-0.12392 0.23741-0.31893 0.23741-0.4865 0-0.44491-0.3397-0.80633-0.76029-0.80889-0.23357-1e-3 -0.64173 0.13624-0.55909 0.18856 0.0252 0.0159 0.0133 0.0227-0.0408 0.0231-0.16497 1e-3 -0.56919 0.3796-0.71662 0.67055-0.0843 0.16641-0.0745 0.35134 0.0255 0.48256 0.076 0.0996 0.27981 0.20949 0.4507 0.24299 0.18015 0.0353 0.53003 0.0302 0.72269-0.0107z"/>
  <path d="m660.51 629.99c-4.9995-0.0304-9.009-0.16956-10.157-0.35252-1.1642-0.18558-2.9101-0.86931-4.2076-1.6478l-0.35593-0.21356-6e-3 -11.876-6e-3 -11.876h44.593l-2.8e-4 4.7479c-3.6e-4 5.7701-0.0338 8.3554-0.14045 10.85-0.20212 4.7273-0.62432 7.0648-1.5171 8.3993-0.18063 0.26999-0.61847 0.70187-0.89116 0.87902-0.40352 0.26215-0.89674 0.46152-1.3157 0.53185-2.1748 0.36507-14.436 0.62824-25.995 0.55796zm19.181-10.103c0.17137-0.0278 0.5352-0.16553 0.5352-0.2026 0-0.0118-0.0715 0.0108-0.1589 0.0501-0.22155 0.0998-0.38267 0.1286-0.7201 0.1286-0.31257 0-0.49145-0.0422-0.64627-0.15243-0.16363-0.11651-0.20786-0.35162-0.10434-0.55454 0.0299-0.0586 0.0441-0.10659 0.0316-0.10659-0.0376 0-0.13076 0.24411-0.13076 0.34259 0 0.23764 0.21066 0.42948 0.54424 0.49562 0.15197 0.0301 0.46114 0.0298 0.64937-7.9e-4zm0.70258-0.31369c0.0548-0.0476 0.0938-0.0922 0.0869-0.0991-7e-3 -7e-3 -0.0642 0.0319-0.12712 0.0864-0.0629 0.0545-0.10201 0.0991-0.0869 0.0991 0.0151 3e-5 0.0723-0.0388 0.12712-0.0864zm0.20539-0.42839c-7e-3 -0.0175-0.0128-3e-3 -0.0128 0.0318 0 0.035 6e-3 0.0493 0.0128 0.0318 7e-3 -0.0175 7e-3 -0.0461 0-0.0636zm-1.8593-0.21745c-0.0171-0.0171-0.0897 0.0463-0.0897 0.0783 0 0.0144 0.0229 5e-3 0.051-0.0199 0.0281-0.0254 0.0455-0.0517 0.0388-0.0584zm1.8598 0.0157c-8e-3 -0.0203-0.0141-0.0143-0.0154 0.0154-1e-3 0.0268 5e-3 0.0418 0.0133 0.0334 8e-3 -8e-3 9e-3 -0.0304 2e-3 -0.0487zm-1.4536-0.32106c0.20447-0.11436 0.39084-0.26068 0.32842-0.25785-0.044 2e-3 -0.20166 0.0985-0.16333 0.1 0.0322 1e-3 0.0326 5e-3 2e-3 0.0241-0.0197 0.0125-0.0508 0.0169-0.069 0.01-0.0529-0.0203-0.46719 0.29415-0.46719 0.35466 0 0.0155 0.0315-1e-3 0.0699-0.0373 0.0385-0.036 0.17296-0.12313 0.2989-0.19357zm1.3632 0.0648c-0.0251-0.0249-0.028-0.022-0.0142 0.0142 0.01 0.0251 0.0238 0.0392 0.0316 0.0314 8e-3 -8e-3 1e-5 -0.0283-0.0174-0.0456zm-0.0794-0.14487c0-0.0135-0.0257-0.038-0.0572-0.0545-0.0569-0.0299-0.057-0.0297-9e-3 0.0245 0.0538 0.0606 0.066 0.0661 0.066 0.03zm-0.7696-0.21964c-8e-3 -8e-3 -0.0304-9e-3 -0.0487-2e-3 -0.0203 8e-3 -0.0142 0.0141 0.0154 0.0154 0.0268 1e-3 0.0418-5e-3 0.0334-0.0133zm0.2357-0.0339c0-0.0132-0.0425-0.0173-0.0953-9e-3 -0.13201 0.0204-0.13605 0.0329-0.0106 0.0329 0.0583 0 0.10593-0.0107 0.10593-0.0238z"/>
  <path d="m660.24 629.99c-1.2455-8e-3 -4.2019-0.0555-5.2373-0.0848-2.5666-0.0726-3.9615-0.15334-4.6652-0.26998-1.1931-0.19774-2.8814-0.85938-4.1949-1.644l-0.35593-0.21261-0.012-23.754h44.593l-2.6e-4 4.7733c-2.5e-4 5.6028-0.0313 8.1745-0.1279 10.57-0.18414 4.5674-0.58053 7.0232-1.3505 8.3665-0.36641 0.63927-0.88365 1.12-1.5285 1.4207-0.51689 0.24103-0.92047 0.32045-2.065 0.40641-4.0681 0.30553-14.909 0.49108-25.055 0.42882zm19.665-10.163c0.19941-0.0646 0.35851-0.13854 0.3019-0.14032-0.0157-5e-4 -0.0901 0.0262-0.16526 0.0593-0.20178 0.089-0.3722 0.11772-0.69784 0.11772-0.31257 0-0.49145-0.0422-0.64627-0.15243-0.16363-0.11651-0.20786-0.35162-0.10434-0.55454 0.0299-0.0586 0.0448-0.10659 0.0331-0.10659-0.0316 0-0.1042 0.16471-0.12222 0.27741-0.0414 0.25897 0.15608 0.46771 0.52378 0.5536 0.21882 0.0511 0.63054 0.0257 0.87711-0.0542zm0.48306-0.25364c0.0559-0.0474 0.096-0.0919 0.089-0.0988-7e-3 -7e-3 -0.0628 0.0321-0.12403 0.0866-0.13645 0.12154-0.10628 0.13201 0.0351 0.0122zm0.20804-0.40083c-8e-3 -0.0203-0.0141-0.0142-0.0154 0.0154-1e-3 0.0268 5e-3 0.0418 0.0133 0.0334 8e-3 -8e-3 9e-3 -0.0304 2e-3 -0.0487zm-1.8791-0.23833c-9e-3 -9e-3 -0.0292 0.0112-0.046 0.0439-0.0291 0.0568-0.0284 0.0575 0.0155 0.0155 0.0253-0.0241 0.039-0.0508 0.0305-0.0594zm1.8791 0.01c-8e-3 -0.0203-0.0141-0.0143-0.0154 0.0154-1e-3 0.0268 5e-3 0.0418 0.0133 0.0334 8e-3 -8e-3 9e-3 -0.0304 2e-3 -0.0487zm-1.4411-0.33202c0.21222-0.12356 0.373-0.24796 0.32048-0.24796-0.0459 0-0.16792 0.0812-0.15455 0.10278 0.0137 0.0222-0.0213 0.0354-0.0716 0.027-0.058-0.01-0.43319 0.27215-0.46187 0.3469-0.012 0.0312 4e-3 0.0246 0.0545-0.0218 0.0393-0.0364 0.18023-0.12954 0.31306-0.20689zm1.2712-0.0691c0-0.0135-0.0257-0.038-0.0572-0.0545-0.0569-0.0299-0.057-0.0297-9e-3 0.0245 0.0538 0.0606 0.066 0.0661 0.066 0.03zm-0.57839-0.24765c-0.0315-6e-3 -0.0829-6e-3 -0.11441 0-0.0315 6e-3 -6e-3 0.011 0.0572 0.011 0.0629 0 0.0887-5e-3 0.0572-0.011z"/>
  <path d="m660.04 629.99c-4.7561-0.0346-8.6465-0.17641-9.7119-0.35389-0.57341-0.0955-1.3584-0.32973-2.1356-0.63712-0.52201-0.20647-1.5742-0.72313-2.0466-1.005l-0.35593-0.21233-0.012-23.757h44.599l-0.0133 5.9301c-0.0143 6.3718-0.0367 7.8255-0.15868 10.29-0.20493 4.1427-0.60462 6.337-1.3881 7.6212-0.48881 0.80114-1.3881 1.413-2.3038 1.5674-2.1929 0.36979-15.041 0.64003-26.472 0.55676zm19.589-10.102c0.1843-0.0257 0.53563-0.13921 0.56175-0.18149 8e-3 -0.0133-0.029-5e-3 -0.0828 0.0192-0.21626 0.096-0.42352 0.13427-0.73555 0.13576-0.33743 2e-3 -0.48651-0.0298-0.64775-0.13651-0.0542-0.0359-0.11797-0.10243-0.14176-0.14794-0.0536-0.1025-0.0524-0.28013 3e-3 -0.40919 0.0229-0.0537 0.0301-0.0905 0.016-0.0818-0.05 0.0309-0.11176 0.28273-0.0934 0.3807 0.0601 0.32044 0.54271 0.5018 1.1207 0.42118zm0.83931-0.40181c-8e-3 -8e-3 -0.0573 0.0295-0.10922 0.0835l-0.0945 0.0982 0.10922-0.0835c0.0601-0.0459 0.10259-0.0901 0.0945-0.0982zm-1.7477-0.55275c-9e-3 -9e-3 -0.0292 0.0112-0.046 0.0439-0.0291 0.0568-0.0284 0.0575 0.0155 0.0155 0.0253-0.0241 0.039-0.0508 0.0305-0.0594zm0.2479-0.23515c-0.0145-0.0145-0.13614 0.0791-0.15147 0.11661-7e-3 0.0178 0.026 1e-3 0.074-0.0372 0.048-0.0383 0.0828-0.074 0.0775-0.0794zm0.21101-0.0985c0.23547-0.13509 0.41432-0.30545 0.20945-0.1995-0.0437 0.0226-0.0727 0.052-0.0644 0.0654 0.0139 0.0225-0.0221 0.0356-0.073 0.0266-0.0292-5e-3 -0.24537 0.13282-0.24542 0.15669 0 0.0349 0.0532 0.0198 0.17339-0.0492zm1.2503-0.058c0-0.0135-0.0257-0.038-0.0572-0.0545-0.0569-0.0299-0.057-0.0297-9e-3 0.0245 0.0538 0.0606 0.066 0.0661 0.066 0.03zm-0.5911-0.24723c-0.0245-6e-3 -0.0645-6e-3 -0.089 0s-4e-3 0.0116 0.0445 0.0116c0.0489 0 0.069-5e-3 0.0445-0.0116z"/>
  <path d="m659.77 630c-5.1204-0.0565-8.3777-0.17927-9.4449-0.35609-0.57807-0.0958-1.3973-0.34085-2.1737-0.65029-0.49045-0.19545-1.6086-0.74827-2.0339-1.0056l-0.33051-0.19996-0.012-23.756h44.599l-0.0136 5.9809c-0.0146 6.4299-0.0357 7.7995-0.15836 10.265-0.18743 3.7667-0.53404 5.8843-1.1798 7.2076-0.20738 0.42501-0.40604 0.71012-0.70419 1.0106-0.47135 0.47506-1.1579 0.8339-1.8097 0.94584-1.3295 0.22834-6.2898 0.41289-14.064 0.52325-1.7154 0.0244-11.243 0.0503-12.674 0.0346zm20.027-10.142 0.10842-0.0353-0.10169 0.0177c-0.0559 0.01-0.26759 0.0177-0.47034 0.0177-0.33379-5e-5 -0.38132-6e-3 -0.50271-0.0606-0.15855-0.0716-0.24812-0.16947-0.2869-0.31348-0.0235-0.0873-0.0202-0.12943 0.0199-0.25156 0.0265-0.0807 0.039-0.1411 0.0279-0.13423-0.0418 0.0258-0.10185 0.29462-0.0854 0.3822 0.0355 0.18912 0.2744 0.3605 0.57764 0.41433 0.17041 0.0303 0.57061 0.01 0.71323-0.0368zm0.27368-0.0888c0.021-0.0136 0.0267-0.0246 0.0127-0.0246s-0.0426 0.0111-0.0636 0.0246c-0.021 0.0136-0.0267 0.0246-0.0127 0.0246s0.0426-0.0111 0.0636-0.0246zm0.11422-0.0506c9e-3 -0.0144-1e-3 -0.0187-0.0239-0.01-0.044 0.0169-0.0521 0.0351-0.0155 0.0351 0.0132 0 0.0309-0.0113 0.0395-0.0251zm0.26713-0.21322c0-0.014-0.0343 7e-3 -0.0763 0.0477-0.0419 0.0402-0.0763 0.077-0.0763 0.0818 0 5e-3 0.0343-0.0167 0.0763-0.0477s0.0763-0.0678 0.0763-0.0818zm-1.4884-0.80087c-7e-3 -7e-3 -0.0443 0.0192-0.0823 0.0587l-0.0691 0.0719 0.0823-0.0587c0.0453-0.0323 0.0764-0.0647 0.0691-0.0719zm0.28163-0.1427c0.23075-0.14382 0.31966-0.23745 0.15365-0.16182-0.0352 0.016-0.0583 0.0383-0.0513 0.0496 0.0151 0.0245-0.0774 0.0784-0.0985 0.0573-0.0174-0.0174-0.1758 0.0767-0.22104 0.13122-0.0601 0.0724 0.0286 0.0413 0.21724-0.0763zm1.1813-0.0103c0-0.0125-0.0188-0.0299-0.0417-0.0387-0.0349-0.0134-0.0365-0.01-0.01 0.0227 0.0366 0.0441 0.0513 0.0487 0.0513 0.016zm-0.60381-0.24837c-0.0175-7e-3 -0.0461-7e-3 -0.0636 0s-3e-3 0.0128 0.0318 0.0128c0.035 0 0.0493-6e-3 0.0318-0.0128z"/>
  <path d="m659.59 630c-4.2071-0.0523-7.173-0.14477-8.5297-0.26604-0.97907-0.0875-1.7822-0.29215-2.911-0.74175-0.52925-0.21078-1.6159-0.74768-2.0593-1.0175l-0.30508-0.18563-0.012-23.757h44.593l-2.6e-4 4.8114c-3.3e-4 6.0264-0.0316 8.4564-0.14048 10.926-0.0347 0.78665-0.0957 1.8608-0.12638 2.2246-0.16556 1.9641-0.31314 3.0197-0.56165 4.017-0.20737 0.83219-0.52428 1.5968-0.85224 2.0562-0.46547 0.65207-1.2204 1.1592-1.991 1.3376-1.0768 0.24924-5.9501 0.44248-14.137 0.56057-1.6644 0.024-11.668 0.0506-12.966 0.0345zm20.143-10.125c0.046-9e-3 -0.097-0.0162-0.3178-0.0162-0.22078 0-0.43574-9e-3 -0.47769-0.0194-0.06-0.0153-0.0666-0.0136-0.0312 8e-3 0.10491 0.0637 0.56095 0.0789 0.82665 0.0276zm-0.88659-0.0635c-6e-3 -5e-3 -0.0392-0.0229-0.0742-0.0395-0.0599-0.0285-0.0607-0.028-0.0142 9e-3 0.0405 0.0324 0.12325 0.0608 0.0884 0.0303zm1.2225-0.0416c0.021-0.0136 0.0267-0.0246 0.0127-0.0246s-0.0426 0.0111-0.0636 0.0246c-0.021 0.0136-0.0267 0.0246-0.0127 0.0246s0.0426-0.0111 0.0636-0.0246zm-1.4229-0.0881c-0.0324-0.0345-0.0807-0.12314-0.10737-0.19704-0.0452-0.12538-0.0474-0.12756-0.0323-0.0326 9e-3 0.0559 0.029 0.11886 0.0445 0.13983 0.0519 0.0699 0.1284 0.15254 0.14127 0.15254 7e-3 0-0.0138-0.0282-0.0462-0.0627zm1.728-0.10257c0.0328-0.035 0.054-0.0636 0.047-0.0636s-0.0396 0.0286-0.0724 0.0636-0.054 0.0636-0.047 0.0636 0.0396-0.0286 0.0724-0.0636zm-1.7905-0.46427c-0.013-0.013-0.0657 0.14796-0.0637 0.19476 9.4e-4 0.0224 0.0176-0.0103 0.037-0.0727s0.0314-0.11729 0.0267-0.12206zm0.3668-0.39354c0-0.0307-0.0141-0.0231-0.066 0.0351-0.0483 0.0542-0.0482 0.0543 9e-3 0.0193 0.0315-0.0193 0.0572-0.0438 0.0572-0.0544zm0.22526-0.12124c0.17011-0.0908 0.30229-0.19217 0.27992-0.21477-9e-3 -9e-3 -0.0594 0.0247-0.11234 0.0747-0.053 0.05-0.1087 0.0864-0.12382 0.0809-0.0351-0.0127-0.14838 0.0441-0.19135 0.0958-0.0481 0.0579-0.0137 0.0494 0.14759-0.0367zm1.2493-0.0348c0-5e-3 -0.02-0.0253-0.0445-0.0445-0.0403-0.0316-0.0412-0.0307-0.01 0.01 0.0332 0.0424 0.0541 0.0558 0.0541 0.0349z"/>
  <path d="m659.4 629.99c-4.4319-0.0414-8.0934-0.18385-9.089-0.35359-0.68131-0.11615-1.6667-0.42881-2.517-0.79863-0.43578-0.18955-1.3457-0.6547-1.7034-0.87075l-0.30508-0.1843-6e-3 -11.879-6e-3 -11.879h44.593l-3.3e-4 4.875c-4.6e-4 6.9156-0.0414 9.3362-0.20482 12.121-0.26379 4.4935-0.81754 6.5984-2.0067 7.6279-0.4033 0.34914-0.95334 0.63137-1.4605 0.74939-0.98976 0.23032-5.2239 0.41374-12.332 0.53419-3.5151 0.0596-11.506 0.0908-14.962 0.0585zm20.117-10.12c-0.0874-5e-3 -0.2304-5e-3 -0.31779 0-0.0874 5e-3 -0.0159 9e-3 0.15889 9e-3s0.2463-4e-3 0.1589-9e-3zm-0.49629-0.022c-8e-3 -8e-3 -0.0304-9e-3 -0.0487-2e-3 -0.0203 8e-3 -0.0143 0.0141 0.0154 0.0154 0.0268 1e-3 0.0418-5e-3 0.0334-0.0134zm-0.17108-0.0455c0-5e-3 -0.0178-0.0168-0.0395-0.0251-0.0226-9e-3 -0.0328-4e-3 -0.0239 0.01 0.0149 0.0242 0.0634 0.0357 0.0634 0.0151zm1.2203-0.0408c0.021-0.0136 0.0267-0.0246 0.0127-0.0246s-0.0426 0.0111-0.0636 0.0246c-0.021 0.0136-0.0267 0.0246-0.0127 0.0246s0.0426-0.0111 0.0636-0.0246zm-1.4179-0.0828c-0.0297-0.0316-0.0712-0.0974-0.0924-0.14619-0.0212-0.0488-0.039-0.0737-0.0395-0.0553-2e-3 0.062 0.1298 0.25892 0.17312 0.25892 7e-3 0-0.0116-0.0258-0.0412-0.0574zm1.7263-0.11423c0.0316-0.0403 0.0307-0.0412-0.01-0.01-0.0245 0.0192-0.0445 0.0392-0.0445 0.0445 0 0.0209 0.0209 7e-3 0.0541-0.0349zm-1.8105-0.375c7.6e-4 -0.014-0.01-8e-3 -0.0233 0.0127-0.0136 0.021-0.024 0.0553-0.0232 0.0763 1e-3 0.0403 0.0439-0.0408 0.0465-0.089zm0.3454-0.44491c0.0253-0.028 0.0403-0.0509 0.0333-0.0509s-0.0334 0.0229-0.0587 0.0509-0.0403 0.0508-0.0333 0.0508 0.0334-0.0229 0.0587-0.0508zm0.21801-0.1281c0.0559-0.0285 0.0948-0.0628 0.0865-0.0762-0.0176-0.0284-0.13906 0.0283-0.18874 0.0882-0.044 0.053-0.0197 0.0502 0.10221-0.012zm0.27775-0.1757c0.035-0.0281 0.0513-0.0513 0.0364-0.0516-0.015-3.1e-4 -0.0664 0.0352-0.11441 0.0789-0.0903 0.0823-0.0339 0.0625 0.078-0.0273z"/>
  <path d="m658.41 629.99c-4.3593-0.0654-7.1492-0.18404-8.0975-0.34445-0.67795-0.11468-1.6047-0.40716-2.4661-0.77829-0.4688-0.20198-1.4283-0.69024-1.7797-0.90558l-0.27966-0.17141-6e-3 -11.879-6e-3 -11.879h44.599l-0.0134 6.0826c-0.0145 6.5576-0.0334 7.7786-0.1584 10.239-0.23148 4.5551-0.70666 6.7728-1.7053 7.9588-0.43543 0.5171-1.1187 0.93178-1.8009 1.0929-1.0445 0.24677-5.9158 0.44227-13.946 0.5597-2.3056 0.0337-12.549 0.0509-14.339 0.024zm20.956-10.111c-0.0313-6e-3 -0.0885-6e-3 -0.12712-3.5e-4 -0.0386 6e-3 -0.0131 0.0108 0.0568 0.011s0.10154-5e-3 0.0703-0.0106zm0.16438 3e-3c-8e-3 -8e-3 -0.0304-9e-3 -0.0487-2e-3 -0.0203 8e-3 -0.0143 0.0141 0.0154 0.0154 0.0268 1e-3 0.0418-5e-3 0.0334-0.0134zm-0.85753-0.17221c0-5e-3 -0.02-0.0253-0.0445-0.0445-0.0403-0.0316-0.0412-0.0307-0.01 0.01 0.0332 0.0423 0.0541 0.0558 0.0541 0.0349zm-0.10637-0.15576c-0.0159-0.035-0.0338-0.0589-0.0397-0.053-0.0119 0.0119 0.0397 0.11669 0.0574 0.11669 6e-3 0-2e-3 -0.0286-0.0177-0.0637zm0.36385-0.81981c0.0316-0.0403 0.0307-0.0412-0.01-0.01-0.0423 0.0332-0.0558 0.0541-0.0349 0.0541 5e-3 0 0.0253-0.02 0.0445-0.0445zm0.20116-0.10857c0.11443-0.0584 0.11856-0.0636 0.0542-0.0684-0.0256-2e-3 -0.0799 0.0238-0.12077 0.0572-0.0915 0.0748-0.0664 0.079 0.0666 0.0112zm0.31687-0.22397c-8e-3 -8e-3 -0.0396 0.0123-0.0707 0.0446l-0.0565 0.0589 0.0707-0.0446c0.0389-0.0246 0.0643-0.051 0.0565-0.0589z"/>
  <path d="m659.17 629.99c-1.0072-0.01-3.5963-0.0595-4.4364-0.0852-2.6399-0.0805-3.9542-0.16736-4.6398-0.3067-1.156-0.23493-2.7206-0.87127-4.0043-1.6286l-0.31668-0.18683-5.4e-4 -11.879-5.4e-4 -11.879h44.593l-3.6e-4 4.9258c-3.3e-4 4.7882-0.0227 7.5022-0.0759 9.2224-0.21198 6.8532-0.78517 9.484-2.3136 10.619-0.53728 0.39901-1.0727 0.60462-1.8051 0.69314-1.9818 0.23951-8.1858 0.43134-16.081 0.49721-2.5026 0.0209-9.1082 0.0257-10.919 8e-3zm20.008-11.41c0-0.0138-0.0946 5e-3 -0.12722 0.0247-0.0622 0.0384-0.0174 0.0607 0.051 0.0254 0.0419-0.0217 0.0763-0.0442 0.0763-0.05zm0.2161-0.14064c0.0253-0.028 0.0403-0.0508 0.0333-0.0508s-0.0334 0.0229-0.0587 0.0508c-0.0253 0.028-0.0403 0.0509-0.0333 0.0509s0.0334-0.0229 0.0587-0.0509z"/>
  <path d="m659.05 629.99c-4.2728-0.0441-7.7392-0.18427-8.7455-0.35363-1.182-0.19894-2.8064-0.84417-4.2396-1.684l-0.28602-0.16759v-23.761h44.599l-0.0135 6.1462c-0.0145 6.6045-0.0331 7.8108-0.1585 10.227-0.26152 5.0405-0.82843 7.2764-2.1051 8.3024-0.50012 0.40193-1.0292 0.64216-1.6439 0.74647-1.4853 0.25202-7.9078 0.46403-16.233 0.53585-2.4298 0.021-9.4367 0.0261-11.174 8e-3zm20.099-11.384c0.0474-0.0357 0.0469-0.0367-0.0123-0.026-0.074 0.0134-0.1334 0.0632-0.0754 0.0632 0.0211 0 0.0606-0.0167 0.0877-0.0372zm0.2687-0.18528c0.0316-0.0403 0.0307-0.0412-0.01-0.01-0.0245 0.0192-0.0445 0.0392-0.0445 0.0445 0 0.0209 0.0209 7e-3 0.0541-0.0349z"/>
  <path d="m658.92 630c-4.6088-0.0636-7.661-0.18885-8.6186-0.35372-1.196-0.20591-2.8234-0.85287-4.2394-1.6852l-0.28602-0.16813v-23.761h44.599l-0.0135 6.1589c-0.0146 6.6675-0.0326 7.827-0.1587 10.239-0.24874 4.7575-0.75893 6.9482-1.8801 8.0727-0.47013 0.47154-1.1547 0.83049-1.7911 0.93916-1.3548 0.23134-5.8033 0.40317-13.552 0.52347-1.5384 0.0239-12.816 0.0512-14.059 0.034zm20.212-11.374c0.031-0.02 0.0277-0.0247-0.0176-0.025-0.0306-2e-4 -0.0628 0.0111-0.0714 0.025-0.02 0.0324 0.0389 0.0324 0.089 0z"/>
  <path d="m658.78 629.99c-2.723-0.0305-5.8947-0.12885-7.2585-0.22512-0.8779-0.062-1.2401-0.11197-1.767-0.24394-1.1312-0.28336-2.5666-0.89414-3.7182-1.5822l-0.26059-0.15569v-23.759h44.599l-0.0135 6.1843c-7e-3 3.4014-0.0256 6.6248-0.0403 7.1631-0.19326 7.0574-0.68744 9.808-1.9985 11.123-0.50512 0.50685-1.2154 0.86069-1.9322 0.96251-1.7979 0.2554-7.8535 0.45356-16.017 0.52413-2.4234 0.0209-9.9773 0.0263-11.593 8e-3zm20.339-11.373c0.0199-0.0322-0.0138-0.0322-0.0636 0-0.0329 0.0212-0.0322 0.0247 5e-3 0.025 0.0236 2.1e-4 0.0501-0.011 0.0587-0.025z"/>
  <path d="m713.91 585.68c-6.2901-0.0666-11.412-0.25114-12.905-0.46489-0.49289-0.0706-0.74675-0.22439-1.2424-0.75287-0.95746-1.021-1.4202-2.6945-1.688-6.105-0.2611-3.3253-0.2923-5.4378-0.31865-21.58l-0.0245-14.995 1.2885-1.2928c0.70867-0.71104 1.4143-1.3908 1.5681-1.5106 0.91345-0.7113 1.9946-0.94781 5.0593-1.1067 1.7861-0.0926 19.69-0.0935 22.195-1e-3 5.275 0.1946 7.6033 0.51372 9.0862 1.2454 1.109 0.54719 1.7164 1.4508 1.842 2.7403 0.2213 2.2724 0.35129 8.8595 0.39269 19.899 0.0514 13.697-0.0714 18.261-0.54286 20.176-0.22935 0.93161-0.50495 1.4035-1.2695 2.1736-0.48543 0.48897-0.65064 0.62112-0.97267 0.77806-0.94834 0.46217-2.2696 0.63971-5.5358 0.74382-2.1865 0.0697-12.362 0.10176-16.932 0.0533zm15.998-9.7907c0.32599-0.0918 0.39682-0.17252 0.35362-0.40281-0.13981-0.74525-1.5579-1.0268-2.0013-0.39727-0.28517 0.40485-0.13595 0.74699 0.38228 0.87654 0.24245 0.0606 0.92529 0.0193 1.2654-0.0765z"/>
  <path d="m713.47 585.68c-5.9331-0.0694-10.35-0.22729-12.2-0.43617-0.78686-0.0888-0.93881-0.16744-1.5218-0.78715-0.78593-0.83545-1.23-2.1127-1.502-4.32-0.43901-3.5632-0.51212-7.205-0.51314-25.56l-7.1e-4 -12.823 1.3347-1.3216c0.73411-0.72689 1.4263-1.3952 1.5381-1.4851 0.29714-0.23881 1.0543-0.58107 1.5512-0.70118 0.9514-0.22999 2.2951-0.34215 4.9573-0.41379 2.3817-0.0641 15.847-0.0642 18.864-1.4e-4 8.3784 0.17785 11.113 0.7058 12.219 2.359 0.47069 0.70374 0.56696 1.1696 0.66834 3.2342 0.20168 4.1073 0.27755 9.8695 0.27916 21.203 2e-3 11.753-0.0405 13.831-0.32697 16.119-0.21691 1.7321-0.49793 2.3723-1.4748 3.3597-0.48315 0.48834-0.65101 0.62338-0.9661 0.7772-0.92294 0.45054-2.2642 0.63489-5.4153 0.7443-1.9995 0.0694-13.163 0.10258-17.492 0.052zm16.382-9.793c0.33963-0.0945 0.44141-0.19446 0.40146-0.39426-0.0821-0.41031-0.53561-0.70728-1.1229-0.73526-0.47768-0.0227-0.76244 0.11523-0.92869 0.45-0.0983 0.19803-0.10681 0.25573-0.058 0.39561 0.0613 0.17586 0.25659 0.30589 0.55454 0.36924 0.23502 0.05 0.82395 6e-3 1.1537-0.0853z"/>
  <path d="m714.62 585.7c-6.7069-0.0636-12.873-0.29623-13.886-0.52389-0.28132-0.0632-0.54638-0.25801-0.98388-0.72307-1.2657-1.3455-1.6879-3.7302-1.9165-10.824-0.0333-1.0342-0.0642-7.6363-0.0787-16.805l-0.0238-15.102 0.85541-0.84031c1.9958-1.9606 2.0456-2.0039 2.6189-2.2805 1.0631-0.51283 2.2418-0.66877 5.8128-0.76906 2.2578-0.0634 16.181-0.0634 19.093 5e-5 9.2414 0.20127 11.734 0.83763 12.501 3.1916 0.17739 0.54418 0.26079 1.7196 0.36345 5.122 0.23505 7.7902 0.26712 27.977 0.0511 32.136-0.15435 2.9711-0.39782 4.1829-1.0234 5.0936-0.25472 0.37082-0.99125 1.1135-1.3259 1.337-0.86804 0.57966-2.187 0.79336-5.6598 0.91699-1.3947 0.0496-13.236 0.10075-16.398 0.0708zm15.324-9.8313c0.0949-0.0313 0.21235-0.10093 0.261-0.15468 0.17974-0.19861-0.0505-0.60314-0.4633-0.81394-0.34203-0.17467-0.97227-0.18279-1.24-0.016-0.37644 0.23456-0.47424 0.67034-0.20189 0.89951 0.1417 0.11924 0.26575 0.15923 0.60867 0.19622 0.19805 0.0214 0.84411-0.048 1.0355-0.11113z"/>
  <path d="m714.11 585.7c-6.3445-0.0752-11.606-0.26943-13.132-0.48471-0.48644-0.0687-0.70336-0.20269-1.2243-0.75643-1.0174-1.0815-1.4596-2.7924-1.7346-6.7112-0.22813-3.2508-0.28029-7.5437-0.28149-23.168l-9.8e-4 -12.871 1.3024-1.2798c1.4159-1.3914 1.6445-1.5852 2.1806-1.8497 0.81727-0.40308 1.7835-0.56309 4.2712-0.7073 1.5941-0.0924 20.386-0.0923 22.627 1.7e-4 2.8041 0.11565 4.3422 0.22893 5.7203 0.42128 3.383 0.47217 4.7032 1.4214 4.9291 3.5443 0.12232 1.1495 0.22127 3.9415 0.31756 8.9609 0.0858 4.4739 0.0874 23.798 2e-3 26.034-0.16658 4.3676-0.39214 5.6266-1.1991 6.6933-0.32508 0.4297-1.0768 1.1331-1.395 1.3053-0.88658 0.47978-2.266 0.68453-5.3751 0.79789-1.3566 0.0495-14.278 0.10353-17.008 0.0712zm15.892-9.8643c0.28664-0.14247 0.31378-0.21835 0.17822-0.49838-0.20826-0.4302-0.87835-0.68644-1.4254-0.54505-0.30806 0.0796-0.61093 0.39121-0.61093 0.62852 0 0.20996 0.11755 0.38307 0.32432 0.4776 0.23892 0.10923 1.2729 0.067 1.5338-0.0627z"/>
  <path d="m712.33 585.67c-5.3237-0.0768-9.5978-0.24316-11.109-0.43251-0.74525-0.0934-0.87692-0.16234-1.4347-0.75164-1.2947-1.3678-1.7216-3.6908-1.9544-10.634-0.0331-0.98697-0.0644-7.6291-0.0796-16.883l-0.025-15.256 1.3434-1.3235c0.82227-0.81012 1.4814-1.4153 1.6993-1.5601 1.0678-0.7099 2.2516-0.89556 6.4246-1.0076 2.6456-0.0711 19.428-0.0316 21.254 0.05 6.1432 0.27434 8.4326 0.75534 9.5352 2.0034 0.29398 0.33272 0.61551 0.98594 0.70918 1.4408 0.29681 1.4411 0.4836 10.724 0.48228 23.968-1e-3 14.68-0.1489 16.765-1.2905 18.249-0.34014 0.44204-1.092 1.1309-1.4297 1.3098-0.76995 0.40803-1.8148 0.59591-4.0658 0.73103-2.1248 0.12756-13.949 0.18422-20.059 0.0961zm17.633-9.8356c0.11967-0.0485 0.24032-0.13065 0.26811-0.18258 0.11627-0.21724-0.24907-0.67726-0.64659-0.81416-0.30967-0.10664-0.82343-0.0899-1.0338 0.0337-0.21872 0.12849-0.40695 0.39799-0.40695 0.58266 0 0.18332 0.17121 0.3929 0.37184 0.45515 0.25009 0.0776 1.1913 0.029 1.4474-0.0748z"/>
  <path d="m728.44 575.83c-0.27065-0.14688-0.32045-0.44494-0.11856-0.70963 0.16582-0.21739 0.41862-0.32975 0.74195-0.32975 0.36639 0 0.62379 0.087 0.863 0.29179 0.21626 0.1851 0.24118 0.28186 0.14274 0.5541-0.052 0.14388-0.0941 0.17392-0.30759 0.21971-0.37121 0.0796-1.1552 0.0641-1.3215-0.0262zm0.28768-0.29331c0.0857-0.0627 0.0808-0.0723-0.0699-0.13467-0.14174-0.0587-0.173-0.0564-0.24784 0.0185-0.0752 0.0752-0.0763 0.0915-9e-3 0.13389 0.10661 0.0674 0.21902 0.0613 0.3271-0.0177z"/>
  <path d="m728.38 575.75c-0.25777-0.22173-0.15573-0.60366 0.22007-0.82372 0.11186-0.0655 0.26134-0.0953 0.47773-0.0952 0.73142 3.9e-4 1.2271 0.48493 0.90428 0.88403-0.0919 0.11367-0.13339 0.12092-0.78087 0.13656-0.6543 0.0158-0.68972 0.0114-0.82121-0.1017zm0.37419-0.21636c0.0484-0.0583 0.0386-0.0844-0.0494-0.13144-0.19443-0.10405-0.45599 0.0349-0.32058 0.17027 0.0613 0.0613 0.30835 0.0354 0.36993-0.0388z"/>
  <path d="m728.38 575.75c-0.25937-0.22311-0.15565-0.60371 0.22529-0.82677 0.11877-0.0695 0.25885-0.0975 0.47774-0.0952 0.7299 7e-3 1.2197 0.49072 0.89905 0.88716-0.0919 0.11367-0.13339 0.12092-0.78087 0.13656-0.6543 0.0158-0.68972 0.0114-0.82121-0.1017zm0.37419-0.21636c0.0482-0.0581 0.0399-0.0837-0.0413-0.12712-0.0559-0.0299-0.13465-0.0544-0.17502-0.0544-0.0965 0-0.20519 0.13368-0.16349 0.20116 0.0483 0.0781 0.30989 0.0646 0.37979-0.0197z"/>
  <path d="m728.37 575.75c-0.39975-0.34386 0.0465-0.92261 0.70868-0.91912 0.72508 4e-3 1.2194 0.49263 0.89884 0.88892-0.0919 0.11367-0.13339 0.12092-0.78087 0.13656-0.66136 0.016-0.68848 0.0125-0.82665-0.10636zm0.36015-0.21145c0.0952-0.0699 0.0936-0.0744-0.0444-0.12711-0.18602-0.071-0.21373-0.0692-0.28722 0.0194-0.1353 0.16303 0.13622 0.25122 0.33166 0.10772z"/>
  <path d="m728.37 575.75c-0.25907-0.22285-0.15328-0.59726 0.2326-0.8232 0.12409-0.0727 0.25998-0.0987 0.50401-0.0964 0.70801 6e-3 1.1883 0.49699 0.87091 0.88942-0.0919 0.11367-0.13339 0.12092-0.78087 0.13656-0.66136 0.016-0.68848 0.0125-0.82665-0.10636zm0.30215-0.16984c0.12535-0.0481 0.0946-0.15793-0.0546-0.19539-0.089-0.0223-0.1604-9e-3 -0.2094 0.0404-0.13589 0.13588 0.0419 0.24019 0.26403 0.15494z"/>
  <path d="m728.37 575.75c-0.25907-0.22285-0.15328-0.59726 0.2326-0.8232 0.12409-0.0727 0.25998-0.0987 0.50401-0.0964 0.70801 6e-3 1.1883 0.49699 0.87091 0.88942-0.0919 0.11367-0.13339 0.12092-0.78087 0.13656-0.66136 0.016-0.68848 0.0125-0.82665-0.10636zm0.33173-0.19156c0.066-0.0442 0.063-0.0612-0.0224-0.12634-0.12647-0.0965-0.20285-0.0952-0.28587 5e-3 -0.0551 0.0664-0.054 0.0881 6e-3 0.12634 0.0954 0.0604 0.20704 0.0586 0.30182-5e-3z"/>
  <path d="m728.37 575.75c-0.25982-0.2235-0.15351-0.59637 0.23535-0.82541 0.12914-0.0761 0.25641-0.10024 0.50502-0.0959 0.7081 0.0123 1.1831 0.50046 0.86715 0.89111-0.0919 0.11367-0.13339 0.12092-0.78087 0.13656-0.66136 0.016-0.68848 0.0125-0.82665-0.10636zm0.30215-0.16984c0.10914-0.0419 0.10111-0.10703-0.0213-0.17252-0.14333-0.0767-0.33897 0.025-0.25129 0.13066 0.065 0.0784 0.14528 0.0907 0.27256 0.0419z"/>
  <path d="m712.05 585.68c-5.5463-0.0939-9.9951-0.27994-11.11-0.46461-0.44695-0.074-0.6742-0.21648-1.1541-0.72349-0.93632-0.98915-1.3834-2.4394-1.6636-5.3968-0.32505-3.4302-0.38322-7.1337-0.38461-24.489l-1e-3 -12.895 1.3347-1.3169c1.3675-1.3492 1.7863-1.69 2.3659-1.9256 0.96009-0.39012 2.3205-0.54994 5.4154-0.63623 2.2502-0.0627 16.507-0.0629 19.503-1.7e-4 7.638 0.15979 10.553 0.69416 11.707 2.1462 0.2822 0.35501 0.53826 0.90041 0.62858 1.3389 0.30208 1.4664 0.48444 10.509 0.48346 23.973-9.8e-4 13.341-0.14119 16.109-0.89198 17.61-0.24287 0.48551-0.49605 0.80603-1.0704 1.3551-0.8529 0.81538-1.5932 1.0635-3.719 1.2467-0.49578 0.0427-1.5192 0.10044-2.2743 0.12828-1.813 0.0669-15.995 0.10416-19.169 0.0504zm17.596-9.7676c0.45735-0.0845 0.5824-0.16566 0.5824-0.37777 0-0.32536-0.59051-0.80026-0.897-0.7214-0.0764 0.0197-0.0722 0.0254 0.0224 0.0302 0.15512 8e-3 0.40951 0.13928 0.58222 0.30087 0.17759 0.16616 0.19343 0.45424 0.033 0.59969-0.0915 0.0829-0.20385 0.0992-0.78088 0.11338-0.65104 0.0159-0.67887 0.0123-0.81686-0.10636-0.16709-0.14373-0.1895-0.36485-0.0574-0.56646 0.12195-0.18612 0.31089-0.29604 0.638-0.37118l0.28502-0.0655-0.27966 0.0284c-0.33534 0.0341-0.54459 0.14654-0.69898 0.37564-0.16173 0.23998-0.14889 0.43807 0.0398 0.61434 0.0849 0.0793 0.20504 0.15403 0.26695 0.16602 0.22893 0.0443 0.78926 0.034 1.081-0.0199zm-0.96545-0.37311c0.0959-0.0707 0.0951-0.0741-0.0284-0.12044-0.14569-0.0546-0.25424-0.0277-0.25424 0.063 0 0.14308 0.13049 0.16958 0.28266 0.0574z"/>
  <path d="m711.87 585.67c-5.1446-0.0784-9.7638-0.27126-10.926-0.45626-0.42656-0.0679-0.65661-0.20385-1.0903-0.64417-0.40406-0.41022-0.48215-0.51854-0.74316-1.031-0.58027-1.1392-0.88856-2.7432-1.0945-5.6949-0.23224-3.328-0.27971-7.2329-0.28099-23.115l-1e-3 -13.022 1.3093-1.2929c0.72013-0.71112 1.461-1.401 1.6464-1.5331 0.86941-0.61943 1.8249-0.83513 4.468-1.0086 1.233-0.0809 17.468-0.11905 20.913-0.0491 6.662 0.13529 9.548 0.5023 11.121 1.4142 0.74632 0.43275 1.3154 1.2163 1.495 2.0584 0.2193 1.0282 0.34888 4.9131 0.44231 13.26 0.0663 5.9251 0.0316 20.66-0.0536 22.729-0.15882 3.8586-0.40846 5.2109-1.1422 6.187-0.12292 0.16352-0.43857 0.50538-0.70144 0.75968-1.2231 1.1832-2.3158 1.3533-9.2689 1.4429-4.2083 0.0542-12.411 0.0522-16.093-4e-3zm17.74-9.7611c0.44552-0.0723 0.61614-0.16702 0.6159-0.34194-4e-4 -0.30725-0.39338-0.69212-0.76335-0.74765-0.14668-0.022-0.15477-0.019-0.0471 0.0173 0.41725 0.14081 0.65805 0.36726 0.65805 0.61886 0 0.32705-0.11005 0.37707-0.87226 0.39653-0.54342 0.0139-0.68066 2e-3 -0.78523-0.0662-0.36681-0.24035-0.1993-0.72687 0.31792-0.92336 0.194-0.0737 0.1942-0.0741 0.026-0.0469-0.47128 0.076-0.74912 0.57438-0.50573 0.90715 0.15713 0.21483 0.71081 0.29089 1.3558 0.18624zm-0.95541-0.3559c0.0549-0.0294 0.0863-0.0751 0.0699-0.1017-0.0466-0.0754-0.32894-0.0587-0.32894 0.0195 0 0.1386 0.0964 0.1692 0.25901 0.0822zm0.43909-0.79088c-0.0169-0.0169-0.0608-0.0187-0.0975-4e-3 -0.0406 0.0162-0.0285 0.0283 0.0307 0.0307 0.0536 2e-3 0.0836-0.01 0.0667-0.0267z"/>
  <path d="m711.7 585.67c-4.9342-0.0781-9.1144-0.24903-10.518-0.42993-0.66189-0.0853-0.82548-0.16877-1.3323-0.67963-1.0832-1.0918-1.5431-2.7777-1.8253-6.6918-0.23208-3.2184-0.27946-7.1037-0.28093-23.038l-1e-3 -13.123 1.3093-1.2943c0.72013-0.71186 1.461-1.402 1.6464-1.5338 1.0469-0.74378 2.2858-0.9511 6.3239-1.0583 2.6788-0.0711 19.922-0.03 21.636 0.0516 4.8148 0.22934 6.8328 0.52921 8.2793 1.2303 0.90462 0.43847 1.4929 1.1477 1.7341 2.0907 0.23709 0.92704 0.36661 4.5758 0.46615 13.133 0.0661 5.6852 0.0316 21.058-0.0517 23.008-0.15751 3.6882-0.38645 5.0072-1.0397 5.9898-0.3334 0.50152-1.196 1.3173-1.6347 1.5461-0.74556 0.38871-1.7329 0.56609-3.9144 0.70327-2.0785 0.1307-14.878 0.18983-20.797 0.0961zm18.185-9.8176c0.22131-0.0743 0.34903-0.18689 0.34903-0.30768 0-0.15572-0.13979-0.38147-0.32254-0.52086-0.25491-0.19443-0.28604-0.15625-0.0425 0.0522 0.17968 0.1538 0.21254 0.21154 0.21254 0.37348 0 0.33568-0.10447 0.3826-0.89498 0.40192l-0.68124 0.0166-0.15851-0.15852c-0.13306-0.13305-0.15336-0.18434-0.12637-0.31929 0.0407-0.20327 0.20251-0.38035 0.4628-0.50634 0.16955-0.0821 0.17853-0.0931 0.0539-0.0662-0.21577 0.0466-0.41051 0.20106-0.5053 0.40083-0.10116 0.21317-0.10196 0.2532-9e-3 0.4336 0.0682 0.13193 0.20369 0.21406 0.46003 0.27889 0.16039 0.0406 1.0128-0.0152 1.2018-0.0787zm-1.2225-0.29982c0.0549-0.0294 0.0863-0.0751 0.0699-0.1017-0.0466-0.0754-0.32894-0.0587-0.32894 0.0195 0 0.1386 0.0964 0.1692 0.25901 0.0822z"/>
  <path d="m712.79 585.7c-4.7031-0.0725-9.0453-0.22335-10.932-0.37973-1.2696-0.10523-1.4294-0.16489-2.0126-0.75164-1.3275-1.3354-1.7709-3.6295-2.0114-10.406-0.033-0.92914-0.0639-7.5679-0.0791-16.983l-0.0249-15.458 1.3394-1.3228c1.3924-1.3751 1.8433-1.7401 2.4172-1.9561 1.038-0.39072 2.2224-0.52419 5.4561-0.61487 2.501-0.0701 20.145-0.0302 21.763 0.0493 4.9507 0.24317 6.9208 0.54807 8.3644 1.2945 0.78579 0.40629 1.3748 1.1536 1.5975 2.027 0.333 1.3056 0.51162 9.6194 0.51049 23.761-1e-3 14.696-0.13146 16.842-1.1136 18.336-0.34785 0.52945-1.2032 1.3446-1.6621 1.5838-0.85266 0.4446-2.148 0.63736-5.0526 0.75188-1.1994 0.0473-16.314 0.10284-18.559 0.0682zm16.678-9.7806c0.22216-0.0307 0.14899-0.0389-0.35593-0.0398-0.38946-7e-4 -0.57652 0.0139-0.48305 0.0377 0.19638 0.05 0.48756 0.0507 0.83898 2e-3zm-1.144-0.21477c-0.10668-0.12679-0.12947-0.19516-0.10531-0.31596 0.0367-0.18351 0.23767-0.40628 0.44341-0.4915 0.0815-0.0338 0.13824-0.0713 0.12607-0.0835-0.0461-0.0461-0.42688 0.18808-0.50858 0.31276-0.15482 0.23629-0.15664 0.3997-6e-3 0.57821 0.0749 0.089 0.14759 0.16179 0.16157 0.16179 0.014 0-0.0358-0.0728-0.11072-0.16179zm1.8178 0.0228c0.0489-0.0441 0.089-0.12542 0.089-0.18071 0-0.1432-0.181-0.41715-0.34411-0.52082-0.13033-0.0828-0.1287-0.0775 0.0263 0.0861 0.12145 0.12821 0.16504 0.22097 0.16447 0.34999-9.4e-4 0.21319-0.0403 0.28106-0.20404 0.35214-0.11923 0.0517-0.11785 0.053 0.0268 0.024 0.0839-0.0168 0.19259-0.0666 0.24153-0.11075zm-1.5169-0.14614c0.12697-0.0487 0.0956-0.17252-0.0437-0.17252-0.13393 0-0.20608 0.0708-0.15554 0.15254 0.0362 0.0585 0.0858 0.0635 0.19923 0.02z"/>
  <path d="m712.64 585.7c-4.7951-0.0781-8.957-0.2243-10.805-0.3796-1.2218-0.10268-1.4142-0.17333-1.962-0.7205-1.346-1.3445-1.7908-3.5969-2.0358-10.31-0.034-0.93118-0.064-7.3906-0.0791-17.034l-0.0243-15.534 1.237-1.2231c1.4099-1.394 1.6661-1.6192 2.1269-1.8687 0.76642-0.41503 1.6944-0.59127 3.9661-0.7533 1.1351-0.081 17.729-0.11966 21.203-0.0495 7.4156 0.14981 10.275 0.62203 11.57 1.9108 0.63386 0.63065 0.88264 1.2739 0.98354 2.5431 0.23378 2.9408 0.36027 10.9 0.35958 22.627-6.7e-4 11.546-0.0881 14.71-0.45994 16.636-0.22649 1.1737-0.56533 1.7997-1.4289 2.6398-0.42761 0.41603-0.60797 0.55244-0.95793 0.72446-0.88074 0.43291-2.0467 0.60444-4.9057 0.72167-1.1657 0.0478-16.609 0.10464-18.788 0.0692zm16.449-9.7829c-0.0839-0.0213-0.23262-0.0392-0.3305-0.0398-0.16057-8.6e-4 -0.16554 3e-3 -0.0508 0.0398 0.0699 0.0224 0.21864 0.0403 0.33051 0.0398 0.19347-9e-4 0.19595-3e-3 0.0508-0.0398zm0.4195-0.0351c-0.0489-0.0128-0.12903-0.0128-0.17797 0-0.0489 0.0128-9e-3 0.0233 0.089 0.0233 0.0979 0 0.13793-0.0105 0.089-0.0233zm-1.1656-0.16164c-0.0651-0.0802-0.1279-0.13732-0.13966-0.12691-0.0215 0.019 0.1994 0.27275 0.23751 0.27275 0.0112 0-0.0328-0.0656-0.0978-0.14584zm1.725 0.0447c0.11001-0.0671 0.16525-0.1402 0.16525-0.21875 0-0.1357-0.19369-0.41802-0.36566-0.53296-0.0811-0.0542-0.0663-0.0242 0.0479 0.0972 0.12121 0.12888 0.16504 0.22248 0.16447 0.35125-8.8e-4 0.19957-0.033 0.26182-0.17719 0.34359-0.0559 0.0317-0.0788 0.0583-0.0508 0.059 0.028 7.5e-4 0.12521-0.044 0.2161-0.0994zm-1.4172-0.19904c0.0899-0.057 0.029-0.15745-0.0955-0.15745-0.10915 0-0.1736 0.0773-0.12712 0.15254 0.0384 0.0622 0.129 0.0642 0.22261 5e-3zm-0.40493-0.28457c2e-3 -0.028-0.0194-0.0165-0.0465 0.0254-0.0271 0.042-0.048 0.1106-0.0465 0.15255 3e-3 0.0805 0.0877-0.0816 0.093-0.17797zm0.18552-0.23517c0.10456-0.11126 0.1173-0.1395 0.0425-0.0942-0.0923 0.0559-0.25448 0.25307-0.20815 0.25307 9e-3 0 0.0836-0.0715 0.16569-0.1589z"/>
  <path d="m712.41 585.7c-5.0295-0.0908-8.7489-0.22405-10.576-0.37902-1.2164-0.10315-1.4298-0.18096-1.9657-0.71692-1.3402-1.3402-1.7786-3.5542-2.0321-10.263-0.0341-0.90314-0.0643-7.3212-0.08-17.034l-0.0252-15.585 1.3651-1.3479c0.7508-0.74136 1.4969-1.4348 1.6579-1.5411 1.0682-0.70448 2.2346-0.89635 6.114-1.0057 2.5143-0.0709 20.407-0.0301 21.966 0.05 4.8661 0.25006 6.7812 0.54684 8.1864 1.2686 0.83833 0.4306 1.42 1.155 1.648 2.0524 0.33943 1.336 0.51171 9.3074 0.51134 23.659-3.6e-4 13.173-0.11098 15.942-0.70385 17.618-0.22016 0.62214-0.439 0.94183-1.0996 1.6063-0.65586 0.65973-0.98574 0.87511-1.6525 1.0789-0.74959 0.22908-2.1519 0.3851-4.2203 0.46952-1.1848 0.0484-17.064 0.10635-19.093 0.0697zm16.602-9.7828c-0.0699-0.0224-0.18432-0.0407-0.25423-0.0407h-0.12712l0.12712 0.0407c0.0699 0.0224 0.18432 0.0407 0.25423 0.0407h0.12712zm0.49471-0.0307c-0.0169-0.0169-0.0608-0.0187-0.0975-4e-3 -0.0406 0.0162-0.0285 0.0283 0.0307 0.0307 0.0536 2e-3 0.0836-0.01 0.0667-0.0267zm0.6979-0.26709c0.0443-0.13953-0.0404-0.31689-0.2341-0.49032l-0.17037-0.15255 0.13983 0.15533c0.17996 0.1999 0.19107 0.47809 0.0254 0.6367l-0.1144 0.10955 0.16165-0.0816c0.0889-0.0449 0.17529-0.12457 0.19197-0.17712zm-1.8028 0.17857c0-0.01-0.0515-0.0611-0.1144-0.1144l-0.11441-0.0969 0.0969 0.11441c0.091 0.10751 0.13195 0.13756 0.13195 0.0969zm0.29024-0.30672c-0.027-0.0811-0.18866-0.10273-0.25708-0.0343-0.0431 0.0431-0.0403 0.0685 0.011 0.10023 0.0901 0.0557 0.27045 7e-3 0.24605-0.0659zm-0.29024-0.41302c0.0657-0.0699 0.10799-0.12712 0.094-0.12712-0.014 0-0.0792 0.0572-0.14484 0.12712-0.0657 0.0699-0.10798 0.12712-0.094 0.12712 0.014 0 0.0792-0.0572 0.14484-0.12712z"/>
  <path d="m710.96 585.68c-5.0692-0.1049-9.1069-0.28991-10.042-0.46013-0.38391-0.0699-0.66223-0.23055-1.0353-0.59773-0.5104-0.50235-0.80314-0.99311-1.0985-1.8416-0.50535-1.4518-0.77236-3.7912-0.94867-8.3118-0.0327-0.8393-0.0635-7.4696-0.0792-17.059l-0.0257-15.686 1.314-1.2997c0.7227-0.71484 1.4413-1.3951 1.5968-1.5116 1.0004-0.74955 2.2599-0.97242 6.124-1.0836 2.4732-0.0712 20.559-0.0295 22.144 0.051 4.7233 0.24008 6.7046 0.55004 8.1102 1.2688 0.83846 0.42876 1.4184 1.1514 1.6496 2.0553 0.36556 1.4293 0.54195 10.702 0.49543 26.045-0.0307 10.115-0.0708 11.706-0.34517 13.691-0.2241 1.6214-0.54182 2.2901-1.5543 3.2711-0.40193 0.38942-0.59049 0.53065-0.93391 0.69945-0.88663 0.43581-2.027 0.60542-4.854 0.72201-1.5838 0.0653-17.838 0.10299-20.517 0.0476zm18.088-9.7419c-0.0169-0.0169-0.0607-0.0187-0.0975-4e-3 -0.0406 0.0162-0.0285 0.0283 0.0307 0.0307 0.0536 2e-3 0.0836-0.01 0.0667-0.0267zm-0.64725-0.14102c0-0.0106-0.04-0.0506-0.089-0.089-0.0806-0.0633-0.0824-0.0615-0.0192 0.0192 0.0664 0.0847 0.10818 0.11164 0.10818 0.0698zm1.7288-0.0825c0.0559-0.0559 0.10161-0.13029 0.1015-0.16525-2.5e-4 -0.0806-0.18961-0.39407-0.23804-0.39407-0.02 0-9e-3 0.0275 0.0247 0.061 0.0876 0.0876 0.0753 0.42591-0.0189 0.52009-0.0439 0.0439-0.0554 0.0799-0.0254 0.0799s0.10025-0.0458 0.15618-0.1017zm-1.4507-0.25679c-0.041-0.0664-0.21347-0.0608-0.25618 8e-3 -0.0192 0.0311-5e-3 0.0753 0.0324 0.0982 0.081 0.0501 0.26608-0.0379 0.22378-0.10639zm-0.27809-0.3788c0.0657-0.0699 0.10799-0.12712 0.094-0.12712-0.014 0-0.0792 0.0572-0.14484 0.12712-0.0657 0.0699-0.10798 0.12712-0.094 0.12712 0.014 0 0.0792-0.0572 0.14484-0.12712z"/>
  <path d="m710.86 585.68c-5.6218-0.1178-9.4247-0.30783-10.169-0.50812-0.45763-0.12323-1.1573-0.81543-1.5421-1.5257-0.755-1.3934-1.1009-3.7927-1.3123-9.1017-0.033-0.82838-0.0635-7.4098-0.0793-17.085l-0.0257-15.737 1.314-1.2997c0.72273-0.71484 1.4413-1.3951 1.5969-1.5116 0.81431-0.6101 1.8326-0.85381 4.3189-1.0336 1.1312-0.0818 18.022-0.12018 21.518-0.0489 7.2285 0.14739 10.064 0.62409 11.358 1.9097 0.54705 0.54332 0.82691 1.1397 0.9311 1.9841 0.12646 1.025 0.22099 3.3386 0.32203 7.8814 0.0891 4.0078 0.0901 25.72 1e-3 27.763-0.11774 2.707-0.26967 4.0342-0.56814 4.9633-0.2277 0.70874-0.45249 1.0527-1.1474 1.7558-0.63228 0.6397-0.89916 0.81974-1.5439 1.0416-0.70872 0.24383-2.1349 0.41386-4.2273 0.50396-1.5239 0.0656-18.085 0.10466-20.746 0.0489zm19.351-10.078c0.0222-0.0699-0.0978-0.39673-0.14567-0.39673-7e-3 0-4e-3 0.089 6e-3 0.19775 0.0104 0.10877-8e-3 0.24711-0.0398 0.30741-0.0548 0.10245-0.0518 0.10533 0.0466 0.0439 0.0579-0.0362 0.11766-0.10471 0.13277-0.15233zm-1.5284-0.092c0.0404-0.0653-0.10244-0.12177-0.20684-0.0817-0.10188 0.0391-0.0458 0.13292 0.0795 0.13292 0.0526 0 0.10993-0.023 0.12734-0.0512zm-0.2734-0.44455c0.0633-0.0806 0.0615-0.0824-0.0192-0.0192-0.0489 0.0384-0.089 0.0784-0.089 0.089 0 0.0418 0.0417 0.0149 0.10818-0.0698z"/>
  <path d="m710.7 585.68c-4.9598-0.10523-9.0474-0.29894-9.8369-0.46617-0.38687-0.0819-0.61511-0.21893-0.98695-0.59232-1.2638-1.269-1.709-3.2108-1.9898-8.6783-0.10634-2.0703-0.14855-7.9691-0.15052-21.03l-2e-3 -13.199 1.1822-1.1722c1.5152-1.5024 1.7444-1.6989 2.3008-1.9728 0.99404-0.48927 2.1294-0.64319 5.4661-0.74101 2.3987-0.0703 20.871-0.0289 22.297 0.05 2.8163 0.15586 4.2204 0.28214 5.4554 0.49063 1.9859 0.33527 3.1908 0.91621 3.7982 1.8313 0.25159 0.37904 0.45995 0.97085 0.52732 1.4977 0.12577 0.98365 0.22285 3.3132 0.32316 7.7542 0.0905 4.005 0.0902 26.058-3e-4 28.017-0.17367 3.7584-0.39517 4.9589-1.0962 5.9414-0.35469 0.49705-1.2235 1.3022-1.61 1.4922-0.871 0.42801-2.0876 0.61367-4.7788 0.72926-1.5327 0.0658-18.253 0.10464-20.898 0.0485zm19.457-10.275-0.0756-0.17336-4e-3 0.19402c-2e-3 0.10671-0.0296 0.244-0.0607 0.30509-0.0503 0.0989-0.0416 0.0967 0.0797-0.0207 0.13136-0.12699 0.13354-0.13795 0.0607-0.30508zm-1.4844 0.10982c0.0161-0.026 6e-3 -0.0618-0.0229-0.0796-0.0725-0.0448-0.26261 0.022-0.22693 0.0797 0.0378 0.0612 0.21197 0.0611 0.2498-1.5e-4z"/>
  <path d="m711.72 585.7c-3.7781-0.0752-6.9621-0.18366-8.8729-0.30235-2.1848-0.13571-2.3724-0.18438-2.9594-0.768-1.1168-1.1102-1.5839-2.7543-1.8685-6.577-0.23786-3.1945-0.27789-6.493-0.2803-23.093l-2e-3 -13.254 1.2076-1.1937c1.5112-1.4937 1.7103-1.6639 2.2754-1.9448 0.97765-0.48592 2.1192-0.64197 5.4152-0.74024 2.3559-0.0703 21.048-0.0285 22.424 0.05 4.8503 0.27711 6.564 0.54799 7.93 1.2535 1.0344 0.53425 1.6244 1.3876 1.7743 2.5662 0.12823 1.0083 0.22089 3.194 0.32333 7.6271 0.0903 3.9065 0.0902 26.298-5e-5 28.22-0.172 3.6626-0.40175 4.8917-1.0964 5.8651-0.35477 0.49717-1.2235 1.3023-1.6096 1.4918-0.86291 0.42349-2.1038 0.6161-4.7029 0.72996-1.0672 0.0468-18.113 0.10568-19.958 0.069zm18.458-10.264c-0.0671-0.1766-0.081-0.16244-0.11706 0.11982-0.0284 0.22234-0.028 0.22302 0.0715 0.12351 0.0839-0.0839 0.0912-0.12322 0.0456-0.24333zm-1.5389 0.0615c-0.0117-0.035-0.0517-0.0636-0.089-0.0636s-0.0773 0.0286-0.089 0.0636c-0.0126 0.0378 0.0234 0.0636 0.089 0.0636 0.0655 0 0.10158-0.0258 0.089-0.0636z"/>
  <path d="m710.42 585.68c-4.8412-0.11139-8.6761-0.2948-9.5234-0.45549-0.39418-0.0747-0.64688-0.22666-1.0536-0.63333-1.298-1.298-1.7461-3.4836-2.0127-9.8178-0.0358-0.85101-0.0648-6.9778-0.0814-17.196l-0.0257-15.874 1.2128-1.1908c0.66701-0.65495 1.35-1.3082 1.5178-1.4516 1.0128-0.86582 2.2398-1.1149 6.0763-1.2333 2.301-0.0711 21.198-0.0283 22.576 0.0511 2.464 0.14186 3.345 0.21304 4.5198 0.3652 3.0083 0.38965 4.4136 1.1458 4.9521 2.6646 0.31914 0.90009 0.44476 3.6829 0.54994 12.182 0.0667 5.3904 0.0301 23.096-0.051 24.683-0.17845 3.4915-0.40908 4.6829-1.091 5.6363-0.28269 0.39518-1.1523 1.2384-1.4641 1.4197-0.78889 0.45876-2.1388 0.68297-4.8225 0.80095-1.5059 0.0662-18.806 0.10661-21.28 0.0497zm19.769-10.221c-0.0435-0.16632-0.11627-0.17042-0.11627-7e-3 0 0.0833-0.0134 0.19329-0.0297 0.24452-0.0241 0.0758-0.0108 0.0718 0.0716-0.0211 0.0607-0.0685 0.0905-0.15531 0.0744-0.21689zm-1.5527 0.0387c-0.0117-0.035-0.0517-0.0636-0.089-0.0636s-0.0773 0.0286-0.089 0.0636c-0.0126 0.0378 0.0234 0.0636 0.089 0.0636 0.0655 0 0.10158-0.0258 0.089-0.0636z"/>
  <path d="m711.44 585.7c-5.1317-0.10633-9.2408-0.28444-10.336-0.44802-0.57126-0.0853-0.80525-0.2083-1.2581-0.66116-1.2243-1.2243-1.669-3.1644-1.9589-8.5466-0.10458-1.9413-0.14692-7.9182-0.14874-20.995l-2e-3 -13.368 1.2076-1.1788c1.5246-1.4882 1.7114-1.6502 2.1925-1.9005 0.96849-0.50387 2.1296-0.6713 5.3711-0.77452 2.3152-0.0737 21.27-0.0312 22.678 0.0508 2.6229 0.15284 3.9931 0.27709 5.161 0.46802 2.5364 0.41464 3.7942 1.1922 4.2688 2.6389 0.39597 1.207 0.56118 8.1681 0.55933 23.568-1e-3 11.434-0.0658 14.418-0.35412 16.399-0.17503 1.2028-0.39129 1.8419-0.83153 2.4573-0.28189 0.39406-1.1526 1.2415-1.4616 1.4226-0.77108 0.45189-2.1419 0.68144-4.7741 0.79946-1.0438 0.0468-18.518 0.10589-20.314 0.0687zm18.737-10.193c0-0.0822-0.0229-0.14954-0.0508-0.14954-0.028 0-0.0509 0.0814-0.0509 0.18097 0 0.10769 0.0206 0.16824 0.0509 0.14954 0.028-0.0173 0.0508-0.0987 0.0508-0.18097zm-1.5254 3e-3c0-0.028-0.0458-0.0508-0.10169-0.0508-0.0559 0-0.1017 0.0229-0.1017 0.0508 0 0.028 0.0458 0.0508 0.1017 0.0508s0.10169-0.0229 0.10169-0.0508z"/>
  <path d="m711.26 585.69c-4.0237-0.0709-8.2723-0.24458-9.7816-0.39983-0.81799-0.0841-1.0816-0.18175-1.4914-0.55219-1.259-1.1381-1.7612-3.0345-2.0479-7.734-0.14883-2.4394-0.16309-3.9155-0.18689-19.347l-0.0247-15.992 1.2308-1.1949c1.5056-1.4617 1.6942-1.6239 2.1828-1.8781 0.93717-0.48758 2.1286-0.66708 5.085-0.76608 1.827-0.0612 17.82-0.0613 20.847-1.8e-4 5.79 0.11691 8.7712 0.5474 10.247 1.4797 0.65513 0.41375 1.1943 1.1743 1.3663 1.9274 0.33384 1.4618 0.48677 8.7893 0.48548 23.263-1e-3 12.426-0.0764 15.254-0.45473 17.079-0.25064 1.2089-0.49099 1.6533-1.367 2.5276-0.74234 0.74085-1.0493 0.92133-1.9292 1.1344-1.2192 0.29522-2.5443 0.38069-6.772 0.43683-3.0066 0.0399-15.395 0.0517-17.39 0.0166zm18.915-10.164c0-0.0683-0.0229-0.12412-0.0508-0.12412-0.028 0-0.0509 0.07-0.0509 0.15554 0 0.0907 0.0212 0.14245 0.0509 0.12412 0.028-0.0173 0.0508-0.0873 0.0508-0.15554zm-1.5508-0.0224c0.0173-0.028-0.0157-0.0508-0.0733-0.0508s-0.1047 0.0229-0.1047 0.0508c0 0.028 0.033 0.0508 0.0733 0.0508s0.0874-0.0229 0.1047-0.0508z"/>
  <path d="m710.07 585.68c-4.7071-0.115-8.5248-0.30527-9.2111-0.45908-0.32219-0.0722-0.56581-0.20661-0.86966-0.4798-1.313-1.1806-1.8065-3.2013-2.0987-8.5947-0.10539-1.9452-0.14748-7.8765-0.14923-21.03l-2e-3 -13.454 1.2363-1.1986c1.5637-1.5161 1.6913-1.6239 2.2467-1.8986 0.76057-0.37614 1.5715-0.53204 3.5847-0.68921 1.0301-0.0804 18.448-0.1187 21.966-0.0483 6.1123 0.12234 9.0062 0.52363 10.507 1.4569 0.70131 0.43617 1.2343 1.1742 1.4116 1.9545 0.36145 1.5914 0.51604 10.021 0.47276 25.78-0.0161 5.8554-0.0488 10.217-0.0813 10.856-0.15238 2.9879-0.3474 4.1928-0.83079 5.1331-0.17477 0.33997-0.32287 0.52219-0.87438 1.0758-0.56905 0.57126-0.7185 0.6923-1.0453 0.84661-0.85619 0.40424-2.0502 0.59003-4.5 0.70026-1.4706 0.0662-19.407 0.10656-21.763 0.049zm20.11-10.147c0-0.0738-0.022-0.11652-0.0508-0.0987-0.028 0.0173-0.0509 0.0758-0.0509 0.13012 0 0.0543 0.0229 0.0987 0.0509 0.0987s0.0508-0.0586 0.0508-0.13011zm-1.5508-0.0224c0.0173-0.028-0.017-0.0508-0.0763-0.0508-0.0592 0-0.0936 0.0229-0.0763 0.0508 0.0173 0.028 0.0516 0.0508 0.0763 0.0508s0.059-0.0229 0.0763-0.0508z"/>
  <path d="m709.97 585.68c-3.0653-0.0746-6.0903-0.19574-7.6525-0.30637-1.5594-0.11042-1.8417-0.18944-2.3548-0.65919-1.2991-1.1894-1.7694-3.1295-2.0707-8.5428-0.10584-1.9019-0.14754-7.7674-0.14916-20.983l-2e-3 -13.534 1.3826-1.3338c0.81465-0.78592 1.5196-1.4218 1.7161-1.548 0.82736-0.53137 1.7605-0.73926 4.0454-0.90123 1.321-0.0936 22.562-0.0922 24.28 2e-3 4.0761 0.22273 6.0248 0.49481 7.3583 1.0274 1.1711 0.46772 1.9312 1.2872 2.1703 2.3397 0.36424 1.6037 0.51599 9.8779 0.4723 25.753-0.0162 5.8862-0.0491 10.362-0.0805 10.932-0.16545 3.0105-0.35175 4.1497-0.83118 5.0822-0.17477 0.33997-0.32287 0.52219-0.87438 1.0758-0.56905 0.57126-0.7185 0.6923-1.0453 0.84661-0.85824 0.4052-2.0259 0.58795-4.4746 0.70035-1.4377 0.066-19.529 0.10655-21.89 0.0491zm20.212-10.175c0-0.0559-0.0229-0.0876-0.0508-0.0703-0.028 0.0173-0.0509 0.0772-0.0509 0.13312 0 0.0559 0.0229 0.0876 0.0509 0.0703s0.0508-0.0772 0.0508-0.13312zm-1.5763 6e-3c0-0.028-0.0229-0.0508-0.0508-0.0508-0.028 0-0.0508 0.0229-0.0508 0.0508 0 0.028 0.0229 0.0508 0.0508 0.0508 0.028 0 0.0508-0.0229 0.0508-0.0508z"/>
  <path d="m709.84 585.68c-3.0652-0.0766-6.0471-0.19779-7.5508-0.30685-1.5385-0.11158-1.8186-0.19075-2.3294-0.65832-1.2018-1.1002-1.6944-2.8869-1.9909-7.2208-0.18861-2.7572-0.20026-3.9092-0.20275-20.056l-2e-3 -15.81 1.3836-1.3334c1.476-1.4225 1.8074-1.6779 2.4944-1.9221 0.65784-0.23386 1.4275-0.35753 3.0882-0.49615 0.95175-0.0794 18.775-0.1176 22.169-0.0475 5.4311 0.11222 8.2453 0.44693 9.864 1.1732 1.0089 0.45266 1.7053 1.2617 1.9273 2.2388 0.36584 1.6107 0.51631 9.8236 0.47229 25.778-0.0165 5.9953-0.0491 10.378-0.0813 10.958-0.16435 2.9546-0.35426 4.1053-0.83037 5.0314-0.1757 0.34178-0.31992 0.51854-0.87438 1.0716-0.39653 0.39556-0.76638 0.71659-0.91821 0.79701-0.8097 0.42887-2.0549 0.63416-4.5763 0.75451-1.3586 0.0648-19.767 0.1052-22.042 0.0483zm20.339-10.147c0-0.0403-0.0229-0.0733-0.0508-0.0733-0.028 0-0.0509 0.0471-0.0509 0.10469 0 0.0576 0.0229 0.0906 0.0509 0.0733s0.0508-0.0644 0.0508-0.10469zm-1.5763-0.0224c0-0.028-0.0229-0.0508-0.0508-0.0508-0.028 0-0.0508 0.0229-0.0508 0.0508 0 0.028 0.0229 0.0508 0.0508 0.0508 0.028 0 0.0508-0.0229 0.0508-0.0508z"/>
  <path d="m709.71 585.68c-2.958-0.0751-5.9796-0.19896-7.4746-0.30648-1.4669-0.10551-1.8005-0.20279-2.2944-0.66913-1.2808-1.2092-1.7588-3.1707-2.0547-8.4307-0.10628-1.8894-0.14711-7.6401-0.14898-20.983l-2e-3 -13.635 1.233-1.1917c0.67818-0.65545 1.3246-1.2723 1.4364-1.3709 0.9805-0.86361 2.2729-1.1509 5.6695-1.2601 1.9201-0.0618 18.348-0.0619 21.229-1.6e-4 5.2993 0.11351 8.259 0.51073 9.7491 1.3084 0.72619 0.38873 1.3403 1.1107 1.5677 1.843 0.40395 1.301 0.5551 7.6832 0.55339 23.366-1e-3 11.624-0.0501 14.205-0.30799 16.291-0.13266 1.0729-0.29126 1.6948-0.58305 2.2863-0.20058 0.40661-0.31629 0.55995-0.79693 1.0561-0.60645 0.62601-0.99085 0.91479-1.4499 1.0892-0.71424 0.2714-2.1191 0.46381-4.0798 0.55875-1.3757 0.0666-19.938 0.10715-22.246 0.0486zm20.466-10.15c0-0.0419-0.0229-0.0621-0.0508-0.0448-0.028 0.0173-0.0509 0.0658-0.0509 0.1077s0.0229 0.0621 0.0509 0.0448 0.0508-0.0657 0.0508-0.1077zm-1.5763-0.0194c0-0.028-0.0229-0.0508-0.0508-0.0508-0.028 0-0.0508 0.0229-0.0508 0.0508 0 0.028 0.0229 0.0508 0.0508 0.0508 0.028 0 0.0508-0.0229 0.0508-0.0508z"/>
  <path d="m709.64 585.68c-2.9606-0.0756-5.8257-0.19445-7.3983-0.30701-1.4659-0.10493-1.8004-0.20244-2.2944-0.66888-1.2792-1.2077-1.7551-3.1494-2.0538-8.3799-0.10748-1.8824-0.14817-7.5743-0.14998-20.983l-2e-3 -13.686 1.2585-1.2199c0.69216-0.67097 1.3729-1.3147 1.5127-1.4306 0.96067-0.7959 2.233-1.0639 5.5678-1.173 1.8747-0.0613 18.495-0.0606 21.28 8.6e-4 5.357 0.11829 8.291 0.52258 9.7619 1.3452 0.69984 0.39138 1.2818 1.0902 1.5041 1.8063 0.28635 0.92224 0.41395 3.7425 0.51024 11.277 0.0684 5.3505 0.0307 24.295-0.0512 25.766-0.16052 2.8809-0.33731 3.9663-0.79926 4.9068-0.21615 0.44008-0.29652 0.54203-0.90352 1.1461-0.7098 0.70636-0.98248 0.88968-1.6079 1.081-0.7512 0.22975-1.9796 0.38113-3.8126 0.46979-1.3699 0.0663-20.038 0.10704-22.322 0.0487zm20.542-10.147c0-0.0436-0.0229-0.0651-0.0508-0.0479-0.028 0.0173-0.0509 0.053-0.0509 0.0793s0.0229 0.0478 0.0509 0.0478 0.0508-0.0357 0.0508-0.0793zm-1.5763-0.0224c0-0.028-0.0229-0.0508-0.0508-0.0508-0.028 0-0.0508 0.0229-0.0508 0.0508 0 0.028 0.0229 0.0508 0.0508 0.0508 0.028 0 0.0508-0.0229 0.0508-0.0508z"/>
  <path d="m710.55 585.69c-2.4399-0.0425-6.9802-0.21793-8.3644-0.32314-1.4172-0.10773-1.7553-0.20862-2.2436-0.6696-1.2768-1.2054-1.7569-3.1583-2.0537-8.3544-0.10886-1.9056-0.1485-7.4377-0.15018-20.958l-2e-3 -13.737 1.2585-1.2214c1.4216-1.3796 1.7602-1.6677 2.2122-1.882 0.98597-0.46742 2.1027-0.62746 5.0463-0.72317 2.2495-0.0731 21.855-0.0314 23.186 0.0494 3.7506 0.22745 5.5003 0.46303 6.7757 0.91227 0.78509 0.27654 1.1894 0.51565 1.6413 0.97061 0.78033 0.78564 0.92787 1.3181 1.0649 3.8433 0.19841 3.6559 0.272 10.765 0.24028 23.212-0.0261 10.24-0.0423 11.232-0.21425 13.119-0.13895 1.5246-0.32662 2.3506-0.69837 3.0738-0.17491 0.34024-0.32242 0.52164-0.87438 1.0752-0.75874 0.76097-1.0669 0.9481-1.9097 1.1598-1.1918 0.29936-2.4279 0.38029-6.661 0.43613-3.0381 0.0401-16.233 0.0527-18.254 0.0175zm19.627-10.164c0-0.0436-0.0229-0.0651-0.0508-0.0479-0.028 0.0173-0.0509 0.053-0.0509 0.0793s0.0229 0.0478 0.0509 0.0478 0.0508-0.0357 0.0508-0.0793zm-1.5763-0.0224c0-0.028-0.0229-0.0508-0.0508-0.0508-0.028 0-0.0508 0.0229-0.0508 0.0508 0 0.028 0.0229 0.0508 0.0508 0.0508 0.028 0 0.0508-0.0229 0.0508-0.0508z"/>
  <path d="m709.46 585.67c-3.9791-0.0949-7.5451-0.27549-8.4188-0.42627-0.47799-0.0825-0.74933-0.21841-1.1056-0.55382-1.345-1.2664-1.8328-3.4693-2.1012-9.4902-0.0331-0.74305-0.063-7.311-0.0789-17.368l-0.0256-16.173 1.2633-1.225c0.69482-0.67374 1.3777-1.3194 1.5175-1.4349 0.95583-0.78907 2.2179-1.0608 5.441-1.1714 1.8202-0.0625 18.748-0.0625 21.534-4e-5 5.1252 0.11493 7.8602 0.47937 9.4576 1.2602 0.39438 0.19278 0.55815 0.31114 0.89218 0.64479 0.80489 0.80395 0.94705 1.305 1.0897 3.8409 0.19791 3.5182 0.27197 10.662 0.24038 23.186-0.0262 10.369-0.0417 11.324-0.21546 13.195-0.13995 1.507-0.32837 2.3308-0.69725 3.0483-0.17491 0.34024-0.32242 0.52164-0.87438 1.0752-0.75853 0.76076-1.0662 0.94767-1.9097 1.1602-1.1738 0.29569-2.4538 0.38163-6.5085 0.43695-3.949 0.0539-17.179 0.0507-19.5-5e-3zm20.72-10.114c0-0.028-0.0229-0.0508-0.0508-0.0508-0.028 0-0.0509 0.0229-0.0509 0.0508 0 0.028 0.0229 0.0508 0.0509 0.0508s0.0508-0.0229 0.0508-0.0508zm-1.5763-0.0508c0-0.028-0.0229-0.0508-0.0508-0.0508-0.028 0-0.0508 0.0229-0.0508 0.0508 0 0.028 0.0229 0.0508 0.0508 0.0508 0.028 0 0.0508-0.0229 0.0508-0.0508z"/>
  <path d="m710.32 585.69c-3.8126-0.0706-8.3912-0.29063-9.282-0.44614-0.5591-0.0976-0.73025-0.19376-1.22-0.68537-0.355-0.35636-0.48152-0.52859-0.6937-0.94433-0.68475-1.3417-1.002-3.1848-1.2384-7.1949-0.10665-1.809-0.14733-7.5396-0.14898-20.983l-2e-3 -13.788 1.2585-1.2219c0.69216-0.67203 1.4026-1.3371 1.5787-1.4779 0.81792-0.65378 1.7973-0.90731 4.1797-1.082 1.2873-0.0944 22.961-0.0941 24.61 3.9e-4 3.829 0.21929 5.5213 0.44767 6.899 0.93104 0.7406 0.25984 1.1169 0.48394 1.5695 0.93478 0.7995 0.79636 0.95491 1.3369 1.0892 3.7889 0.18225 3.3264 0.25434 9.1909 0.25317 20.593-1e-3 13.417-0.0644 15.734-0.47894 17.599-0.24617 1.108-0.54137 1.6228-1.4168 2.4709-0.66769 0.64681-1.0241 0.85371-1.8134 1.0525-1.1613 0.29254-2.4497 0.38073-6.3814 0.43677-2.761 0.0394-16.856 0.0517-18.763 0.0164zm19.856-10.135c0-0.028-0.0229-0.0508-0.0508-0.0508-0.028 0-0.0509 0.0229-0.0509 0.0508 0 0.028 0.0229 0.0508 0.0509 0.0508s0.0508-0.0229 0.0508-0.0508zm-1.5763-0.0508c0-0.028-0.0229-0.0508-0.0508-0.0508-0.028 0-0.0508 0.0229-0.0508 0.0508 0 0.028 0.0229 0.0508 0.0508 0.0508 0.028 0 0.0508-0.0229 0.0508-0.0508z"/>
  <path d="m710.2 585.69c-2.7574-0.0531-6.8288-0.22403-8.2928-0.34824-1.303-0.11055-1.5549-0.20732-2.1328-0.81931-0.3596-0.38081-0.45713-0.52202-0.70076-1.0147-0.57094-1.1545-0.88509-2.8279-1.1017-5.8683-0.17751-2.492-0.18806-3.4966-0.2077-19.78l-0.0196-16.246 1.2828-1.2302c0.70554-0.67662 1.4187-1.3357 1.5848-1.4646 0.80759-0.62678 1.7615-0.87212 4.0963-1.0536 1.2128-0.0943 23.06-0.0942 24.712 9e-5 3.6841 0.21028 5.4416 0.44509 6.8136 0.91032 1.1627 0.39428 1.9934 1.1185 2.3424 2.0424 0.27469 0.72708 0.38609 2.3144 0.51615 7.3549 0.0916 3.549 0.0916 28.254-1e-5 29.873-0.17858 3.1575-0.40345 4.336-0.998 5.2304-0.31034 0.46683-1.2972 1.4157-1.6839 1.6192-0.63082 0.33191-1.7459 0.55675-3.3546 0.6764-1.3042 0.097-6.6529 0.14786-14.593 0.13875-4.1949-5e-3 -7.9131-0.0142-8.2627-0.021zm19.958-10.135c0.0173-0.028 7e-3 -0.0508-0.0224-0.0508-0.0296 0-0.0539 0.0229-0.0539 0.0508 0 0.028 0.0101 0.0508 0.0224 0.0508s0.0366-0.0229 0.0539-0.0508zm-1.5763-0.0508c0.0173-0.028 7e-3 -0.0508-0.0224-0.0508-0.0296 0-0.0539 0.0229-0.0539 0.0508 0 0.028 0.0101 0.0508 0.0224 0.0508s0.0366-0.0229 0.0538-0.0508z"/>
  <path d="m710.12 585.69c-3.183-0.064-7.2648-0.24285-8.5932-0.3765-0.93613-0.0942-1.2328-0.2314-1.7915-0.82873-1.019-1.0893-1.4771-2.857-1.7674-6.82-0.17635-2.4077-0.18781-3.4877-0.20991-19.78l-0.0221-16.271 1.2766-1.2203c1.563-1.4941 1.6973-1.6068 2.2157-1.8601 0.69018-0.33719 1.5347-0.50593 3.324-0.66414 0.90562-0.0801 19.404-0.11869 22.716-0.0474 6.4423 0.13867 9.2076 0.62194 10.502 1.8355 0.63831 0.59821 0.90786 1.1833 1.0269 2.2292 0.27791 2.441 0.38089 8.4743 0.37894 22.202-1e-3 9.3349-0.0434 13.579-0.1486 15-0.17212 2.324-0.41195 3.3983-0.93398 4.1835-0.31285 0.4706-1.2985 1.4193-1.6869 1.6237-0.63072 0.33186-1.7451 0.55659-3.3546 0.67649-1.3234 0.0986-6.4489 0.14755-14.517 0.13864-4.2928-5e-3 -8.0797-0.0141-8.4153-0.0209zm20.034-10.135c0.0173-0.028 7e-3 -0.0508-0.0224-0.0508-0.0296 0-0.0539 0.0229-0.0539 0.0508 0 0.028 0.0101 0.0508 0.0224 0.0508s0.0366-0.0229 0.0539-0.0508zm-1.5763-0.0508c0.0173-0.028 7e-3 -0.0508-0.0224-0.0508-0.0296 0-0.0539 0.0229-0.0539 0.0508 0 0.028 0.0101 0.0508 0.0224 0.0508s0.0366-0.0229 0.0538-0.0508z"/>
  <path d="m709.99 585.69c-1.9935-0.0386-6.4979-0.21604-7.5763-0.29851-1.7918-0.13704-2.0244-0.21355-2.6514-0.87224-1.1216-1.1784-1.5796-3.1203-1.8744-7.9475-0.10826-1.7727-0.14885-7.4576-0.15051-21.077l-2e-3 -13.882 1.2839-1.2274c1.5705-1.5014 1.6878-1.5999 2.2057-1.8527 0.70504-0.3441 1.5848-0.51722 3.4003-0.66909 1.1116-0.093 23.206-0.0917 24.839 1e-3 5.165 0.29458 7.1634 0.72396 8.2921 1.7817 0.64185 0.60147 0.91279 1.1796 1.0354 2.2094 0.27979 2.3504 0.38318 8.3738 0.38161 22.232-1e-3 9.273-0.0444 13.655-0.14872 15.051-0.16817 2.2493-0.418 3.3563-0.93189 4.1293-0.12634 0.19005-0.48914 0.59891-0.8062 0.90857-0.66812 0.65251-1.0247 0.85843-1.8441 1.065-1.1496 0.28979-2.309 0.37234-6.0544 0.4311-2.5641 0.0402-17.514 0.0529-19.398 0.0165zm20.161-10.135c0.0173-0.028 7e-3 -0.0508-0.0224-0.0508-0.0296 0-0.0539 0.0229-0.0539 0.0508 0 0.028 0.0101 0.0508 0.0224 0.0508s0.0366-0.0229 0.0539-0.0508z"/>
  <path d="m709.86 585.69c-2.5207-0.0567-6.5194-0.2233-7.7542-0.3231-1.5019-0.12137-1.7351-0.20561-2.3463-0.84775-1.1075-1.1636-1.5506-2.9758-1.8499-7.5662-0.13392-2.0541-0.17344-6.8855-0.17512-21.41l-2e-3 -13.935 1.2839-1.2251c1.5714-1.4995 1.6881-1.5973 2.2057-1.8499 0.67536-0.32961 1.5298-0.50423 3.2477-0.66371 0.86406-0.0802 19.591-0.11942 22.881-0.0479 4.0065 0.0871 6.4572 0.30954 8.157 0.74041 1.1234 0.28478 1.7441 0.59732 2.3229 1.1698 0.62655 0.61969 0.87032 1.1872 0.98312 2.2889 0.26165 2.5553 0.35793 8.5113 0.35633 22.042-2e-3 13.822-0.0646 16.017-0.51162 17.837-0.23166 0.94324-0.53339 1.4525-1.324 2.2344-0.74045 0.73238-1.1055 0.93419-2.0769 1.1481-1.2165 0.26784-2.1696 0.33232-5.7712 0.39046-2.4842 0.0401-17.999 0.0532-19.627 0.0166z"/>
  <path d="m708.87 585.68c-3.1721-0.0952-6.5029-0.25689-7.3983-0.35912-0.89865-0.1026-1.1926-0.24255-1.7411-0.82887-0.89952-0.96159-1.3519-2.4184-1.6361-5.2687-0.31257-3.1353-0.31659-3.3839-0.34426-21.28l-0.0252-16.323 1.2886-1.2277c1.5745-1.5001 1.6934-1.5998 2.2038-1.8476 0.68285-0.33161 1.5492-0.51285 3.178-0.66484 0.8831-0.0824 19.694-0.12487 23.011-0.052 5.2064 0.11447 7.8904 0.4634 9.4742 1.2317 0.44688 0.21679 0.59081 0.3192 0.94356 0.6714 0.64623 0.64523 0.8767 1.1789 0.99194 2.297 0.28313 2.7468 0.37985 9.6448 0.34367 24.508-0.0254 10.437-0.0425 11.633-0.19008 13.297-0.15336 1.7291-0.42074 2.7906-0.86588 3.4376-0.22329 0.32455-0.70654 0.85143-1.0974 1.1965-0.85832 0.75774-1.9235 1.0142-4.848 1.167-1.2376 0.0647-21.34 0.10388-23.288 0.0454z"/>
  <path d="m709.66 585.69c-4.1362-0.10309-7.9431-0.30044-8.6809-0.45003-0.47756-0.0968-0.66969-0.20065-1.0698-0.57808-1.3145-1.24-1.8296-3.5222-2.0784-9.2091-0.0618-1.4112-0.14536-33.606-0.0877-33.789 0.0373-0.11834 2.5064-2.4859 2.9042-2.7848 0.95725-0.71927 2.1704-0.95673 5.4026-1.0575 2.3625-0.0737 22.397-0.032 23.669 0.0492 4.2386 0.27048 5.9892 0.56709 7.2863 1.2345 0.82196 0.42295 1.4942 1.2568 1.6885 2.0943 0.16624 0.71679 0.28419 2.6365 0.38628 6.2869 0.0797 2.8481 0.11844 24.616 0.0502 28.195-0.10483 5.5003-0.33922 6.8561-1.3904 8.0429-0.80559 0.90948-1.3766 1.2926-2.2541 1.5124-1.1743 0.29419-2.2885 0.37667-5.8939 0.43628-2.4366 0.0403-18.448 0.0538-19.932 0.0168z"/>
 </g>
</svg>
