<svg width="612.74" height="793.79" clip-rule="evenodd" fill-rule="evenodd" stroke-linecap="round" stroke-linejoin="round" version="1.1" viewBox="0 0 612.74 793.79" xmlns="http://www.w3.org/2000/svg" xmlns:xlink="http://www.w3.org/1999/xlink">
 <g transform="translate(-1023.3 -335.27)">
  <path d="m1505 1126.4c-9.1936-1.627-24.024-6.3984-29.339-9.4395-2.5312-1.4482-5.6377-4.3158-6.9033-6.3725-1.2656-2.0566-5.3365-7.7354-9.0465-12.62-17.737-23.35-27.26-40.051-63.481-111.32-9.6604-19.009-19.073-37.13-20.917-40.269-1.844-3.139-5.1307-9.5856-7.3038-14.326-4.2809-9.3381-13.147-21.933-23.007-32.684-11.094-12.096-33.399-30.292-44.058-35.941-4.2181-2.2355-17.175-8.0648-22.602-10.168-2.8476-1.1038-6.3667-2.4682-7.8203-3.0318-4.9005-1.9003-12.134-1.1722-16.362 1.6467-6.7003 4.4679-23.351 13.08-27.017 13.974-26.031 6.3484-49.525 2.1449-71.581-12.807-6.3048-4.274-12.015-9.3429-15.708-13.944-3.1914-3.9756-7.0554-7.5428-8.5868-7.9271-3.7957-0.95268-21.89 0.31578-25.794 1.8082-4.0703 1.5561-8.639-0.107-9.8972-3.6026-0.5165-1.4352-0.2922-27.461 0.4984-57.836 1.9067-73.249 2.1727-93.115 1.2663-94.582-0.8088-1.3088-14.698-7.2926-37.018-15.949-24.722-9.5877-35.1-15.925-35.1-21.432 0-5.6176 3.2509-8.5348 18.745-16.821 8.4991-4.5453 21.867-12.55 29.706-17.789 7.8394-5.2386 16.678-10.936 19.642-12.66 2.9638-1.7247 5.6505-4.0401 5.9705-5.1455 0.3199-1.1053 0.8806-12.623 1.246-25.596 0.994-35.292 3.2151-101.42 3.5166-104.7 0.1454-1.582 0.331-16.338 0.4125-32.791l0.1481-29.914 229.53 0.66308 10.355-5.1342c5.6952-2.8238 15.532-8.7769 21.86-13.229 37.879-26.65 49.456-33.415 63.202-36.931 19.306-4.9376 52.684-1.6735 70.262 6.8709 14.55 7.0726 21.55 14.202 32.769 33.378 2.7768 4.746 6.9232 11.007 9.2142 13.914 5.8176 7.3807 25.867 31.12 32.953 39.017 17.824 19.866 22.729 35.433 34.433 109.3 2.2562 14.238 5.6066 34.948 7.4455 46.022 6.7937 40.914 10.553 66.383 11.038 74.786 6.4528 111.81 6.592 115.73 6.167 173.73-0.6007 81.983-0.6057 90.429-0.088 149l0.4678 52.925-4.3506 12.081c-4.8326 13.419-8.227 20.603-14.033 29.699-4.2096 6.5955-15.739 18.714-22.246 23.383-5.1649 3.706-25.816 13.201-31.058 14.279-2.2112 0.455-8.6749 2.6249-14.364 4.8219-9.2418 3.5692-11.754 4.0371-23.593 4.3931-7.2871 0.2192-16.097-0.1055-19.577-0.7214zm12.407-102.27c6.6505-2.9139 17.894-14.078 25.538-25.358 6.385-9.4223 28.437-46.535 32.809-55.217 14.855-29.498 30.687-76.909 37.272-111.61 1.2606-6.6444 2.9086-19.058 3.6622-27.585 1.3738-15.546 0.623-34.628-3.6452-92.647-0.6517-8.8592-1.6404-26.721-2.1971-39.694-1.5786-36.786-4.311-57.382-13.204-99.522-13.446-63.717-14.601-67.986-21.484-79.41-7.7456-12.856-20.332-29.901-27.526-37.275-20.792-21.314-62.053-39.166-102.31-44.264-49.195-6.2303-84.734-4.3707-115.21 6.0289-22.814 7.7841-54.256 27.317-78.077 48.504-14.767 13.134-25.134 21.099-32.215 24.749-3.7236 1.9194-7.7644 2.0555-53.642 1.8069l-49.616-0.26889-0.678 2.7012c-0.3728 1.4857-0.7755 24.174-0.8947 50.419-0.1205 26.529-0.6937 48.782-1.2906 50.115-0.5906 1.3182-4.0071 3.8256-7.5923 5.572-3.5851 1.7464-13.767 7.9653-22.626 13.82s-21.136 13.443-27.283 16.864c-6.1462 3.4206-11.194 6.6238-11.218 7.1182-0.024 0.49448 0.8633 1.2096 1.9707 1.5892s4.861 1.8857 8.3414 3.3469 11.764 4.779 18.409 7.3728 17.859 7.3761 24.921 10.627c11.401 5.2484 12.916 6.2888 13.514 9.2773 0.3703 1.8513 0.4255 3.7667 0.1228 4.2566-0.7946 1.2857-4.1044 137.06-3.3701 138.24 0.3382 0.54723 4.0085 0.99497 8.1562 0.99497h7.5412l-0.5838-3.164c-0.3211-1.7402-1.4063-6.7882-2.4117-11.218-3.9727-17.504-0.6792-38.836 8.7037-56.377 11.46-21.422 34.625-37.628 60.14-42.071 23.601-4.11 51.86 4.8784 69.938 22.246 12.874 12.368 20.471 26.173 24.061 43.725 3.5988 17.594 2.1283 32.781-4.7815 49.381-3.318 7.971-3.3068 8.9838 0.1 8.9838 4.9364 0 23.101 7.439 36.662 15.015 28.822 16.101 48.902 34.21 72.653 65.524 15.181 20.014 20.412 28.276 29.866 47.172 9.1161 18.22 29.473 44.587 48.561 62.896 5.3871 5.1674 11.017 9.6564 12.511 9.9757 1.4941 0.3192 8.9295 0.4546 16.523 0.3008 11.516-0.2332 14.815-0.7214 19.886-2.9432z" stroke-opacity="0"/>
  <path d="m1154 587.67c-23.625-5.4171-32.701-22.853-18.551-35.636 19.885-17.965 66.64-9.7333 68.789 12.11 1.2652 12.863-13.642 23.399-34.656 24.494-5.2105 0.27161-12.019-0.15163-15.582-0.9686z" stroke-opacity="0"/>
  <g stroke-opacity="0">
   <path d="m1373.1 648.95c-9.9435-3.0456-20.789-14.336-23.542-24.507-4.1361-15.283 4.4857-33.734 18.601-39.806 13.944-5.9986 26.558-3.8312 36.373 6.2495 14.25 14.636 15.598 29.439 4.0945 44.98-4.0232 5.4357-6.9338 8.0148-11.732 10.395-6.9743 3.4604-17.42 4.64-23.795 2.6874zm19.715-9.4192c9.3434-4.7968 15.5-14.311 15.521-23.985 0.035-16.3-17.184-29.597-32.701-25.253-10.502 2.9404-19.04 14.301-19.04 25.334 0 10.98 8.9167 22.868 18.911 25.211 5.102 1.1962 13.697 0.54709 17.309-1.3071z"/>
   <path d="m1429.9 588.74c-6.2563-2.3312-12.134-7.1842-15.908-13.135-4.8622-7.6668-6.0095-12.218-5.415-21.48 1.5249-23.761 23.619-37.797 46.199-29.349 7.1379 2.6706 14.563 9.9008 18.046 17.572 2.9939 6.5943 3.028 21.382 0.064 27.907-2.8921 6.3675-8.6003 12.631-14.847 16.292-4.2264 2.4768-6.9465 3.1188-14.512 3.4252-6.023 0.2439-10.834-0.19093-13.627-1.2316zm19.939-7.7936c5.8791-1.7614 12.102-7.073 15.045-12.841 4.7931-9.3952 2.4817-23.529-4.9551-30.3-9.1659-8.3452-23.007-9.7198-32.276-3.2052-11.641 8.1818-15.33 22.723-8.6501 34.101 6.6407 11.312 18.385 15.975 30.837 12.245z"/>
   <path d="m1491 649.02c-3.9165-1.1832-10.174-4.8683-10.174-5.9916 0-0.47528-1.8107-2.6748-4.0237-4.8879-6.8293-6.8293-9.2102-12.663-9.1889-22.516 0.022-9.981 1.7783-14.401 8.9719-22.573 15.779-17.926 44.928-12.98 55.066 9.3419 3.9198 8.6308 3.6552 19.779-0.6742 28.407-4.0078 7.9873-7.2915 11.224-16.039 15.811-5.5043 2.8858-8.023 3.5116-13.807 3.4308-3.8908-0.0544-8.4499-0.51454-10.132-1.0225zm18.014-8.2042c6.3931-1.749 14.647-10.439 16.625-17.505 3.9338-14.05-4.0845-28.492-18.077-32.56-16.732-4.8642-32.489 7.4342-32.489 25.358 0 18.011 15.957 29.626 33.941 24.707z"/>
   <path d="m1432.2 704.29c-8.1246-2.6384-15.974-9.7924-20.635-18.808-1.9862-3.8414-2.5013-6.7836-2.4619-14.062 0.061-11.252 2.8554-18.157 10.195-25.19 6.1279-5.8716 13.758-8.7645 23.096-8.757 13.191 0.0106 23.514 6.0465 29.793 17.42 3.0629 5.5478 3.4085 7.2187 3.4184 16.527 0.01 9.3743-0.3062 10.895-3.3391 16.055-6.8665 11.683-15.098 16.765-28.196 17.409-4.7979 0.23582-10.14-0.0313-11.871-0.5935zm18.982-8.7934c6.7568-2.3023 14.027-9.9964 15.857-16.781 3.1423-11.65-1.7306-23.852-11.897-29.79-5.3812-3.1431-6.8042-3.4612-14.042-3.1387-6.8663 0.30588-8.8428 0.9039-13.404 4.0558-13.003 8.9851-14.966 27.815-4.0926 39.26 7.3574 7.7436 17.034 9.9874 27.578 6.3946z"/>
  </g>
 </g>
</svg>
