<svg height="512pt" viewBox="-43 0 512 512" width="512pt" xmlns="http://www.w3.org/2000/svg"><path d="m281.703125 425.140625c-7.628906 12.101563-20.140625 20.292969-34.289063 22.441406l-71.347656 11.726563c-10.054687 1.519531-18.347656 8.671875-21.332031 18.394531-2.980469 9.726563-.125 20.296875 7.347656 27.195313 4.953125 4.570312 11.445313 7.105468 18.183594 7.101562.699219 0 1.390625 0 2.089844-.085938 35.042969-3.648437 69.644531-10.726562 103.304687-21.128906 12.207032-3.527344 22.089844-12.511718 26.761719-24.328125l17.988281-44.960937 13.996094-1.253906c6.476562-.53125 12.078125-4.710938 14.429688-10.769532l35.609374-90.675781 25.640626-66.695313c4.355468-11.328124 6.585937-23.359374 6.582031-35.492187v-11.808594c0-112.929687-95.703125-204.800781-213.335938-204.800781-117.628906 0-213.332031 91.871094-213.332031 204.800781v11.808594c-.00390625 12.132813 2.226562 24.164063 6.578125 35.492187l25.667969 66.753907 35.609375 90.675781c2.339843 6.007812 7.894531 10.160156 14.320312 10.703125l19.011719 1.703125c5.886719.539062 11.632812-2.015625 15.171875-6.75 2.414063-3.222656 3.59375-7.207031 3.320313-11.226562l16.742187-6.570313 3.125 7.941406c1.722656 4.382813 6.667969 6.539063 11.050781 4.824219l31.777344-12.503906c13.171875-5.152344 19.671875-20.015625 14.507812-33.183594l-65.46875-166.777344c-5.15625-13.167968-20.011718-19.664062-33.179687-14.507812l-23.832031 9.386718c-8.777344 3.445313-13.097656 13.351563-9.652344 22.128907l-13.550781 5.289062v-15.1875c0-72.089843 55.6875-145.066406 162.132812-145.066406 106.445313 0 162.132813 72.976563 162.132813 145.066406v15.1875l-13.53125-5.308593c3.445312-8.773438-.875-18.679688-9.652344-22.125l-23.824219-9.386719c-13.171875-5.164063-28.03125 1.332031-33.1875 14.507812l-65.457031 166.824219c-5.164062 13.171875 1.332031 28.035156 14.503906 33.1875l31.78125 12.46875c2.109375.835938 4.464844.796875 6.546875-.105469 2.082031-.90625 3.71875-2.605469 4.542969-4.71875l3.125-7.941406 4.882812 1.910156c-3.667968 9.019531-8.1875 17.671875-13.492187 25.839844zm30.617187-37.410156-15.863281-6.230469 59.222657-150.929688 15.878906 6.230469zm-15.753906 72.386719c-2.726562 6.933593-8.515625 12.207031-15.675781 14.277343-32.53125 10.066407-65.972656 16.925781-99.839844 20.480469-2.699219.203125-5.363281-.722656-7.355469-2.5625-1.90625-1.734375-3.003906-4.1875-3.027343-6.765625-.046875-4.714844 3.410156-8.730469 8.078125-9.386719l71.347656-11.726562c19.019531-2.902344 35.835938-13.929688 46.082031-30.214844 4.570313-7.160156 8.648438-14.621094 12.210938-22.332031.484375 1.082031 1.082031 2.105469 1.78125 3.0625l.0625.0625c.042969.058593.058593.125.101562.175781.859375 1.136719 1.863281 2.160156 2.976563 3.046875zm-182.21875-72.386719-59.265625-150.929688 15.882813-6.230469 59.21875 150.929688zm-9.847656-188.589844c.988281-.394531 2.046875-.59375 3.113281-.59375 3.511719 0 6.664063 2.148437 7.945313 5.417969l65.449218 166.816406c.839844 2.113281.796876 4.46875-.109374 6.550781s-2.605469 3.71875-4.71875 4.542969l-23.824219 9.34375-3.117188-7.9375-65.507812-166.894531-3.117188-7.933594zm108.832031-156.472656c-117.648437 0-179.199219 81.558593-179.199219 162.132812v20.480469c-.003906 3.210938.597657 6.394531 1.777344 9.386719l.160156.425781 65.476563 166.828125.058594.082031 1.128906 2.945313-18.996094-1.707031-35.574219-90.574219-25.601562-66.6875c-3.625-9.367188-5.488281-19.324219-5.496094-29.371094v-11.808594c0-103.519531 88.046875-187.734375 196.265625-187.734375 108.222657 0 196.269531 84.214844 196.269531 187.734375v11.808594c.003907 10.042969-1.84375 20-5.453124 29.371094l-25.601563 66.636719-35.582031 90.617187-19.015625 1.707031.15625-.417968 1.015625-2.5625 65.449218-166.816407.171876-.445312c1.183593-2.996094 1.792968-6.195313 1.792968-9.417969v-20.480469c0-80.574219-61.554687-162.132812-179.203125-162.132812zm61.023438 348.484375-23.824219-9.34375c-2.117188-.824219-3.820312-2.460938-4.726562-4.542969-.910157-2.082031-.949219-4.441406-.113282-6.550781l65.46875-166.769532c.828125-2.113281 2.460938-3.808593 4.542969-4.714843 2.082031-.902344 4.441406-.941407 6.550781-.105469l23.832032 9.34375-35.839844 91.359375-32.726563 83.402344zm0 0"/></svg>