<svg height="512" viewBox="0 0 512 512" width="512" xmlns="http://www.w3.org/2000/svg"><g id="Outline"><path d="m489.233 326.731-43.989-157.1a48.107 48.107 0 0 0 -29.818-32.168l-4.369-1.589-11.467-34.4a8 8 0 0 0 -5.393-5.162l-39.311-11.235a48.152 48.152 0 0 0 -37.881 4.993l-23.221 13.93h-75.568l-23.216-13.928a48.16 48.16 0 0 0 -37.887-4.994l-39.313 11.23a8 8 0 0 0 -5.393 5.162l-11.467 34.4-4.369 1.589a48.107 48.107 0 0 0 -29.818 32.168l-43.989 157.1a182.7 182.7 0 0 0 -6.764 49.273 56.063 56.063 0 0 0 56 56 8 8 0 0 0 5.657-2.343l75.314-75.314a7.944 7.944 0 0 1 5.656-2.343h194.746a7.944 7.944 0 0 1 5.656 2.343l75.314 75.314a8 8 0 0 0 5.657 2.343 56.063 56.063 0 0 0 56-56 182.7 182.7 0 0 0 -6.767-49.269zm-163.994-222.943a32.1 32.1 0 0 1 25.254-3.326l35.252 10.071 6.12 18.36-25.615-9.315a38.186 38.186 0 0 0 -41.839 10.983l-3.613 4.215-13.487-20.232zm-104.958 16.212h71.438l18.263 27.4-17.662 20.6h-72.64l-17.662-20.6zm-94.026-9.467 35.251-10.07a32.108 32.108 0 0 1 25.259 3.328l17.924 10.753-13.489 20.231-3.613-4.215a38.186 38.186 0 0 0 -41.839-10.982l-25.615 9.315zm316.933 305.341-72.844-72.844a23.846 23.846 0 0 0 -16.971-7.03h-194.746a23.846 23.846 0 0 0 -16.971 7.03l-72.844 72.844a40.053 40.053 0 0 1 -36.812-39.874 166.686 166.686 0 0 1 6.175-44.954l43.989-157.1a32.065 32.065 0 0 1 19.879-21.446l49.176-17.882a22.1 22.1 0 0 1 24.221 6.358l34.486 40.233a8 8 0 0 0 6.074 2.791h80a8 8 0 0 0 6.074-2.794l34.486-40.233a22.1 22.1 0 0 1 24.221-6.358l49.176 17.885a32.065 32.065 0 0 1 19.879 21.445l43.989 157.1a166.686 166.686 0 0 1 6.175 44.955 40.053 40.053 0 0 1 -36.812 39.874z"/><path d="m248 136h16v16h-16z"/><path d="m200 248h-16v24h-24v16h24v24h16v-24h24v-16h-24z"/><path d="m344 200h16v16h-16z"/><path d="m392 200h16v16h-16z"/><path d="m368 176h16v16h-16z"/><path d="m368 224h16v16h-16z"/><path d="m320 240a40 40 0 1 0 40 40 40.045 40.045 0 0 0 -40-40zm0 64a24 24 0 1 1 24-24 24.028 24.028 0 0 1 -24 24z"/><path d="m184 208a40 40 0 1 0 -40 40 40.045 40.045 0 0 0 40-40zm-40 24a24 24 0 1 1 24-24 24.028 24.028 0 0 1 -24 24z"/><path d="m216 200h16v16h-16z"/><path d="m280 200h16v16h-16z"/></g></svg>