<svg version="1" xmlns="http://www.w3.org/2000/svg" width="1532" height="1532" viewBox="0 0 1149.000000 1149.000000"><path d="M187.8 178.5c-.2.2-3.5.5-7.3.6-3.9.2-7.4.5-8 .8-.5.2-1.9.6-3.1.7-4.1.4-8.9 1.4-12.2 2.3-1.8.5-3.5 1-3.7 1-.3.1-.6.1-.7.2-.2 0-1.4.2-2.7.5-4.3.8-15.5 5.7-20.1 8.7-5.6 3.7-18 16.6-18 18.6 0 .5-.6 1.6-1.3 2.3-.7.7-2.6 3.5-4.1 6.3-5.4 9.4-20.1 28.4-30.9 40-2.9 3.1-15.8 19.4-19.9 25-5.9 8.3-10.9 18.2-12.2 24.7-.3 1.3-1.2 4.8-2 7.8s-1.7 6.6-2 8c-.6 2.9-1.3 6.4-2.2 10.5-.4 1.6-.8 3.9-1 5-.1 1.1-.7 4-1.2 6.5-.6 2.5-1.3 6.3-1.6 8.5-.4 2.3-.9 5.2-1.1 6.5-1 5.1-2.7 15.5-4 24.5-.3 2.2-.8 5.1-1.1 6.5-.2 1.4-.6 3.4-.8 4.6-.2 1.2-.7 4.5-1.1 7.5-.4 3-.8 5.6-1 5.9-.2.3-.7 3.3-1 6.5-.4 3.3-.9 6.9-1.1 8-.8 3.9-2.3 13.1-2.8 16.5-.3 1.9-1 6.7-1.6 10.6-.6 3.9-1.3 8.4-1.5 10-.2 1.6-.4 2.9-.5 2.9-.1 0-.3 1.3-.4 3-.2 1.6-.6 5.5-1 8.5-1.9 14.9-2.4 19.6-2.4 21 0 .8-.3 4-.6 7-1.8 15.2-2.8 29.6-5.1 73.5-.6 12-1.7 51.6-1.9 69-.1 7.7-.5 14.6-.9 15.2-.5.7-.5 1.3 0 1.3.4 0 .7 4.4.5 9.7-.3 10.1-.5 163.1-.2 172.8 0 1.1.2 2.9.4 4s-.1 2.8-.6 3.7c-.5 1-.5 1.8-.1 1.8.5 0 .9 3.3.9 7.2.3 19 2.1 27.3 9.4 42.3 8.3 17.1 16 27.5 27.8 37.7 1.8 1.6 3.4 2.8 3.8 2.8.3 0 2.4 1.3 4.8 2.9 12.5 8.6 33.7 16.8 48.1 18.6 1.7.2 5.3.7 8 1 5 .6 19.4.6 25 0 19.3-2.1 35-12.7 51.1-34.5 3.3-4.4 13.8-20.3 13.9-21 0-.3.8-1.6 1.7-3 3.4-5.3 11.5-19.7 12.9-22.8.7-1.7 1.7-3.2 2.1-3.2.5 0 .8-.4.8-.9s2.4-5.5 5.4-11c3-5.6 5.1-10.1 4.8-10.1-.4 0-.2-.4.4-.8.6-.4 2.8-4.1 4.8-8.2 3.7-7.2 9.9-19.3 18.1-35 2.2-4.1 4.3-7.8 4.8-8.1.5-.3.8-.9.8-1.3-.1-.7 6.2-13.1 10.7-21.1 1.6-2.8 4.1-7.3 5.7-10 4.8-8.6 16.3-26.9 18.7-29.7 1.3-1.5 3.3-4 4.5-5.5 8.6-10.9 26.8-26.1 41.5-34.8 7-4.1 23.9-12.1 29.3-13.9 6.4-2.1 12.2-2.6 15.8-1.3 1.5.5 6.5 3.1 11 5.8 7.2 4.3 16.8 8.1 26.2 10.5 1.7.4 3.7.9 4.5 1.1 4.4 1.1 22.1 1 27.5-.1 11.4-2.5 25.5-8.6 30.3-13 1.3-1.1 2.5-1.9 2.7-1.6.6.8 9.1-6.7 17.8-15.7 4.4-4.5 8.3-8 8.7-7.8.5.3 4.1.7 8.2 1 4 .2 10.8.7 15.1 1 14.1 1.1 17.6-1.9 19.3-16.5 1.1-9 1.2-144.1.2-146.2-.5-1-3.2-2.9-6.1-4.2-14.8-6.9-20.5-9.3-35.2-15.3-8.8-3.6-17.8-7.4-20-8.6l-4-2 3.9-3.3c2.2-1.9 4.1-3.2 4.3-3 .3.2 4.7-2.2 9.9-5.5 5.3-3.2 9.9-5.9 10.4-5.9.4 0 1-.4 1.2-.8.4-1.1 20.8-14.1 28.3-18.1 3.3-1.7 6.5-3.8 7-4.5 1.1-1.4 1.1-23.1.2-153.3-.2-27.1-.6-49.5-.8-49.8-.4-.4-111.5-1.8-117.4-1.5-10.7.6-110.7-1.3-128-2.5-10-.6-10.2-.7-15-3.3-6.2-3.4-7.9-4.6-8.8-6-.4-.6-1.3-1.2-1.9-1.2-.6 0-3.5-1.8-6.4-4-2.9-2.2-5.7-4-6.3-4-.5 0-1.1-.3-1.3-.8-.5-1.1-6.6-5.2-7.8-5.2-.5 0-1-.5-1-1 0-.6-.6-1-1.4-1-.8 0-1.6-.3-1.8-.8-.6-1.4-19.9-13.3-28.7-17.7-12.2-6.1-18.2-8.1-28.1-9.1-3-.3-6-.7-6.7-.9-.6-.2-1.3-.2-1.5 0zm70.2 72.9c5.2.3 11.3.8 13.5 1 9.4 1.1 14.8 1.8 16.9 2.2 1.1.2 3.9.6 6.1 1 6.3.9 6.8 1 10 1.7 1.7.4 4 .9 5.2 1.1 9.3 1.8 36.2 10.9 51.6 17.5 9.4 4 27.8 13 28.7 14 .3.3 2.1 1.5 4.2 2.6 10.3 5.7 15.8 9 15.8 9.7 0 .5.6.8 1.3.8 1.2 0 2.6.9 7.4 5 .7.5 1.5 1 1.8 1 .4 0 3.3 2 6.5 4.5s6.3 4.5 6.8 4.5c.6 0 1.2.4 1.4.8.2.4 3.2 3 6.8 5.7 3.6 2.7 7.1 5.5 7.8 6.2.7.7 2.5 1.6 4 1.9 1.5.4 3.1.9 3.6 1.2 1.4.8 7.7 1 45.7 1.1l34.5.1-.2 48.7c-.1 26.9-.2 49.1-.3 49.5 0 .5-.6.8-1.1.8-.6 0-1.6.5-2.3 1-.7.6-3.4 2.5-6.2 4.2-2.7 1.7-8 5-11.7 7.4-3.8 2.5-6.8 4.1-6.8 3.7 0-.5-.4-.3-.8.2-.9 1.4-14.7 9.5-16 9.5-.6 0-1.2.4-1.4.8-.3.7-6 4.2-12.8 7.8-1.4.7-4.5 3-6.8 5.1-3.8 3.4-4.4 4.4-4.4 7.8 0 3.4.6 4.5 3.9 7.4 2.1 1.8 5.6 4.1 7.8 5.1 2.2.9 6.1 2.7 8.7 3.9 2.6 1.1 5 2.1 5.3 2.1.4 0 2.1.6 3.8 1.4 1.8.8 9.5 3.9 17.2 7.1 7.7 3.1 16.3 6.8 19.1 8.2l5 2.6V657l-2.8.1c-3.5.1-5.9.1-15.2 0l-7.4-.1 1.5-4.8c2-6.3 2.3-42.5.4-49.2-3.5-12.1-10.2-22.5-22.8-35.3-6.9-7-21.4-17.6-22.6-16.6-.3.2-1.5-.5-2.7-1.6-1.2-1.1-2.4-1.9-2.6-1.7-.2.2-3-.2-6.1-.8-7.9-1.7-35.2-1.8-43.8-.3-7.8 1.5-7.8 1.5-12 3.3-1.6.7-3.5 1.4-4.1 1.5-.6.2-2 1-3 1.9-1.1.8-3.9 2.8-6.3 4.4-9.4 6.3-22.3 21-27.9 31.7-2.5 4.9-4.4 9.8-4.1 10.7 0 .2-.5 1.6-1.1 3.3-2.2 5.7-3.4 14.2-3.2 24 .1 6.2.8 15.1 1.3 16.5.1.3.2.9.3 1.5.8 5.1 4 15.5 5.6 18.5 1.4 2.5 0 3.4-12.1 7.6-13.7 4.7-24 10-37.4 19.2-6 4.1-11.2 7.8-11.5 8.1-.3.3-2.7 2.4-5.5 4.6-10.2 8.1-30.9 28.8-38.2 38.2-1.2 1.5-3.1 3.8-4.2 5-1.2 1.2-2.1 2.5-2.1 2.8 0 .4-.7 1.3-1.5 2.2-4 3.9-17.8 25.5-24.7 38.3-6 11.3-19.7 33-23.4 37-.8.8-3.3 4-5.6 7s-4.7 6.1-5.3 6.8c-.5.7-5 5.6-10 10.9-13.5 14.4-18.3 17.1-31.4 17.9-4.1.3-7.7.6-8 .6-3 .7-16.8-3.1-21.4-5.9-9.4-5.9-25.4-26.5-37.7-48.8-1.8-3.3-4.2-7.6-5.3-9.5-3.8-6.7-13.5-26.6-18.1-37-2.6-5.8-5.1-11.4-5.6-12.5-3.8-8.6-10.8-28.3-14.7-41.5-3.9-13.1-9.3-34.8-9.9-40-.3-1.9-.7-4.6-1-6-2.8-14.4-3.1-44.3-.9-91 .2-5.2.4-9.5.5-9.5 0 0 .3-4.5.5-10s.7-13.6 1-18c.4-4.4.8-11.4 1-15.5.3-4.1.7-9.8 1-12.5.2-2.8.7-8.2 1-12 .3-3.9.8-9 1.1-11.5.2-2.5.6-6.5.9-9 .3-2.5.7-6.5 1.1-9 .3-2.5.8-5.9.9-7.5.2-1.7.7-4.8 1-7 .3-2.2.8-5.6 1-7.5.2-1.9.7-5.1 1.1-7 .8-4.6 1.2-6.7 1.9-11.5.3-2.2.7-4.7 1-5.5.2-.8.7-3.3 1-5.5 1.5-9.1 2-11.1 5.1-25 1.4-6.1 2.7-11.9 2.9-13 .3-1.1.9-4.1 1.5-6.6.6-2.6 1.3-5.5 1.5-6.5.2-1.1.4-1.9.5-1.9.2 0 .7-1.9 1.5-5.8 3.7-17.8 20.2-44.7 38.9-63.3 7.7-7.6 23.6-19.4 26.3-19.4.7 0 1.3-.5 1.3-1.2 0-.6.3-.8.6-.5.4.4 1.9-.2 3.4-1.3 1.6-1.1 3-2 3.3-2 .2 0 2.6-1 5.3-2.2 2.7-1.2 5.4-2.3 5.9-2.5.6-.1 6.2-2 12.5-4.2s12.6-4.2 14-4.5c1.4-.2 4.3-.8 6.5-1.4 2.2-.6 5.2-1.3 6.8-1.6 21-3.8 25.4-4.3 41.7-5.2 6.3-.3 11.6-.7 11.7-.8.3-.2 17.4.3 27.3.8z"/><path d="M212.5 382.4c-2.1 2.1-2.2 2.8-2 22.5.2 23 .2 23 7.9 23.2 4 .1 22.2 0 27.8-.2 5.2-.1 5.6-2.1 5.4-24.4-.1-15-.4-20.7-1.4-21.7-.9-.9-6-1.3-18.4-1.4-16.4-.2-17.2-.1-19.3 2zM470.7 384.6c-.1.1-2.7.3-5.7.5-21.5 1-36.3 15.5-30 29.4 2.2 5 4.8 7.7 10.2 10.9 5.4 3.1 19.2 7 23.8 6.7 1.9-.2 5.3-.4 7.5-.5 4.8-.3 10.2-1.4 13-2.6 6.5-2.7 13.5-6.2 13.5-6.8 0-.4 1-1.8 2.3-3.2 4.6-5 5.8-10.8 3.4-16.4-4.3-9.8-14.6-16-29-17.4-4.8-.4-8.9-.7-9-.6zM162.2 431.1c-2.3.3-4.8 1.1-5.4 1.7-.8.8-1.3 6.6-1.4 17.7-.1 16.2-.1 16.5 2.3 18.9 1.3 1.3 3.4 2.6 4.6 3 3.7.9 37.6.1 38.7-1 2.3-2.3 2.7-9.5 2-30.9-.3-10-.2-9.9-19.7-10-9.3 0-18.7.3-21.1.6zM265.8 430.8c-6 .5-6.5 2-6.3 18.9.3 18.5.8 21.1 4.6 22.1 2.4.6 29 .8 38.6.3 3.4-.2 4.4-5.2 4.5-22.1.1-20.5 1.2-19.4-20.9-19.5-9.3 0-18.5.1-20.5.3zM214.5 475.1c-2 .3-4.1 1.2-4.6 2-.9 1.5-1.1 7.9-1 26.4.1 11.4.2 12.6 1.5 16.2 1 3 4.6 3.6 20.3 3.5 15.2-.1 18.4-1 19.3-5.7 1.2-6.1.5-38.2-.8-40.7-1.3-2.4-1.5-2.4-16.1-2.3-8.1 0-16.5.3-18.6.6zM944 182c-4.1.9-9.6 2.6-12.3 3.8-2.6 1.1-5.1 2.2-5.5 2.2-.4.1-1.4.7-2.2 1.4-.8.7-2.2 1.5-3 1.8-.8.3-10 6.2-20.4 13.2-10.4 6.9-19.2 12.6-19.6 12.6-.5 0-1 .4-1.2.8-.5 1.4-16.4 11.9-22 14.5-5.5 2.7-9.5 3.5-21.3 4.2-7.1.5-89 .5-172.8.2-25.1-.1-45.8 0-45.8.3-.3 1-.7 17-1.2 43.3-.3 14.8-.8 27.1-1.1 27.4-.3.3-.1 1.3.4 2.3.5 1 .7 2 .3 2.3-.3.4-.7 8.4-.9 17.9-.7 43.5-1.8 77.1-2.9 92.8-.4 6-.7 6.7-4.2 9.8-5.1 4.4-6.1 5.2-6.9 5.2-.4 0-2.1 1-3.8 2.3-1.7 1.3-6.7 4.5-11.1 7.3-10.4 6.4-10.4 6.5-16.1 9.7-2.7 1.5-6.2 3.6-7.9 4.6-1.6 1-5.7 3.3-9 5.1-12.5 6.9-14.4 8.8-14.5 14.4 0 7.3 4.5 10 41.8 25.1 28.1 11.3 29 11.7 29.7 15.7.5 3.3.3 15.2-1.1 67.3-.9 36.1-1 78.4-.2 81.6 1.1 3.9 4.6 5.3 9.7 3.9 2.3-.6 9.2-1.2 15.2-1.3l11-.1 8.2 8.2c4.5 4.5 10.5 9.9 13.2 12.1 8.1 6.3 24.6 14 31.7 14.7.9 0 2.5.5 3.5.9s6.8.9 12.9 1c9.5.3 13.2 0 22.4-1.9 4.4-.8 10-3 10-3.9 0-.6.3-.8.6-.4.3.3 2.5-.5 4.7-1.8 3.5-2 15.4-8 20.7-10.5 2.5-1.2 12 1.1 21.5 5.1 1.7.7 3.2 1.3 3.5 1.3.3.1 3.7 1.6 7.5 3.5 3.9 1.9 7.8 3.8 8.7 4.3 4.9 2.3 6 3 17.3 12 8.5 6.7 30.4 28.1 34.5 33.6 1.4 1.9 3.1 4 3.8 4.7.6.8 1.2 1.6 1.2 2 0 .4 1.3 2.5 2.8 4.8 4.1 6.1 12.4 21.5 29.6 55 5.3 10.4 10.4 19.9 11.2 21.3.9 1.3 1.3 2.4.9 2.4-.3 0 .2 1.2 1.2 2.7 1 1.6 4.3 7.7 7.3 13.8 3 6 5.8 11.2 6.1 11.5.3.3 1.8 3.1 3.4 6.3 1.5 3.1 3.1 6 3.6 6.3.5.3.9 1.4.9 2.4s.4 2 .8 2.2c.5.1 2.9 4.2 5.5 9 4.5 8.3 17.7 30.2 19.4 32.3.5.5 2 2.6 3.3 4.5 1.3 1.9 3.5 4.6 4.8 6 1.3 1.4 4.4 5.7 7 9.6 2.5 4 6.1 8.1 7.8 9.4 6 4 20.7 9.2 30.4 10.7 5.5.8 28.5.9 32.8.2 2.4-.5 8.4-2.3 13.1-4 8.5-3.1 11.6-4.2 11.6-3.9 0 .2 13.6-5.6 20.3-8.5 2.3-1 4.2-2.2 4.2-2.7 0-.4.5-.8 1.1-.8 3.6 0 20.5-15.4 25.8-23.5 1.4-2.2 2.9-4.2 3.2-4.5.3-.3 2.5-3.9 4.8-8.1 4.7-8.6 9.6-21.3 10.5-27.4 1.3-7.9 1.7-39.5 1.8-132.5 0-106.9-1.1-171.6-3.6-210-.5-6.5-1.6-22.9-2.1-30.5-.2-2.2-.6-6.5-.9-9.5-.3-3-.8-8.2-1.1-11.5-1-9.9-1.5-13.6-3.1-23-.9-5-1.8-10.4-2-12-.7-4.7-1-6.7-1.7-10.5-.4-1.9-1.4-7.8-2.2-13-.9-5.2-2-12-2.5-15s-1.2-7.4-1.5-9.7c-.3-2.3-1.4-9.8-2.6-16.5-1.1-6.8-2.2-13.7-2.5-15.3-.2-1.7-.9-5.5-1.4-8.5-.5-3-1.2-7.3-1.5-9.5-.4-2.2-.8-4.8-1.1-5.8-.3-1-.7-3.2-1-5-.6-5.3-3.6-20.4-5.8-29.7-1.2-5-4.5-14.7-6.8-19.5-2.4-5.3-10.1-17.2-14-21.7-1.3-1.4-3.7-4.3-5.5-6.5-1.7-2.1-3.9-4.7-5-5.9-8.5-9.7-13.4-15.3-17.3-20.1-3.1-3.7-13.8-18.9-15-21.3-.7-1.4-1.6-2.7-1.9-3-.3-.3-2.7-3.7-5.3-7.5-6.7-10.1-21.3-23.7-23.2-21.7-.3.3-.6.1-.6-.5s-.8-1.3-1.7-1.6c-1-.3-4.5-1.5-7.8-2.7-3.3-1.3-6.9-2.4-8-2.6-1.1-.1-4.7-.8-8-1.5-9.7-1.9-36.7-1.9-45.5.1zm-11.5 69.4c9.7.7 20.5 1.6 23.5 2.1 1.4.2 4.5.6 7 1 2.5.3 6.5 1 9 1.5 2.5.6 5.6 1.2 7 1.4 6.6 1.3 8.8 1.8 13 3.2 2.5.9 5.6 1.8 7 2.1 1.3.2 2.9.8 3.5 1.2.5.4 3.9 1.8 7.5 3.1 23.3 8.2 44.7 22.8 58.6 39.8 3.2 4 6.4 7.9 6.9 8.5 2.8 3.4 7.5 10.7 7.5 11.6 0 .6.4 1.1.8 1.1.5 0 1.7 1.7 2.9 3.7 1.1 2.1 3 5.5 4.1 7.6 3.2 5.6 7.2 18 10.8 33.7.8 3.6 1.7 7.2 1.9 8 .4 1.6 3.1 14.9 3.9 19 .3 1.4 1.2 5.9 2.1 10 .9 4.1 1.8 8.6 2 10 .2 1.4 1.1 5.9 2 10 .9 4.1 1.8 8.6 2 10 .7 4.7 1.7 10.2 2.2 12.4.2 1.1.6 3.4.8 5.1.1 1.6.6 4.8.9 7 .4 2.2.9 5.8 1.1 8 1.3 12.9 1.6 16.8 2 24.5.2 4.7.7 12.1 1 16.5.6 8.7 1.4 22.4 2 32 .2 3.3.4 6 .5 6 .1 0 .3 3.1.5 7 .2 3.8.7 11.5 1 17 .4 5.5.6 10.7.6 11.5v4.5c.5 13.5.2 70.1-.4 74.5-1.1 8.6-1.5 10.4-6.2 28.5-2.5 9.3-4.7 17.9-4.9 19-.3 1.1-1.4 4.7-2.6 8-1.1 3.3-2.2 6.7-2.4 7.5-.6 2.3-8.6 24.1-10.1 27.5-.7 1.6-3.4 7.7-6 13.5-4.4 10.1-13.9 28.7-18.4 36-1.1 1.9-2.4 4.2-2.8 5-1.4 3.1-13.7 22.5-14.5 22.8-.4.2-.8.8-.8 1.2 0 .5-1 2.4-2.3 4.2-13.2 19.2-23 27.7-34 29.6-2.3.4-10 .7-17.2.7-11.5 0-13.3-.2-15.4-2-8.6-7.1-37.1-38.1-37.1-40.4 0-.6-.4-1.1-.9-1.1-1.7 0-17.3-24.7-24.6-39-2.6-5.2-19.1-30.9-20.5-32-.3-.3-3.1-3.9-6.2-8-15.3-20.3-35.6-40-54.8-53.1-3.6-2.4-6.8-4.8-7.1-5.2-.3-.5-1-.9-1.5-.9-.5-.1-2.6-1.2-4.7-2.5-7.5-4.7-22-11.5-30-14-12.7-3.9-12-3.2-9.3-11.1 1.3-3.7 2.9-9 3.6-11.7 1.8-7.3 2.1-30.5.4-39.9-3.8-21.8-21.3-44.4-42.9-55.3-6.4-3.2-13.3-6-16-6.4-.2 0-1.9-.4-3.6-.9-19.9-5.7-47.4-.2-65.7 13.2-8.8 6.5-19.2 17.6-23.1 24.8-3.6 6.5-7.1 14.2-7.7 16.7-.4 1.5-.9 3.2-1.3 3.8-.3.5-.6 1.2-.6 1.5-.3 1.4-1.8 9.8-2.2 11.5-1 4.9-.3 17.4 1.7 27.6 1.2 6.1 2 11.3 1.8 11.5-.3.2-3.9.5-8.2.7l-7.7.2.7-25.5c.9-38.2 1.2-50 1.9-78.5.4-14.3.8-29.5.9-33.8.1-4.3-.1-8.1-.4-8.6-.5-.7-12.6-6.6-14.3-6.9-.4-.1-2.2-.9-4-1.9-1.7-.9-3.4-1.8-3.7-1.8-.3-.1-1.6-.6-3-1.2s-6.1-2.5-10.5-4.3c-16.5-6.6-26.7-11.1-28.4-12.6-1.2-1.1-1.1-1.5.4-3.1 1.8-1.7 4.4-3.4 7.5-4.9 2.9-1.4 16.6-9.7 20.7-12.5 2.3-1.6 4.4-2.9 4.7-2.9.4 0 2.8-1.5 5.4-3.3 2.6-1.8 6.7-4.4 9.2-5.8 2.5-1.3 4.7-2.7 5-3 .3-.3 3.2-1.8 6.5-3.4 3.3-1.5 6.2-2.9 6.4-3.1.5-.5 1.2-28.2 2.2-90.2.2-12.2.4-14.2 1.8-14.3.9 0 21.6-.2 46.1-.4 51.8-.5 52.6-.6 58-3.4 4.4-2.3 13.1-8.5 16.7-12 1.2-1.2 2.5-2.1 2.8-2.1.3 0 1.6-1 2.9-2.3 2.6-2.5 5.7-5.2 14.1-12.2 3.3-2.8 6.2-5.2 6.5-5.5.3-.3 2.3-1.8 4.5-3.5 2.2-1.6 4.2-3.1 4.5-3.4 1.2-1.4 16.2-11.1 17-11.1.6 0 1-.4 1-.8 0-.5 3.7-2.8 8.3-5.1 4.5-2.4 10-5.3 12.2-6.5 7.3-3.9 25.4-10.5 34.5-12.5 10.8-2.4 14.4-2.9 27-3.7 5.8-.4 10.6-.8 10.7-.9.4-.2 27.2.4 34.8.9z"/><path d="M948.6 364.7c-.2.2-1.3.6-2.6.8-8 1.5-17 9.1-21.6 18.3-2.6 5-2.9 6.7-2.9 14.7.1 7.7.5 9.9 2.9 15.2 3.2 7.1 8.9 12.8 16.1 16.4 6.8 3.3 18.6 3.6 26.4.7 11-4.2 21.4-18 20.7-27.6-.2-2.6.1-3.9.7-3.5.6.3.8.2.5-.3-.3-.5-.8-3.3-1.2-6.2-1.5-12.8-12-24.6-24.6-27.6-3-.8-13.9-1.4-14.4-.9zm16 10.3c7 3 11.5 7.9 14.3 15.7 7.5 20.5-14.5 40.8-34.4 31.8-5.2-2.4-12.3-8.6-13.2-11.5-.1-.3-.6-1.7-1.2-3.2-.6-1.5-1.2-4.4-1.4-6.5-.3-3.2 0-5.3 1.6-11.8 1.1-4 7.2-11.1 11.6-13.5 6.7-3.5 15.8-3.9 22.7-1zM661.7 387.5c-8 2.6-13 5.9-16.3 10.9-6.8 10.1-2.8 20.7 10.1 27.4 2.7 1.4 5.5 2.7 6 2.8.6.1 2.9.6 5.2 1.2 4.4 1 19.8.9 24.8-.2 10.7-2.4 17.3-6 21.9-12 7.5-9.9 1.9-22.3-13-28.6-2.7-1.2-6.5-2.3-8.4-2.5-1.9-.2-3.5-.5-3.5-.6 0-.1-4.6-.2-10.2-.3-8-.2-11.7.3-16.6 1.9zM892.5 424c-10.2 1.1-17.6 5.4-25.5 14.9-1.1 1.3-2 2.9-2 3.6 0 .7-.7 2.7-1.6 4.5-1.1 2.2-1.7 5.8-1.7 10.9 0 14.2 7.4 25.8 20.3 31.8 2.9 1.3 8.1 2.7 9.3 2.4.5-.1 3.7-.3 7.1-.5 6.7-.3 13.6-3 17.7-6.9 3.5-3.2 9.7-12 11.3-15.8 2.7-6.7 1.2-22.7-2.4-25.9-.3-.3-1.6-2.1-2.8-4.2-6.3-10.2-17.8-16-29.7-14.8zm11.8 9.4c1.5.5 2.7 1.2 2.7 1.7s.6.9 1.3.9c2.4 0 8 6.4 10.4 11.9 6 13.4-.5 29-14.3 34.4-5.4 2.1-15.6 1.7-20.9-.8-8.2-4-13.4-12.6-13.6-22.6-.1-9 .6-11.2 5.9-17.8 4.9-6 11.4-8.9 19.5-8.6 3.4.1 7.4.5 9 .9zM1007.7 424.6c-.1.2-1.4.5-2.7.8-4.5.8-9.4 3.9-14.5 9.1-5.8 6-9.2 12.1-10 18.5-.4 2.4-.9 4.8-1.1 5.2-.3.5-.2.8.3.8.4 0 .9 1.8.9 4 .1 4.1 1.6 8 4.3 11.2.8 1 1.1 1.8.7 1.8-.3 0 1.4 2.1 3.9 4.6 2.5 2.6 4.5 5 4.5 5.5 0 1 8.1 4.9 11.7 5.5 8.3 1.6 19.3.3 23.1-2.8.6-.6 1.2-.8 1.2-.4 0 .9 3.9-2.4 8.5-7.1 6.1-6.4 8.8-14.1 8.4-24.4-.3-6.4-1-9.5-2.8-12.9-6.3-12.2-16.3-18.8-29-19.4-3.9-.1-7.2-.2-7.4 0zm17.2 10.3c19.4 10 19 38.1-.8 47.4-5.5 2.6-14.1 2.7-20.5.3-6-2.3-12.9-9.9-14.7-16.3-1.5-5.3-1.8-11.9-.8-14.3.4-.8 1.2-2.9 1.9-4.6 1.6-4.4 7.7-10.3 13.3-12.9 6.1-2.9 15.5-2.7 21.6.4zM944.7 481.1c-9.2 3.3-15.6 9-19.9 17.9-6.6 13.5-3.2 30 8.3 40.4 6.2 5.6 9.8 7.2 18.4 8.4 15.2 2 30.8-8.1 36-23.4 1.9-5.7 2.3-17 .7-18.6-.7-.7-1.2-2.1-1.2-3.3 0-5.7-11-17.3-19.4-20.7-6.1-2.4-17.2-2.7-22.9-.7zm21.3 9.1c9 4 14.9 13.7 14.5 24-.1 3.5-.3 6.4-.4 6.5 0 .2-.1.6-.2 1 0 .5-1 2.4-2.2 4.3-5.9 9.7-12.1 13.2-23 13.3-6.3 0-7.8-.4-12.2-3.1-5.4-3.3-8.3-6.2-10.2-10.2-4.8-10.2-3.4-21.5 3.4-29.1 4.5-5 9.2-7.9 13.9-8.5 2.1-.2 3.9-.6 4.1-.8.6-.6 8.9 1.1 12.3 2.6z"/></svg>